<?xml version="1.0" encoding="UTF-8"?>
<!DOCTYPE svg PUBLIC "-//W3C//DTD SVG 1.1//EN" "http://www.w3.org/Graphics/SVG/1.1/DTD/svg11.dtd">
<!-- Creator: CorelDRAW 2019 (64 Bit) -->
<svg xmlns="http://www.w3.org/2000/svg" xml:space="preserve" width="167.519mm" height="63.0727mm" version="1.1" style="shape-rendering:geometricPrecision; text-rendering:geometricPrecision; image-rendering:optimizeQuality; fill-rule:evenodd; clip-rule:evenodd"
viewBox="0 0 16493.62 6210.02"
 xmlns:xlink="http://www.w3.org/1999/xlink">
 <defs>
  <style type="text/css">
   <![CDATA[
    .fil1 {fill:none}
    .fil0 {fill:none;fill-rule:nonzero}
   ]]>
  </style>
 </defs>
 <g id="Camada_x0020_1">
  <metadata id="CorelCorpID_0Corel-Layer"/>
  <path class="fil0" d="M3369.54 758.36c9.09,6.07 18.17,13.63 27.25,22.7 3.02,3.03 6.06,4.55 9.08,4.55l-72.65 -49.95c3.02,0 6.06,1.51 9.07,4.53 0,0 9.09,6.06 27.25,18.17 30.28,18.18 55.25,40.88 74.94,68.12 19.67,27.24 35.57,57.52 47.67,90.83 6.06,15.13 9.09,28 9.09,38.6 0,10.59 0,23.46 0,38.61 0,57.51 -15.13,110.5 -45.42,158.93 -12.1,18.17 -19.67,31.78 -22.7,40.87l-54.49 81.74c-12.11,21.19 -24.22,41.64 -36.34,61.31 -12.1,19.68 -25.73,40.11 -40.86,61.31l-458.66 740.21c-24.22,33.3 -46.18,68.11 -65.85,104.44 -19.68,36.33 -41.63,72.66 -65.84,108.99l-703.89 1126.2c-6.06,12.11 -12.11,21.2 -18.17,27.25 -36.33,60.54 -86.29,99.91 -149.86,118.06 -27.24,9.09 -57.52,13.63 -90.82,13.63 -45.41,0 -87.8,-10.59 -127.16,-31.78 -48.44,-21.2 -87.8,-57.53 -118.07,-108.99l-181.65 -290.63c-15.13,-27.25 -31.78,-54.51 -49.95,-81.75 -18.17,-27.24 -34.81,-56.01 -49.96,-86.28 -21.19,-30.28 -40.87,-60.55 -59.03,-90.82 -18.18,-30.28 -37.85,-62.07 -59.05,-95.38l-127.15 -199.8c-21.19,-36.33 -42.38,-71.9 -63.57,-106.72 -21.19,-34.81 -43.9,-70.4 -68.12,-106.73 -24.21,-36.32 -46.17,-72.65 -65.84,-108.98 -19.68,-36.33 -41.63,-71.15 -65.85,-104.44l-131.7 -213.44c-24.22,-33.3 -46.16,-67.36 -65.85,-102.17 -19.67,-34.81 -40.11,-68.87 -61.3,-102.17l-217.98 -349.67c-15.14,-24.22 -29.53,-46.93 -43.14,-68.12 -13.63,-21.2 -28,-43.89 -43.13,-68.11l-99.91 -158.94c-9.09,-15.14 -17.42,-31.79 -24.99,-49.96 -7.56,-18.17 -14.37,-37.85 -20.43,-59.04 -3.02,-12.11 -4.54,-30.27 -4.54,-54.5 0,-102.93 43.9,-183.16 131.69,-240.68 42.39,-30.27 92.34,-45.41 149.86,-45.41 66.61,0 124.13,19.68 172.57,59.04 15.13,12.11 28.76,25.74 40.87,40.88 12.11,15.13 24.22,31.78 36.33,49.95l45.41 68.11c12.11,18.17 23.46,37.08 34.06,56.77 10.59,19.67 23.46,38.6 38.6,56.76l336.05 540.4c39.36,66.61 83.26,137.75 131.7,213.44 24.22,36.33 46.93,72.65 68.12,108.98 21.19,36.33 42.39,72.66 63.57,108.99l131.7 204.34c18.16,33.31 37.08,65.1 56.76,95.38 19.68,30.28 40.11,62.06 61.3,95.36l231.6 376.92c6.06,6.06 12.11,15.14 18.17,27.24l22.7 -27.24 231.6 -376.92c21.19,-33.3 41.63,-65.08 61.3,-95.36 19.68,-30.28 38.61,-62.07 56.77,-95.38l131.69 -204.34c21.19,-36.33 42.39,-72.66 63.57,-108.99 21.2,-36.33 43.9,-72.65 68.11,-108.98 24.23,-33.3 46.18,-68.11 65.86,-104.44 19.67,-36.33 41.63,-72.66 65.84,-108.99l336.05 -540.4c15.13,-18.17 28,-37.09 38.61,-56.76 10.58,-19.69 21.95,-38.61 34.06,-56.77l45.42 -68.11c18.16,-36.33 43.88,-66.61 77.19,-90.83 48.44,-39.35 105.96,-59.04 172.57,-59.04 57.52,0 107.48,15.14 149.85,45.41zm758.37 149.86c78.72,0 146.08,28 202.09,84.01 56,56 84.01,123.36 84.01,202.08l0 2147.97c0,78.72 -28.01,146.07 -84.01,202.09 -56,56 -123.37,84 -202.09,84 -78.71,0 -145.31,-28 -199.8,-84 -54.51,-56.01 -81.75,-123.37 -81.75,-202.09l0 -2147.97c0,-78.72 27.24,-146.07 81.75,-202.08 54.49,-56.01 121.09,-84.01 199.8,-84.01zm0 -340.59c-78.71,0 -145.31,-28 -199.8,-83.26 -54.51,-56 -81.75,-122.61 -81.75,-200.57 0,-77.96 27.24,-144.56 81.75,-200.57 54.49,-55.24 121.09,-83.25 199.8,-83.25 78.72,0 146.08,28 202.09,83.25 56,56.01 84.01,122.61 84.01,200.57 0,77.96 -28.01,144.57 -84.01,200.57 -56,55.25 -123.37,83.26 -202.09,83.26zm2379.58 145.31c75.68,6.06 140.02,35.57 193,88.55 52.99,52.98 79.48,117.32 79.48,193.01 0,78.7 -28,146.07 -84.01,202.08 -56,56.01 -123.37,84.01 -202.08,84.01l-22.71 0c-118.07,6.06 -229.33,33.3 -333.77,81.74 -104.44,48.43 -195.27,112.77 -272.46,193 -77.2,80.22 -137.75,173.33 -181.65,279.29 -43.9,105.96 -65.86,219.48 -65.86,340.59l0 1180.7c0,78.71 -28,145.31 -84,199.81 -56.01,54.5 -123.37,81.74 -202.09,81.74 -78.72,0 -145.31,-27.24 -199.81,-81.74 -54.5,-54.5 -81.74,-121.1 -81.74,-199.81l0 -1180.7c0,-199.81 37.09,-386.76 111.26,-560.84 74.18,-174.07 174.83,-326.96 301.98,-458.66 127.16,-131.7 277.02,-236.89 449.58,-315.61 172.57,-78.72 357.25,-121.1 554.02,-127.16l27.25 0 4.53 0 9.09 0zm2783.73 0c78.72,0 145.31,28 199.82,84.01 54.5,56 81.74,123.37 81.74,202.08 0,78.72 -27.24,145.32 -81.74,199.82 -54.51,54.5 -121.1,81.74 -199.82,81.74l-349.66 0 -376.92 0 0 2075.31c0,78.71 -28,145.31 -84.01,199.81 -56,54.5 -123.36,81.74 -202.08,81.74 -78.72,0 -145.31,-27.24 -199.82,-81.74 -54.49,-54.5 -81.74,-121.1 -81.74,-199.81l0 -2075.31 -345.13 0 -381.46 0c-78.72,0 -145.31,-27.24 -199.8,-81.74 -54.51,-54.5 -81.75,-121.1 -81.75,-199.82 0,-78.71 27.24,-146.07 81.75,-202.08 54.49,-56.01 121.08,-84.01 199.8,-84.01l381.46 0 1289.69 0 349.66 0zm3215.15 0c78.72,0 145.31,28 199.8,84.01 54.5,56 81.75,123.37 81.75,202.08l0 1180.7c0,199.82 -38.61,388.28 -115.81,565.39 -77.2,177.1 -181.65,331.5 -313.33,463.2 -131.7,131.7 -286.09,236.14 -463.21,313.34 -177.11,77.2 -365.57,115.8 -565.37,115.8 -202.84,0 -392.82,-38.6 -569.92,-115.8 -177.1,-77.2 -331.5,-181.65 -463.2,-313.34 -131.7,-131.7 -236.14,-286.1 -313.34,-463.2 -77.2,-177.11 -115.8,-365.57 -115.8,-565.39l0 -1180.7c0,-78.71 28.01,-146.07 84.01,-202.08 56.01,-56.01 123.37,-84.01 202.09,-84.01 78.71,0 145.31,28 199.8,84.01 54.51,56 81.75,122.61 81.75,201.32l0 1178.45c0,124.12 23.45,239.91 70.39,346.63 46.93,107.48 110.5,202.09 190.72,283.83 80.23,80.98 174.83,145.32 283.83,192.24 108.98,46.93 225.55,70.39 349.67,70.39 121.09,0 236.13,-23.46 345.13,-70.39 108.98,-46.92 204.35,-111.26 286.1,-192.24 81.73,-81.74 146.07,-176.35 192.99,-283.83 46.93,-106.72 70.39,-222.52 70.39,-346.63l-4.53 0 0 -1178.45c0,-78.71 28,-145.31 84,-201.32 56.01,-56.01 123.37,-84.01 202.09,-84.01zm2007.19 0c202.84,0 392.81,38.6 569.91,115.8 177.11,77.2 331.51,181.65 463.2,313.35 131.69,131.69 236.15,286.85 313.35,465.46 77.18,178.62 115.79,367.84 115.79,567.65l0 1180.7c0,78.71 -27.24,145.31 -81.73,199.81 -54.51,54.5 -121.1,81.74 -199.82,81.74 -78.72,0 -146.07,-27.24 -202.08,-81.74 -56.01,-54.5 -84.01,-121.1 -84.01,-199.81l0 -544.95 -894.61 0 0 -4.53c-9.09,3.01 -25.73,4.53 -49.96,4.53 -99.91,0 -195.26,15.14 -286.09,45.42 -90.82,30.27 -173.32,72.65 -247.49,127.15 -74.17,54.5 -138.5,119.58 -193,195.27 -54.49,75.68 -95.36,158.94 -122.62,249.77 -3.02,3.02 -4.53,6.05 -4.53,9.08 0,3.02 -1.52,6.06 -4.54,9.08 -18.18,57.53 -51.47,103.69 -99.92,138.5 -48.43,34.82 -104.44,52.23 -168.02,52.23 -78.72,0 -145.31,-27.24 -199.81,-81.74 -54.5,-54.5 -81.74,-121.1 -81.74,-199.81l0 -40.87 0 -1139.83c0,-178.62 30.28,-346.64 90.82,-504.08 72.66,-193.75 181.65,-366.32 326.97,-517.69 136.24,-136.24 292.9,-243.7 470,-322.42 177.12,-78.72 367.09,-118.07 569.92,-118.07zm894.61 1530.37l0 -68.11c0,-157.43 -37.85,-302.75 -113.53,-435.96 0,-3.01 -0.76,-5.29 -2.26,-6.8 -1.52,-1.52 -2.27,-3.78 -2.27,-6.81 -12.11,-18.17 -24.22,-36.33 -36.33,-54.5 -12.11,-18.16 -24.21,-34.81 -36.33,-49.95 -81.74,-105.97 -183.15,-189.22 -304.26,-249.77 -121.09,-60.55 -254.31,-90.82 -399.62,-90.82 -145.31,0 -279.28,32.54 -401.9,97.63 -122.61,65.09 -224.79,150.61 -306.53,256.57 -57.52,75.68 -102.17,158.94 -133.96,249.77 -31.78,90.83 -47.68,187.7 -47.68,290.64l0 336.05c118.07,-84.77 248.25,-150.62 390.54,-197.55 142.29,-46.93 292.15,-70.39 449.57,-70.39l49.96 0 894.61 0z"/>
  <path class="fil0" d="M11737.18 5692.9c58.23,0 107.51,20.72 147.82,62.15 40.31,41.43 60.46,91.26 60.46,149.49 0,58.23 -20.15,107.51 -60.46,147.83 -40.31,40.3 -89.59,60.46 -147.82,60.46l-248.59 0c-147.83,0 -287.23,-28.55 -418.24,-85.67 -131.02,-57.11 -245.8,-134.38 -343.79,-231.8 -97.98,-97.41 -175.8,-211.64 -233.46,-342.65 -57.68,-131.01 -86.23,-271.55 -86.23,-421.6 0,-147.82 28.55,-287.23 86.23,-418.24 57.67,-131.02 135.49,-245.24 233.46,-342.65 97.99,-97.42 212.77,-174.69 343.79,-231.8 131.01,-57.12 270.42,-85.66 418.24,-85.66l248.59 0c58.23,0 107.51,20.15 147.82,60.46 40.31,40.31 60.46,89.59 60.46,147.82 0,58.23 -20.15,108.06 -60.46,149.49 -40.31,41.43 -89.59,62.15 -147.82,62.15l-248.59 0c-91.83,0 -177.49,17.36 -257,52.07 -79.5,34.71 -149.49,81.74 -209.96,141.09 -60.46,59.35 -108.06,129.33 -142.77,209.96 -34.71,80.63 -52.06,165.73 -52.06,255.31 0,91.82 17.36,178.04 52.06,258.68 34.72,80.62 82.31,150.6 142.77,209.95 60.47,59.35 130.46,106.38 209.96,141.1 79.5,34.71 165.16,52.06 257,52.06l248.59 0zm1431.1 -1746.86c55.98,4.47 103.58,26.31 142.76,65.49 39.2,39.2 58.8,86.78 58.8,142.77 0,58.23 -20.73,108.06 -62.15,149.5 -41.44,41.43 -91.27,62.15 -149.5,62.15l-16.8 0c-87.34,4.47 -169.65,24.63 -246.91,60.46 -77.26,35.84 -144.45,83.42 -201.56,142.78 -57.11,59.34 -101.89,128.21 -134.38,206.59 -32.47,78.38 -48.71,162.37 -48.71,251.95l0 873.44c0,58.22 -20.72,107.49 -62.15,147.81 -41.43,40.32 -91.27,60.47 -149.49,60.47 -58.23,0 -107.51,-20.15 -147.82,-60.47 -40.31,-40.32 -60.46,-89.59 -60.46,-147.81l0 -873.44c0,-147.82 27.42,-286.11 82.29,-414.88 54.88,-128.77 129.34,-241.87 223.4,-339.3 94.07,-97.41 204.92,-175.26 332.58,-233.47 127.65,-58.23 264.27,-89.59 409.84,-94.06l20.15 0 3.37 0 6.71 0zm2499.37 2163.43c-58.23,0 -106.94,-20.15 -146.13,-60.47 -39.19,-40.32 -58.79,-89.59 -58.79,-147.81l0 -1242.97 -268.19 268.75c-53.75,53.76 -114.22,95.18 -182.52,124.29 -68.31,29.11 -139.98,43.67 -216.13,43.67 -76.14,0 -148.37,-14.55 -217.8,-43.67 -69.41,-29.11 -129.33,-70.54 -180.84,-124.29l-271.56 -272.11 0 1246.33c0,58.22 -20.15,107.49 -61.02,147.81 -40.31,40.32 -90.15,60.47 -148.93,60.47 -58.79,0 -108.62,-20.15 -148.94,-60.47 -40.87,-40.32 -61.02,-89.59 -61.02,-147.81l0 -1743.52c0,-58.24 20.15,-107.51 60.46,-147.82 40.32,-40.32 89.59,-60.47 147.82,-60.47 42.55,0 81.75,12.32 117.58,36.95l0 -3.35 26.87 23.51 597.98 601.32c40.32,35.83 86.23,53.75 137.73,53.75 49.27,0 94.06,-17.92 134.38,-53.75l618.12 -621.49 3.37 0c35.83,-24.63 75.03,-36.95 117.57,-36.95 58.23,0 107.51,20.15 147.83,60.47 40.3,40.31 60.45,89.58 60.45,147.82l0 1743.52c0,58.22 -20.15,107.49 -60.45,147.81 -40.32,40.32 -89.6,60.47 -147.83,60.47z"/>
  <g id="_1520329473776">
   <path class="fil1" d="M7856.88 5123.04l6.05 -14.76c0.09,-0.28 0.18,-0.56 0.27,-0.83l4.86 -12.66c0.09,-0.28 0.17,-0.57 0.26,-0.85 0.09,-0.27 0.18,-0.55 0.29,-0.81 0.09,-0.26 0.21,-0.54 0.3,-0.78 0.11,-0.25 0.25,-0.52 0.34,-0.75 0.11,-0.25 0.26,-0.51 0.37,-0.74l7.72 -15.29c0.1,-0.23 0.24,-0.51 0.35,-0.73 0.11,-0.23 0.26,-0.51 0.36,-0.74l23.18 -35.97c2.38,-3.06 -1.3,2.18 0.89,-1.3 5.81,-9.25 14.81,-16.78 22.63,-24.48l39.47 -26.24c0.23,-0.12 0.51,-0.26 0.74,-0.35l27.73 -12.8c0.24,-0.11 0.52,-0.23 0.78,-0.32l5.01 -1.58c0.26,-0.09 0.54,-0.2 0.8,-0.29 0.27,-0.09 0.54,-0.22 0.81,-0.31 0.26,-0.09 0.54,-0.2 0.81,-0.29l28.48 -8.76c0.29,-0.07 0.57,-0.15 0.87,-0.21 1.57,-0.35 2.23,-0.24 3.78,-0.6l10.46 -2.69c0.28,-0.09 0.53,-0.24 0.78,-0.32l22.7 -4.7c3.58,-1.12 3.17,-0.35 6.78,-0.88 8,-1.14 -1.26,-0.95 6.74,-2 2.46,-0.33 4.86,0.21 7.37,-0.31 4.51,-0.92 1.96,-1.6 6.79,-1.96 2.97,-0.23 4.2,0.35 7.2,-0.47 0.29,-0.07 0.54,-0.21 0.8,-0.3l1.54 -0.66c0.27,-0.09 0.52,-0.23 0.79,-0.32 4.54,-1.28 10.91,0.24 15.22,-1.21 4.51,-1.52 9.51,-0.71 14.94,-1.49 4.84,-0.69 4.09,-2.17 9.83,-2.21 2.66,-0.03 6.35,0.32 8.88,0.12l5.11 -1.47c0.27,-0.1 0.52,-0.23 0.79,-0.32 5.61,-1.6 13.28,0.01 18.92,-1.88 6.33,-2.15 13.26,0.18 22.69,-2.5 5.86,-1.67 13.02,0.1 18.92,-1.88 6.39,-2.16 17.73,0.14 23.34,-1.86l6.48 -1.18c17.09,-0.17 11.88,-2.34 23.1,-2.11 2.16,0.05 5.42,0.22 7.43,-0.22 7.25,-1.57 3.59,-2.02 14.53,-1.91 7.26,0.06 7.42,-2.26 14.13,-2.29l8.8 -1.05c4.63,-1.64 9.36,-0.46 14.18,-1.15 7.72,-1.11 -0.49,-0.6 5.77,-1.92 2.7,-0.57 5.85,0.03 8.57,-0.18l5.11 -1.46c4.44,-1.51 10.58,-0.63 15.34,-2.2 3.87,-1.29 3.91,-0.46 7.99,-0.76l4.38 -1.1c3.52,-1.24 6.28,-0.7 9.78,-1.17 7.79,-1.03 -0.52,-0.61 5.78,-1.89 2.8,-0.56 5.52,0.11 8.31,-0.44 6.3,-1.29 -2.01,-0.88 5.78,-1.89 3.3,-0.43 5.62,0.26 9.02,-0.85l113.85 -26.36c3.53,-1.21 -1.68,0.05 3.31,-1.06l4.67 -0.81c0.29,-0.08 0.54,-0.2 0.83,-0.28l51.16 -15.64c0.28,-0.09 0.56,-0.21 0.82,-0.3l4.96 -1.6c0.26,-0.09 0.54,-0.2 0.81,-0.29 0.26,-0.09 0.54,-0.22 0.8,-0.31l25.51 -8.45c0.24,-0.1 0.5,-0.24 0.75,-0.34l5.18 -2.49c0.27,-0.09 0.56,-0.16 0.84,-0.26 0.29,-0.09 0.58,-0.15 0.86,-0.24l20.08 -7.31c0.23,-0.12 0.5,-0.26 0.75,-0.36l5.82 -1.82c0.25,-0.11 0.54,-0.22 0.78,-0.32l56.22 -23.76c3.35,-1.7 -1.92,0.97 1.46,-0.73 0.89,-0.45 2.03,-1 2.91,-1.46l101.51 -50.73c0.23,-0.12 0.52,-0.25 0.75,-0.36l2.86 -1.52c0.19,-0.13 0.46,-0.32 0.64,-0.44l70.26 -42.57c1.74,-0.95 1.22,-0.66 2.66,-1.72 1.09,-0.81 1.87,-1.52 2.47,-1.9l13.14 -8.76c0.2,-0.14 0.48,-0.29 0.69,-0.4l2.77 -1.6c0.2,-0.14 0.44,-0.35 0.63,-0.48 1.24,-0.91 1.78,-1.45 2.49,-1.89l37.91 -26.71c0.22,-0.12 0.51,-0.26 0.73,-0.37 0.21,-0.13 0.49,-0.27 0.7,-0.38l11.33 -8.39c0.24,-0.22 0.95,-0.8 1.2,-0.99l8.14 -6.08c3.03,-2.42 -2.16,1.29 1.29,-0.91l6.35 -4.61c0.58,-0.55 1.44,-1.32 1.73,-1.55 0.2,-0.13 0.48,-0.3 0.68,-0.41 4.78,-3.03 7.1,-6.35 10.95,-8.76l12.31 -8.53c0.48,-0.32 1.86,-1.6 2.31,-2.06l16.76 -13.9c0.03,-0.02 1.42,-0.74 1.46,-0.75 4.9,-2.87 8.46,-7.96 13.84,-11.34 0.2,-0.13 0.48,-0.29 0.68,-0.42l9.6 -9c6.15,-3.86 9.51,-9.5 15.33,-13.14l22.79 -18.84c3.03,-3.1 5.43,-5.43 8.22,-8.22l52.04 -47.63c6.66,-6.68 49.64,-47.84 53.44,-53.89 8.74,-13.94 24.39,-23.35 34.16,-35.94l3.31 -5.47c1.79,-2.35 3.87,-4.84 7.11,-6.02l-5.18 18.91c-0.07,0.28 -0.21,0.53 -0.3,0.8 -0.09,0.26 -0.23,0.52 -0.31,0.78 -0.09,0.29 -0.2,0.54 -0.29,0.83l-5.65 26.09c-1.55,4.79 -0.65,10.17 -1.89,14.55 -0.08,0.28 -0.22,0.54 -0.31,0.8l-0.66 1.52c-2.02,5.99 -0.07,16.14 -1.86,21.15 -1.5,4.2 -1.06,10.55 -1.1,15.35 -0.08,10.34 1.75,9.73 2.24,15.28 0.45,5.2 -0.98,11.09 0.42,16 0.07,0.28 0.21,0.54 0.3,0.8l1.51 10.55c0.89,6.7 0.7,0.07 1.86,5.8l4.91 21.37c1.11,5 -0.13,-0.23 1.08,3.3l6.64 17.47c0.1,0.26 0.19,0.54 0.29,0.81 0.5,1.52 0.44,1.91 0.96,3.43l14.14 28.58c0.1,0.23 0.25,0.51 0.35,0.73l3.32 6.55c0.12,0.2 0.32,0.46 0.45,0.64l22.5 32.26c0.26,0.43 0.5,1 0.76,1.44l7.34 7.99c0.43,0.43 1.73,1.88 2.05,2.32l2.37 4.2c3.98,5.73 36.77,37.36 39.01,38.77 6.72,4.21 11.17,9.66 15.29,12.07l1.38 0.82c0.49,0.34 1.88,1.6 2.32,2.07l7.96 6.27c0.21,0.13 0.49,0.29 0.68,0.41l5.94 5.03c1.23,0.74 0.75,0.29 2.12,1.15l26.38 18.55c0.12,0.06 1.3,0.69 1.43,0.76l10.98 6.53c1.58,0.94 0.42,0.22 1.95,1.35 1.08,0.83 1.94,1.6 2.45,1.94l74.44 39.46c0.23,0.1 0.51,0.26 0.73,0.35 0.47,0.25 0.99,0.5 1.46,0.74l24.79 11.35c0.32,0.14 1.21,0.54 1.53,0.67 0.27,0.09 0.55,0.19 0.83,0.28l15.18 5.61c0.26,0.11 0.54,0.23 0.78,0.32l4.35 2.23c0.25,0.11 0.52,0.22 0.78,0.32l5.04 1.52c0.26,0.11 0.54,0.23 0.79,0.32l5.94 2.84c0.27,0.1 0.57,0.17 0.84,0.25l88.82 29.47c0.28,0.09 0.54,0.21 0.82,0.3l29.78 8.56c2.65,0.93 -1.04,0.29 3.27,1.09l34.01 7.62c3.11,0.97 -1.96,0.12 3.24,1.14l21.04 4.15c4.53,1.18 14.81,2.06 21.09,4.1 3.97,1.29 7.85,0.27 11.62,1.53 4.64,1.52 11.1,0.77 15.33,2.18 3.09,1.03 -2.04,0.14 3.18,1.22 1.6,0.32 2.55,0.23 4.15,0.23 0,-4.76 -0.03,-9.52 0.03,-14.28 0.11,-9.77 -2.08,-9.26 -2.14,-20.85 -0.04,-6.91 -2.3,-6.36 -2.33,-13.01 -0.06,-12.71 -0.84,-8.23 -1.9,-13.44 -0.51,-2.51 0.03,-4.91 -0.31,-7.35 -1.01,-7.8 -0.6,0.52 -1.89,-5.79l-2.89 -20.1c-0.07,-0.28 -0.21,-0.53 -0.29,-0.81 -0.38,-1.23 -1.11,-0.92 -1.43,-5.14 -0.22,-2.97 0.35,-4.19 -0.44,-7.22 -0.08,-0.28 -0.22,-0.54 -0.31,-0.8 -0.1,-0.34 -0.52,-1.22 -0.63,-1.57l-4.88 -21.39c-0.08,-0.32 -0.11,-0.61 -0.17,-0.93l-2.84 -12.5c-0.08,-0.28 -0.2,-0.55 -0.29,-0.82l-5.26 -19.93c-0.53,-1.97 -0.3,-1.92 -0.64,-3.73l-5.91 -20.38c-0.42,-1.24 -0.63,-2.09 -1.05,-3.33l-14.01 -41.84c-0.1,-0.27 -0.2,-0.55 -0.29,-0.81l-6.33 -16.69c-0.73,-1.9 -0.41,-1.5 -0.99,-3.39l-9.3 -23.56c-0.09,-0.26 -0.21,-0.54 -0.32,-0.78 -0.1,-0.24 -0.24,-0.51 -0.34,-0.75 -0.1,-0.23 -0.27,-0.49 -0.37,-0.72 -0.04,-0.08 -0.74,-1.32 -0.78,-1.41l-7.64 -17.56c-0.12,-0.23 -0.26,-0.5 -0.37,-0.73l-8.39 -18.99c-0.34,-0.67 -0.64,-1.29 -1.09,-2.19l-5.85 -11.68c-0.15,-0.3 -0.57,-1.17 -0.72,-1.47 -0.13,-0.23 -0.26,-0.49 -0.37,-0.72 -1.01,-2.04 0.28,0.57 -0.73,-1.48l-3.65 -7.29c-0.11,-0.23 -0.26,-0.51 -0.36,-0.74 -0.11,-0.23 -0.26,-0.51 -0.36,-0.73l-10.92 -19.75c-0.14,-0.2 -0.3,-0.46 -0.42,-0.67l-20.82 -37.23c-0.12,-0.21 -0.32,-0.46 -0.44,-0.66l-3.21 -4.44c-0.13,-0.23 -0.25,-0.51 -0.36,-0.74l-0.69 -1.5c-0.11,-0.25 -0.25,-0.53 -0.34,-0.75 -0.11,-0.23 -0.25,-0.53 -0.34,-0.76l-12.76 -19c-0.13,-0.2 -0.28,-0.48 -0.4,-0.69l-3.97 -5.89c-0.14,-0.19 -0.29,-0.47 -0.41,-0.69l-3.97 -5.88c-0.14,-0.2 -0.29,-0.48 -0.41,-0.69l-5.16 -7.99c-0.12,-0.2 -0.27,-0.48 -0.4,-0.7 -0.12,-0.19 -0.3,-0.46 -0.43,-0.66l-21.05 -29.33c-0.12,-0.19 -0.26,-0.49 -0.39,-0.7l-14.19 -17.56c-2.63,-4.47 -6.67,-7.33 -9.14,-11.68l-11.72 -14.58c-0.13,-0.2 -0.29,-0.48 -0.42,-0.67 -3.75,-5.4 -10.48,-9.02 -13.77,-14.69 -5.84,-9.99 -60.34,-61.49 -73.21,-74.66l-19.93 -17.31c-0.21,-0.13 -0.49,-0.28 -0.7,-0.39l-4.61 -3.06c-6.38,-5.96 -7.41,-7.79 -12.89,-11.22 -3.27,-2.05 -5.41,-5.62 -8.79,-7.62l-17.12 -13.55c-0.24,-0.21 -0.96,-0.8 -1.21,-0.97l-53.97 -38.03c-0.12,-0.07 -1.3,-0.7 -1.42,-0.78l-4.43 -3.23c-1.21,-0.78 -0.63,-0.4 -2.13,-1.17l-20.53 -12.33c-0.3,-0.15 -1.15,-0.59 -1.44,-0.75 -1.57,-0.94 -0.4,-0.2 -1.94,-1.35l-4.58 -3.09c-0.22,-0.11 -0.52,-0.25 -0.75,-0.34l-65 -35.76c-0.31,-0.15 -1.16,-0.58 -1.46,-0.73l-1.46 -0.74c-0.23,-0.11 -0.51,-0.26 -0.74,-0.36 -0.23,-0.1 -0.51,-0.26 -0.73,-0.35l-13.85 -6.96c-0.23,-0.11 -0.49,-0.28 -0.72,-0.37l-16.1 -6.9c-0.23,-0.13 -0.49,-0.26 -0.72,-0.37 -0.23,-0.11 -0.51,-0.26 -0.74,-0.36l-12.05 -5.47c-1.55,-0.46 -0.85,-0.14 -2.52,-0.77l-32.2 -13.8c-1.83,-0.7 -1.47,-0.43 -3.36,-1.01l-27.35 -9.9c-0.26,-0.09 -0.54,-0.2 -0.81,-0.29l-13.14 -4.38c-0.28,-0.09 -0.56,-0.18 -0.83,-0.26 -1.41,-0.46 -2.23,-0.69 -3.33,-1.06l-2.42 -0.88c-1.24,-0.4 -2.08,-0.61 -3.34,-1.03l-11.47 -3.85c-1.17,-0.37 -1.63,-0.51 -2.49,-0.82l-68.12 -18.37c-0.31,-0.09 -0.57,-0.17 -0.88,-0.23 -0.32,-0.08 -0.61,-0.11 -0.93,-0.17l-49.17 -9.99c-3.99,-1.41 -7.67,-0.49 -11.58,-1.56l-23.5 -3.87c-0.84,-0.02 -2.41,0 -3.19,-0.11 -6.64,-0.92 -0.06,-0.71 -5.75,-1.92 -1.33,-0.29 -2.73,-0.29 -4.1,-0.29 -2.19,-0.02 -5.61,0.32 -7.68,0.01 -7.67,-1.09 0.45,-0.58 -5.75,-1.92 -4.19,-0.9 -10.71,0.47 -14.9,-0.43 -6.21,-1.33 1.91,-0.8 -5.74,-1.92 -1.76,-0.26 -5.67,-0.07 -7.61,-0.06 -21.02,0.2 -14,-2.31 -28.47,-2.19 -15.02,0.13 -33.74,2.22 -47.57,-1.73 -5.21,-1.47 -14.46,-1.41 -19.58,0.31 -0.14,0.06 -1.4,0.63 -1.53,0.67 -2.29,0.79 -0.33,0.53 -3.57,0.8 -14.32,1.26 -41.26,-1.8 -53.67,0.02 -8.68,1.27 0.6,2.32 -20.86,2.13 -11.45,-0.11 -8.35,0.9 -13.36,1.98 -3.51,0.77 -10.21,-0.03 -14.1,0.14 -1.17,0.06 -1.83,0.06 -2.98,0.3 -4.49,0.97 -4.46,2.09 -10.01,2.05 -2.24,-0.03 -5.65,-0.29 -7.77,-0.11 -1.78,0.15 -1.23,0.06 -2.79,0.49l-3.11 1.28c-5.39,1.53 -11.32,0.1 -16.73,1.89 -3.87,1.27 -8.91,0.78 -13.14,2.19 -3.41,1.14 -10.54,0.43 -13.81,1.52l-10.13 1.92c-2.92,0.78 -0.83,1.32 -5.96,1.71 -2.97,0.23 -4.2,-0.36 -7.22,0.46 -0.27,0.08 -0.52,0.21 -0.8,0.31l-83.7 19.23c-0.32,0.08 -0.6,0.14 -0.89,0.22 -0.29,0.07 -0.57,0.18 -0.84,0.27l-3.21 1.17c-1.26,0.41 -2.45,0.8 -3.29,1.08l-1.6 0.59c-0.29,0.1 -0.55,0.19 -0.84,0.26l-104.26 35.95c-0.23,0.11 -0.49,0.28 -0.72,0.38l-35.03 15.33c-0.32,0.15 -1.22,0.54 -1.55,0.66l-70.07 35.08c-0.82,0.41 -2.08,1.04 -2.92,1.46l-32.08 19.4c-0.23,0.12 -0.52,0.24 -0.75,0.34l-12.2 7.51c-1.24,0.92 -1.78,1.45 -2.49,1.89l-83.92 61.75c-1.26,0.74 -0.73,0.26 -2.16,1.14 -4.12,2.58 -6.12,6.83 -10.28,9.44l-2.87 1.52c-3.51,2.21 -6.7,6.25 -9.53,9.09 -13.78,13.82 -9.48,8.21 -16.45,14.21 -8.24,7.08 -15.35,15.43 -22.97,23.03l-21.88 24.13c-4.39,4.27 -9.8,8.35 -12.8,13.48l-5.3 6.75c-2.92,2.87 -5.79,5.07 -7.85,8.59 -0.12,0.21 -0.26,0.51 -0.37,0.74l-7.11 8.2c-2.38,3.07 1.31,-2.18 -0.89,1.31l-27.58 35.95c-1.27,1.59 -0.32,0.35 -1.29,1.99 -0.14,0.22 -0.26,0.51 -0.37,0.73l-19.71 29.59c-0.95,1.27 -0.71,0.81 -1.4,1.87l-17.56 28.44c-0.4,0.85 -0.99,2.06 -1.52,2.87l-14.21 24.13c-0.44,0.9 -0.77,1.56 -1.1,2.19l-5.1 10.23c-0.41,0.83 -1.04,2.09 -1.47,2.91l-3.6 7.35c-0.95,1.72 -0.66,1.2 -1.73,2.64 -5.26,7 -7.21,15.15 -11.1,22.86 -0.22,0.48 -0.49,0.99 -0.72,1.48l-26.45 61.16c-0.09,0.28 -0.2,0.56 -0.29,0.81 -0.09,0.28 -0.2,0.56 -0.29,0.82 -0.09,0.26 -0.21,0.54 -0.31,0.81l-0.53 1.63c-0.1,0.28 -0.17,0.57 -0.26,0.84l-12.63 35.57c-0.1,0.28 -0.19,0.56 -0.26,0.83 -0.47,1.42 -0.69,2.23 -1.07,3.34l-0.87 2.41c-0.4,1.24 -0.61,2.09 -1.03,3.35l-6.55 21.92c-0.07,0.29 -0.18,0.55 -0.27,0.83 -0.08,0.27 -0.21,0.54 -0.29,0.81l-4.1 14.54c-0.11,0.34 -0.48,1.24 -0.6,1.59l-7.1 25.75c-0.3,1.31 -0.19,1.71 -0.43,2.87l-5.67 23.89c-1.95,6.38 -1.84,14.39 -3.72,20.38l-3.73 19.28c-0.72,5.08 -1.92,4.38 -2.07,9.97 -0.2,6.98 -2.02,6.41 -2.2,13.14 -0.2,6.91 -2.23,6.36 -2.26,13.07 -0.06,12.71 -0.84,8.24 -1.89,13.45l-0.99 9.95c-2.13,6.46 -0.16,15.06 -1.89,21.11l-0.96 2.31c-1.65,4.86 -0.09,10.59 -0.83,15.62 -1.26,8.72 -2.31,-0.5 -2.12,20.87 0.09,11.46 -0.92,8.34 -1.99,13.35 -2.51,11.66 2.08,29.53 -0.44,41.19 -1.1,5.15 -0.21,0.2 -1.2,3.18 -2.36,7.02 -0.72,62.26 -0.76,75.9l0.21 10.74c1.11,5.15 0.21,0.2 1.21,3.17 4.34,12.86 -1.95,31.4 0.98,45.02 1.33,6.19 0.81,-1.91 1.92,5.75 0.27,1.82 0.06,5.57 0.06,7.6z"/>
   <path class="fil1" d="M7696.95 4678.36c-1.49,0 -2.73,-0.1 -4.18,0.2 -4.93,0.99 -12.83,5.82 -17.75,8.53 -1.73,0.96 -1.21,0.66 -2.65,1.73 -1.08,0.82 -1.94,1.6 -2.45,1.92l-5.85 2.91c-1.74,0.95 -1.22,0.68 -2.66,1.74l-17.56 13.09c-4.4,3.42 -8.25,9.74 -13.35,12.94 -2.71,1.67 -5.46,2.96 -7.27,5.88l-16.46 19.7c-0.12,0.2 -0.26,0.49 -0.38,0.7l-12.38 16.09c-0.13,0.21 -0.26,0.51 -0.39,0.72l-10.07 15.11c-5.33,7.26 -10.32,16.98 -14.37,25.07l-1.46 2.91c-0.68,1.36 -0.22,0.41 -0.74,1.47 -0.15,0.3 -0.57,1.15 -0.72,1.46l-2.92 5.85c-0.11,0.21 -0.26,0.49 -0.36,0.72 -0.12,0.23 -0.26,0.51 -0.37,0.74l-1.49 2.89c-0.1,0.21 -0.27,0.48 -0.37,0.7l-5.44 13.19c-0.11,0.21 -0.26,0.49 -0.37,0.72l-2.76 7.08c-0.1,0.29 -0.17,0.59 -0.26,0.86 -0.09,0.26 -0.19,0.56 -0.29,0.81l-5.29 13.33c-0.41,1.26 -0.63,2.1 -1.03,3.34l-0.87 2.42c-0.09,0.27 -0.22,0.54 -0.29,0.81l-5.42 16.49c-0.09,0.27 -0.2,0.55 -0.29,0.81l-1.94 5.75c-0.09,0.26 -0.2,0.54 -0.29,0.79l-9.65 37.46c-0.66,2.54 -0.27,2.52 -0.52,4.95 -0.48,4.73 -1,2.28 -1.92,6.84l-1.65 11.49c-1.15,3.51 -0.32,7.95 -1.53,11.62l-2.85 19.05c-0.79,2.29 -0.53,0.33 -0.82,3.57 -0.46,5.39 0.97,12.03 -0.17,17.34 -0.97,4.47 -1.6,2 -2.02,6.75 -0.69,7.93 -0.86,75.52 1.14,81.09l1.16 5.41c0.2,4.62 -0.16,13.17 1.02,16.5 1.14,3.21 0.51,12 1.15,16.38 1.16,8.01 0.99,-1.38 2.06,6.7 0.42,3.12 -0.34,4.99 0.54,8.22l7.5 35.21c0.09,0.28 0.2,0.54 0.29,0.83 2.34,8.69 3.63,17.76 6.54,26.3l2.23 6.56c0.09,0.28 0.18,0.56 0.26,0.83 0.09,0.28 0.16,0.57 0.26,0.85l1.09 3.28c0.09,0.28 0.21,0.54 0.3,0.82l1.32 4.15c0.08,0.27 0.2,0.54 0.29,0.81l11.93 32.97c0.15,0.31 0.6,1.14 0.75,1.43l13.15 28.47c0.13,0.23 0.26,0.5 0.36,0.74l3.16 5.59c4.03,5.36 5.8,11.14 9.76,16.54l1.69 2.68c0.12,0.2 0.28,0.5 0.39,0.71l1.3 1.97c3.21,4.36 5.15,9.42 8.73,13.18l7.87 11.85c2.26,3.57 -1.58,-1.86 0.89,1.31l7.88 9.64c4.04,6.44 14.82,15.25 20.04,20.48 4.25,4.23 8.32,9.73 13.52,12.77l7.38 5.76c0.2,0.14 0.48,0.29 0.68,0.42l6.88 5.16c0.25,0.22 0.95,0.8 1.2,0.99 0.2,0.13 0.48,0.3 0.68,0.41 0.21,0.14 0.49,0.28 0.7,0.39l2.14 1.17c0.2,0.12 0.46,0.3 0.66,0.43l5.19 3.55c0.23,0.12 0.52,0.25 0.75,0.34l4.41 2.18c0.23,0.11 0.49,0.25 0.72,0.36l1.48 0.74c0,0 1.44,0.72 1.45,0.72l1.46 0.73c0.23,0.11 0.51,0.26 0.74,0.36l2.19 1.09c0.23,0.12 0.51,0.26 0.74,0.37l4.38 2.2c0.23,0.1 0.49,0.24 0.72,0.35l9.53 4.72c0.26,0.1 0.55,0.2 0.81,0.29l17 4.9c3.34,0.89 2.08,-0.96 3.33,2.15 3.39,1.37 2.03,2.55 3.32,6.56l0.55 1.61c0.09,0.29 0.18,0.57 0.26,0.85l19.56 49.44c0.43,0.89 0.87,1.64 1.14,2.16 0.11,0.23 0.26,0.51 0.35,0.72l0.74 1.46c0.45,0.91 0.75,1.52 1.09,2.2 0.13,0.22 0.26,0.5 0.37,0.73 0.11,0.23 0.26,0.5 0.36,0.72l13.14 28.49c0.3,0.62 0.67,1.35 1.09,2.2 0.11,0.23 0.26,0.5 0.36,0.72l7.31 16.81c0.1,0.22 0.26,0.5 0.35,0.73l20.81 39.43c0.11,0.23 0.24,0.51 0.36,0.74 0.1,0.24 0.24,0.52 0.34,0.75l5.89 9.43c0.16,0.31 0.57,1.17 0.73,1.48l36.26 60.12c1.12,1.51 0.41,0.38 1.35,1.93l30.62 46.06c0.12,0.2 0.26,0.5 0.37,0.71l0.78 1.43c0.12,0.19 0.29,0.47 0.42,0.67l4.62 5.23c0.92,1.45 0.39,0.88 1.14,2.16 0.99,1.68 0,0.39 1.28,2l27.19 35.24c0.97,1.66 0.02,0.4 1.28,2.01l7.48 8.95c2.23,3.84 5.87,5.83 8.01,9.51l12.75 14.61c0.14,0.21 0.28,0.51 0.39,0.72l1.14 2.15c2.85,4.55 8.19,8.27 11.86,12.21l1.94 2.46c0.13,0.2 0.27,0.49 0.38,0.71 0.12,0.21 0.26,0.51 0.37,0.72 0.13,0.21 0.26,0.51 0.37,0.72 0.13,0.21 0.26,0.49 0.39,0.71l22.23 22.67c0.36,0.34 0.92,0.85 1.68,1.6l33.34 35.66c0.32,0.28 1.32,1.04 1.89,1.4 10.66,6.7 18.7,17.15 27.67,26 3.83,3.76 6.35,3.84 16.46,14.21 4.13,4.23 7.32,5.03 15.85,13.72l3.54 3.03c1.63,1.03 1.21,0.49 2.87,1.53 3.5,2.2 5.38,5.63 8.79,7.62 1.26,0.74 0.74,0.25 2.16,1.14 3.5,2.19 5.38,5.62 8.79,7.62l16.6 13c0.58,0.55 1.44,1.32 1.73,1.53l18.91 13.97c0.21,0.12 0.5,0.26 0.72,0.37 0.21,0.12 0.5,0.26 0.7,0.37 0.22,0.12 0.5,0.27 0.71,0.4 0.2,0.12 0.46,0.31 0.66,0.43l13.26 9.74c0.21,0.13 0.51,0.26 0.71,0.37l1.36 0.85c0.05,0.03 1.25,1.03 1.83,1.46 0.18,0.13 0.43,0.34 0.62,0.46 0.19,0.14 0.46,0.32 0.66,0.43l77.57 49.49c1.53,1.14 0.37,0.4 1.95,1.34 0.15,0.09 2.12,1.06 2.2,1.09 0.22,0.12 0.5,0.24 0.75,0.34 0.23,0.12 0.51,0.24 0.75,0.34l48.16 26.32c0.63,0.3 1.36,0.66 2.2,1.09 0.23,0.11 0.51,0.26 0.74,0.36 2.02,1.01 -0.57,-0.29 1.45,0.73 0.63,0.31 1.36,0.66 2.2,1.1 0.23,0.1 0.51,0.26 0.74,0.35l10.21 5.12c0.23,0.11 0.51,0.26 0.74,0.35l12.43 6.21c0.21,0.11 0.49,0.26 0.72,0.36 0.86,0.42 1.58,0.78 2.19,1.09l4.38 2.2c0.23,0.12 0.51,0.25 0.74,0.35l35.06 15.32c0.25,0.11 0.52,0.24 0.75,0.34 0.25,0.11 0.51,0.26 0.74,0.36 0.93,0.44 1.6,0.84 2.16,1.13l4.32 2.23c2.01,0.92 -0.03,0.14 2.36,0.94 1.26,0.43 1.42,0.36 2.58,0.72l7.51 3.43c0.23,0.12 0.51,0.27 0.72,0.37l2.92 1.47c0.25,0.11 0.53,0.21 0.79,0.32l1.64 0.54c1,0.32 1.48,0.38 2.54,0.73 0.27,0.1 0.55,0.2 0.81,0.29l7.39 2.46c0.25,0.11 0.53,0.25 0.75,0.36l30.16 11.46c1.02,0.33 1.49,0.42 2.52,0.77l83.25 26.29c18.2,4.9 36.93,8.55 54.94,14.05l42.28 8.1c2.31,0.74 -1.26,0.94 5.15,1.43 8.36,0.63 6.99,1.43 12.12,2.12l9.8 1.17c0.24,0.09 0.49,0.24 0.75,0.32 0.28,0.09 0.53,0.23 0.8,0.31 4.83,1.35 9.66,0.26 14.54,1.89 8.22,2.75 12.33,-2.61 14.58,2.95l15.33 0 6.65 7.58c0.2,0.13 0.48,0.3 0.68,0.41l10.26 8.36c0.2,0.14 0.46,0.32 0.66,0.43 0.21,0.14 0.49,0.29 0.71,0.4l14.59 7.31c0.23,0.11 0.5,0.26 0.73,0.36l4.9 1.68c0.27,0.09 0.55,0.18 0.83,0.26l3.22 1.15c0.28,0.09 0.56,0.18 0.83,0.27 12.28,4.07 22,2.72 37.08,2.52 5.95,-0.07 6.2,-1.01 11.44,-2.79l22.1 -9.68c0.23,-0.11 0.51,-0.23 0.73,-0.34l7.35 -5.79c0.2,-0.14 0.48,-0.31 0.68,-0.42l14.96 -14.61c3.73,-6.22 8.27,-11.48 11.34,-18.24l8.05 -43.57c-0.13,-3.28 -4.01,-19.88 -6.25,-24.42l-10.33 -20.34 -8.14 -8.28c-3.29,-3.29 -5.5,-5.44 -8.74,-8.76l-9.92 -7.62c-1.42,-1.06 -0.93,-0.8 -2.64,-1.74l-21.35 -8.2c-11.51,-3.02 -26.51,-5.18 -38.65,-1.31l-5.47 1.08c-0.3,0.07 -0.58,0.13 -0.89,0.23l-13.98 4.62c-6.56,2.41 -11.61,7.22 -17.53,10.97 -3.61,2.29 1.91,-1.6 -1.3,0.89 -3.37,2.62 -8.85,7.2 -10.4,11.49l-8.76 0c-1.16,-2.84 0.07,-1.58 -3.27,-2.21 -1.16,-0.23 -5.18,0.11 -6.66,0.08 -9.46,-0.25 -1.22,-1.88 -10.87,-2.26 -5.17,-0.22 -6.44,-1.49 -11.05,-2.11l-61.58 -11.81c-5.4,-1.65 -7.62,-2.91 -13.96,-3.55l-6.59 -1.08c-0.28,-0.09 -0.54,-0.23 -0.8,-0.32l-29.78 -8.54c-0.26,-0.09 -0.52,-0.23 -0.8,-0.3 -0.29,-0.1 -0.55,-0.19 -0.84,-0.26 -1.69,-0.45 -1.28,-0.23 -2.79,-0.51l-15.89 -4.9c-0.26,-0.1 -0.54,-0.22 -0.8,-0.31l-48.41 -16.22c-0.26,-0.09 -0.56,-0.17 -0.85,-0.26 -1,-0.33 -1.47,-0.39 -2.53,-0.75l-24.29 -9.67c-0.26,-0.1 -0.54,-0.19 -0.82,-0.29l-5.8 -1.86c-0.26,-0.09 -0.54,-0.19 -0.82,-0.29l-12.21 -5.31c-0.23,-0.11 -0.49,-0.26 -0.72,-0.36l-15.38 -6.54c-0.23,-0.11 -0.51,-0.26 -0.74,-0.35l-1.44 -0.76c-0.2,-0.09 -2.13,-1.09 -2.16,-1.1l-43.86 -19.69c-0.23,-0.1 -0.5,-0.24 -0.73,-0.35l-5.12 -2.55c-0.23,-0.13 -0.51,-0.26 -0.72,-0.37l-5.87 -2.9c-0.21,-0.12 -0.48,-0.28 -0.67,-0.41l-11.73 -6.9c-0.22,-0.11 -0.5,-0.26 -0.73,-0.36l-2.91 -1.47c-0.23,-0.11 -0.51,-0.24 -0.74,-0.36 -0.22,-0.1 -0.5,-0.26 -0.73,-0.35l-46.02 -26.27c-6.1,-2.96 -10.65,-7.69 -16.77,-10.61l-44.36 -29.03c-1.66,-1.34 -0.89,-0.89 -1.65,-1.64l-3.65 -2.9c-1.23,-0.75 -0.76,-0.29 -2.14,-1.17l-13.2 -9.79c-6.68,-3.93 -12.29,-9.98 -18.97,-13.89l-14.66 -11.63c-0.09,-0.09 -1.22,-1.29 -1.6,-1.69l-21.69 -17.73c-4.73,-2.97 -7.27,-8.04 -11.8,-11.19 -0.2,-0.13 -0.48,-0.3 -0.67,-0.41l-3.54 -1.95c-6.35,-4.41 -14.96,-14.68 -20.87,-20.74l-6.93 -5.14c-0.2,-0.12 -0.48,-0.29 -0.67,-0.41 -0.28,-0.2 -1.2,-0.97 -1.77,-1.52l-6.53 -6.62c-5.46,-5.46 -20.39,-18.36 -24.28,-25.01 -0.73,-1.26 -0.24,-0.74 -1.12,-2.17l-4.16 -4.59c-0.95,-0.94 -1.07,-1.06 -1.65,-1.63l-14.8 -14.8c-0.52,-0.51 -1.63,-1.56 -1.67,-1.59 -0.83,-0.86 -0.32,-0.06 -1.6,-1.69 -1.24,-1.61 -0.3,-0.35 -1.27,-2.02l-4.17 -5.68c-0.77,-0.77 -1.32,-1.28 -1.68,-1.62l-4.93 -4.92c-4.53,-4.41 -7.27,-9.48 -12.08,-14.21l-24.04 -30.71c-1.34,-1.41 -2.06,-1.87 -3.08,-3.48l-35.44 -48.9c-0.14,-0.21 -0.26,-0.5 -0.39,-0.72l-1.21 -2.07c-0.03,-0.05 -1.03,-1.25 -1.46,-1.83l-7.77 -11.94c-0.45,-0.6 -1.43,-1.74 -1.48,-1.8l-34.07 -56.85c-0.12,-0.22 -0.26,-0.5 -0.36,-0.72l-4.36 -8.79c-0.12,-0.21 -0.29,-0.48 -0.42,-0.67l-23.71 -45.31c-0.1,-0.23 -0.24,-0.5 -0.35,-0.72l-23.02 -50.37c-0.09,-0.18 -1.1,-2.13 -1.12,-2.18l-4.71 -11.7c-0.11,-0.25 -0.23,-0.53 -0.32,-0.79l-11.47 -30.16c-0.37,-1.17 -0.32,-1.33 -0.73,-2.55l-4.72 -11.73c-0.09,-0.26 -0.2,-0.54 -0.29,-0.8l-8.19 -24.68c-0.09,-0.26 -0.2,-0.54 -0.29,-0.81l-8.79 -28.44c-0.09,-0.26 -0.21,-0.53 -0.3,-0.8l-1.57 -7.2c-0.07,-0.29 -0.18,-0.56 -0.26,-0.85l-4.14 -14.47c-0.08,-0.29 -0.2,-0.54 -0.28,-0.83l-10.92 -46.03c-0.09,-0.26 -0.24,-0.51 -0.32,-0.78l-2.55 -9.5c-1.02,-3.35 -0.43,-2.23 -0.8,-5.78 -0.63,-6.05 -0.67,-2.92 -1.38,-5.19 -1.98,-6.27 -2.19,-17.9 -3.72,-22.57 -0.78,-2.35 -0.95,1.34 -1.43,-5.15l-2.18 -16.44c-0.38,-9.6 -1.98,-1.41 -2.26,-10.87l-1.67 -11.47c-1.11,-3.93 -0.22,-8.6 -0.37,-12.76 -0.39,-9.47 -1.96,-1.33 -2.36,-10.79 -0.18,-4.5 0.6,-11.97 -0.67,-15.75 -0.09,-0.26 -0.25,-0.51 -0.33,-0.77 -2.59,-7.25 -0.21,-17.99 -2.53,-24.86 -4.1,-12.15 2.68,-38.56 -1.52,-51.04 -2.04,-6.06 -1.43,-10.66 -1.43,-18.28 0,-7.82 -1.55,-18.72 0.75,-25.52 1.02,-3.03 0.46,2.14 1.38,-4.12 2.3,-15.64 -3.44,-35.41 1.49,-49.99 0.09,-0.26 0.23,-0.53 0.31,-0.8 1.66,-5.87 0.12,-13.31 0.37,-19.34 0.4,-9.45 1.95,-1.34 2.35,-10.79 0.17,-3.8 -0.55,-9.62 -0.03,-13.17 0.87,-5.93 2.18,-3.72 2.21,-9.85l1.37 -11.78c1.55,-4.62 0.04,-7.7 0.97,-12.17 1.35,-6.43 0.4,1.62 1.75,-4.81 0.43,-2.09 0.17,-4.27 0.18,-6.39 0.02,-3.51 -0.12,-2.98 0.8,-5.78l5.55 -27.3c0.46,-2.26 0.08,-3.78 0.52,-6.05l5.2 -24.38c0.09,-0.26 0.24,-0.51 0.32,-0.79l7.08 -30.17c0.3,-1.31 0.2,-1.68 0.41,-2.86l6.95 -25.9c0.08,-0.29 0.18,-0.57 0.26,-0.85 0.11,-0.34 0.49,-1.26 0.6,-1.59 0.18,-0.54 0.51,-1.49 0.84,-2.46l3.54 -12.87c0.09,-0.28 0.21,-0.54 0.3,-0.8l4.4 -13.13c0.34,-1.03 0.43,-1.5 0.76,-2.52l31.2 -84.91c0.13,-0.31 0.53,-1.2 0.66,-1.54l16.45 -37.21c0.12,-0.23 0.26,-0.49 0.37,-0.72l3.17 -6.7c0.41,-1.26 0.34,-1.43 0.7,-2.58l7.81 -16.29c1.27,-2.53 -1.05,2.11 0.74,-1.46l2.55 -5.11c0.12,-0.23 0.25,-0.51 0.37,-0.72l22.14 -40.29c0.14,-0.18 0.32,-0.45 0.45,-0.64 0.13,-0.2 0.3,-0.48 0.41,-0.68l0.75 -1.44c0.13,-0.23 0.25,-0.53 0.36,-0.75l3.57 -7.37c0.12,-0.21 0.27,-0.49 0.38,-0.7l9.85 -15.35c0.78,-1.22 0.4,-0.62 1.17,-2.12l18.82 -30.47c0.19,-0.27 0.79,-0.95 0.98,-1.2l0.91 -1.29c0.13,-0.2 0.29,-0.49 0.4,-0.69l20.11 -29.18c0.12,-0.21 0.26,-0.51 0.37,-0.7 0.13,-0.22 0.28,-0.5 0.41,-0.71 0.12,-0.2 0.3,-0.46 0.43,-0.66l10.09 -14c0.12,-0.2 0.26,-0.49 0.39,-0.7l13.14 -17.53c0.34,-0.56 1.14,-1.6 1.39,-1.89l24.89 -30.97c2.97,-4.75 8.04,-7.27 11.19,-11.8l1.95 -3.54c4.51,-7.19 12.79,-11.55 17.14,-19.01l11.13 -11.86c8.41,-8.4 51.2,-52.99 57.16,-56.74l7.45 -5.69c4.1,-4.19 7.88,-9.26 12.97,-12.22 0.21,-0.13 0.51,-0.26 0.72,-0.38 0.23,-0.12 0.51,-0.24 0.74,-0.37 3.44,-2.01 6.31,-5.53 9.11,-8.4l9.37 -7.05c0.11,-0.11 1.49,-1.55 1.62,-1.68 0.46,-0.48 0.81,-0.83 1.61,-1.66l21.87 -17.56c0.56,-0.54 1.5,-1.34 1.76,-1.52 0.2,-0.14 0.48,-0.3 0.68,-0.42l28.43 -20.86c0.19,-0.12 0.47,-0.28 0.69,-0.4l27.78 -19.31c0.21,-0.13 0.49,-0.28 0.69,-0.41 0.2,-0.12 0.46,-0.3 0.66,-0.43l5.91 -3.95c0.2,-0.12 0.47,-0.3 0.66,-0.43 0.08,-0.04 1.23,-1.01 1.83,-1.46l23.48 -14.84c1.38,-1.04 0.75,-0.7 1.86,-1.42l29.93 -17.18c0.23,-0.11 0.51,-0.25 0.74,-0.34l21.89 -12.08c0.21,-0.12 0.49,-0.26 0.72,-0.37l21.91 -12.05c0.86,-0.41 1.58,-0.78 2.2,-1.09l27.77 -12.75c0.23,-0.12 0.49,-0.28 0.72,-0.37l1.46 -0.74c0.23,-0.12 0.49,-0.26 0.72,-0.37l25.58 -11.66c0.22,-0.12 0.5,-0.27 0.73,-0.37l22.64 -9.13c0.24,-0.1 0.52,-0.24 0.75,-0.34l10.2 -4.04c0.25,-0.1 0.53,-0.24 0.76,-0.34l35.09 -13.11c0.26,-0.09 0.54,-0.19 0.81,-0.28l15.66 -5.15c0.27,-0.09 0.55,-0.18 0.83,-0.28l26.27 -8.77c0.26,-0.09 0.52,-0.21 0.8,-0.3l85.05 -21.19c2.52,-0.36 1.6,-0.33 2.65,-0.65 0.26,-0.09 0.5,-0.24 0.78,-0.32 0.26,-0.09 0.51,-0.24 0.78,-0.32 0.28,-0.09 0.54,-0.19 0.81,-0.29l6.35 -1.32c5.42,-1.7 9.85,-1.24 14.72,-2.81 3.36,-1.07 2.18,-0.43 5.76,-0.81 6.12,-0.63 2.86,-0.63 5.18,-1.4 2.79,-0.92 2.26,-0.78 5.77,-0.79l17.3 -2.42c6.47,-1.29 -1.55,-0.34 4.86,-1.7 3.74,-0.8 8.99,0.35 12.71,-0.44 3.44,-0.73 5.81,-2.07 11.17,-1.96 2.04,0.03 4.37,0.2 6.35,-0.23 6.39,-1.37 -1.57,-0.37 4.81,-1.75 5.24,-1.13 12.63,0.84 17.94,-0.68 0.28,-0.08 0.54,-0.21 0.8,-0.3 7.55,-2.56 19.37,0.21 27.06,-2.52l1.54 -0.65c6.67,-1.89 31.33,-0.52 39,-0.43 1.65,0.01 5.02,0.14 6.5,-0.08l4.9 -1.67c5.84,-1.67 37.46,-1.05 41.48,0.3 11.25,3.8 35.56,0.83 47.94,1.35 7.91,0.34 0.36,2.28 24.08,2.21 9.89,-0.01 1.27,1.89 23.03,2.18 3.41,0.05 3.04,-0.06 5.73,0.84 8.97,3.03 11.54,0.19 17.53,2.2 2.31,0.78 -1.29,0.95 5.1,1.47 4.05,0.34 8.8,-0.48 12.43,0.72 5.7,1.92 6.62,0.68 11.47,1.67 4.97,1 2.09,1.27 11.18,1.96 7.26,0.54 4.07,1.66 9.86,2.2l26.58 5.17c0.28,0.08 0.52,0.23 0.78,0.32l21.96 4.34c0.26,0.09 0.51,0.24 0.78,0.32l63.3 16.65c0.27,0.09 0.55,0.2 0.81,0.29 1.26,0.43 0.34,0.15 1.6,0.59 1.25,0.43 3.74,1.23 4.94,1.63l24.35 7.4c0.27,0.1 0.55,0.19 0.83,0.28l11.5 3.82c0.28,0.1 0.56,0.2 0.83,0.29 1.06,0.34 1.54,0.42 2.54,0.74l1.64 0.54c0.26,0.11 0.54,0.23 0.79,0.32l30.03 11.59c0.28,0.09 0.57,0.17 0.85,0.24l15.12 5.7c0.24,0.09 0.51,0.25 0.75,0.34l10.95 4.37c0.32,0.15 1.16,0.6 1.46,0.75l49.61 22.66c4.07,2.04 -2.59,-1.29 1.48,0.74l2.9 1.45c4.07,2.05 -2.59,-1.29 1.48,0.74l2.9 1.46c4.07,2.04 -2.59,-1.29 1.48,0.74l2.9 1.45c4.07,2.05 -2.59,-1.29 1.48,0.74l35.75 19.02c0.23,0.11 0.51,0.25 0.74,0.34l31.43 17.86c0.32,0.15 1.2,0.55 1.49,0.7l16.09 10.21c0.19,0.13 0.47,0.28 0.69,0.4l1.42 0.78c0.2,0.12 0.48,0.27 0.69,0.4 0.2,0.12 0.47,0.31 0.67,0.43l22.74 14.49c0.19,0.12 0.47,0.28 0.69,0.4l17.77 12.89c1.58,1.26 0.36,0.31 2,1.28l13.34 9.68c1.58,1.26 0.35,0.3 2,1.27 1.22,0.74 0.75,0.29 2.13,1.17 6.78,4.32 11.66,9.68 16.85,12.72l7.31 5.83c4.92,2.89 8.21,6.82 13.11,9.9 3.92,2.46 5.66,5.43 10.96,8.76l12.44 10.56c4.9,2.87 8.76,8.39 12.92,12.28l27.39 25.18c3.44,3.48 7.62,5.28 10.99,8.71l22.46 22.46c0.58,0.59 0.69,0.72 1.63,1.65 4.89,4.77 6.24,8.43 13.7,15.87 6.58,6.59 13.4,12.26 18.29,20.06 0.86,1.38 1.84,2.37 3.03,3.52 8.55,8.44 9.15,11.48 15.36,17.5 3.44,3.32 5.27,7.58 8.73,10.99l28.68 35.93c0.76,1.28 0.23,0.71 1.14,2.17l5.43 6.6c0.14,0.21 0.26,0.51 0.39,0.72 0.12,0.22 0.25,0.51 0.37,0.72 0.12,0.2 0.27,0.48 0.4,0.7 0.12,0.19 0.3,0.46 0.43,0.66l34.31 50.02c0.14,0.18 0.34,0.43 0.46,0.62 0.14,0.19 0.32,0.46 0.43,0.66l1.6 2.81c0.57,0.88 2.28,2.89 2.82,3.73l9.49 16.81c1.15,2.13 0.52,1 1.26,2.04l12.29 20.57c0.12,0.23 0.25,0.51 0.35,0.74l0.71 1.47c0.15,0.31 0.57,1.18 0.72,1.49l14.64 26.98c0.12,0.21 0.26,0.49 0.37,0.72 0.37,0.78 0.83,1.66 1.08,2.21l50.43 111.67c0.09,0.26 0.21,0.54 0.32,0.78l1.87 3.6c0.11,0.24 0.26,0.51 0.34,0.75l4.7 13.92c0.11,0.23 0.27,0.49 0.37,0.72l3.11 7.85c0.09,0.28 0.19,0.56 0.29,0.83 0.09,0.26 0.19,0.54 0.28,0.8l11.22 35.89c0.09,0.26 0.22,0.54 0.31,0.8l1.92 5.74c0.4,1.17 0.84,2.7 1.33,4.15l0.91 2.38c0.52,1.74 0.23,0.57 0.63,2.66l9.65 37.44c0.1,0.34 0.47,1.26 0.6,1.6l4.7 18.3c0.63,2.31 0.4,3.23 1.03,5.53l2.43 11.81c1.47,4.8 3.21,8.45 3.61,13.9l4.38 28.48c0.57,7.46 2.01,4.43 2.19,10.96 0.2,6.51 1.65,3.47 2.23,10.92 0.51,6.62 -0.65,5.61 1.41,11.74 1.26,3.76 0.03,7.48 2.49,16.13 1.57,5.5 -0.3,12.96 1.55,18.17 2.5,6.99 -0.3,17.1 2.19,24.09 0.36,0.99 0.17,-0.93 0.89,2.4 2,9.25 -1.92,19.79 0.68,28.9l1.68 4.89c0.53,3.67 1,96.17 -0.17,101.6 -0.72,3.34 -0.52,1.4 -0.89,2.4l-1.17 5.41c-0.34,8.1 1.58,17.08 -0.14,25.06 -1.38,6.37 -0.37,-1.57 -1.75,4.81 -1.21,5.64 0.81,13.46 -0.43,19.28 -1.38,6.37 -0.37,-1.58 -1.75,4.81 -0.77,3.55 0.15,9.22 -0.19,12.97 -0.54,6.36 -0.69,2.79 -1.47,5.1 -1.2,3.58 -0.15,8.2 -0.97,12.16 -1.35,6.44 -0.4,-1.61 -1.75,4.82 -0.95,4.45 0.57,7.53 -0.97,12.16 -1.51,4.46 -0.8,5.12 -1.52,10.54 -0.42,3.27 -0.29,1.41 -0.68,2.6 -0.09,0.27 -0.26,0.51 -0.34,0.77 -1.34,3.81 -0.54,6.85 -1.32,10.72l-12.44 56.56c-2,7.77 0.44,3.69 -3.5,15.12l-11.51 43.25c-0.09,0.28 -0.2,0.56 -0.29,0.81 -0.34,1.04 -0.43,1.51 -0.77,2.52 -0.09,0.28 -0.18,0.56 -0.27,0.83l-2.21 6.56c-0.09,0.26 -0.22,0.54 -0.31,0.8l-2.12 8.83c-0.09,0.28 -0.21,0.54 -0.3,0.8l-16.22 46.22c-0.33,1.03 -0.43,1.5 -0.77,2.52 -0.09,0.27 -0.2,0.55 -0.29,0.81l-6.54 17.56c-0.09,0.26 -0.22,0.54 -0.32,0.79l-1.11 2.18c-0.11,0.22 -0.28,0.47 -0.39,0.7l-3.27 8.78c-0.9,2.89 -0.72,2.33 -0.72,5.85 4.86,0 10.05,-0.77 14.58,0.77 7.76,2.61 41.48,1.96 52.32,1.5 9.51,-0.4 1.55,-1.21 8.73,-2.21 5.08,-0.71 8.61,-0.12 12.75,-1.49l37.29 -8.73c1.16,-0.38 1.95,-0.57 3.36,-1.01l13.38 -5.24c0.25,-0.09 0.51,-0.25 0.75,-0.34l2.88 -1.49c3.23,-1.65 -1.78,0.9 1.46,-0.74l56.14 -34.78c4.89,-3.39 29.96,-28.84 33.32,-34.58 0.97,-1.68 0.02,-0.41 1.28,-2.03 1.66,-2.15 0.42,-0.56 2.15,-2.23l5.34 -6.7c0.99,-1.69 -0.01,-0.38 1.28,-2.01 2.12,-2.66 0.52,-0.43 2.19,-2.2l15.11 -22.12c0.8,-1.22 0.4,-0.65 1.17,-2.12 0.12,-0.23 0.24,-0.52 0.34,-0.75 0.12,-0.23 0.26,-0.51 0.35,-0.74 0.11,-0.23 0.25,-0.51 0.36,-0.74l3.26 -6.6c0.12,-0.21 0.28,-0.48 0.41,-0.69l6.16 -10.25c0.13,-0.23 0.26,-0.51 0.38,-0.74l1.81 -3.64c0.12,-0.23 0.26,-0.51 0.37,-0.74l5.84 -11.67c0.1,-0.23 0.26,-0.51 0.35,-0.74l2.23 -4.33c0.11,-0.23 0.26,-0.51 0.36,-0.74l4.38 -10.97c0.11,-0.23 0.24,-0.51 0.34,-0.73 0.11,-0.26 0.23,-0.54 0.32,-0.79l26.29 -87.62c1.24,-3.84 0.18,-6.99 1.23,-10.83 0.07,-0.27 0.21,-0.52 0.3,-0.8 1.48,-4.47 0.72,-8.7 2.2,-13.14 1.35,-4.11 1.06,-7.45 1.39,-11.75 0.71,-9.12 1.48,0.45 2.27,-8.68 0.53,-6.33 -0.35,-13.2 1.38,-18.33 0.89,-2.63 2.09,-68.53 0.54,-75.69 -1.2,-5.61 -0.95,0.87 -1.92,-5.75 -0.76,-5.14 0.43,-11.32 0,-16.41 -0.8,-9.05 -1.07,0.06 -2.2,-7.68 -0.4,-2.84 0.24,-6.93 0,-9.85 -0.77,-9.09 -1.09,0.1 -2.18,-7.68 -0.54,-3.84 0.45,-7.36 -0.83,-11.23l-20.33 -80.42c-0.09,-0.27 -0.21,-0.54 -0.28,-0.81l-5.17 -13.46c-0.09,-0.27 -0.18,-0.57 -0.27,-0.84 -0.09,-0.26 -0.2,-0.54 -0.29,-0.82l-5.99 -15.9c-0.09,-0.29 -0.17,-0.57 -0.26,-0.84l-0.6 -1.6c-0.09,-0.25 -0.24,-0.51 -0.34,-0.75l-3.69 -7.27c-0.11,-0.23 -0.26,-0.51 -0.35,-0.72l-1.46 -2.92c-0.12,-0.23 -0.26,-0.51 -0.37,-0.74 -0.11,-0.23 -0.26,-0.51 -0.36,-0.72l-0.74 -1.47c-0.1,-0.23 -0.25,-0.51 -0.35,-0.73 -0.97,-1.95 0,0 -0.74,-1.47l-1.09 -2.19c-0.11,-0.23 -0.26,-0.51 -0.36,-0.73l-0.73 -1.47c-0.11,-0.23 -0.26,-0.51 -0.36,-0.72l-1.83 -3.66c-0.1,-0.23 -0.26,-0.51 -0.35,-0.72l-6.92 -13.91c-3.48,-7.03 -11.64,-18.06 -15.69,-24.83l-21.92 -28.44c-0.74,-1.26 -0.26,-0.73 -1.14,-2.16 -3.95,-6.29 -14.72,-15.05 -20.03,-20.5l-5.49 -4.36c-5.46,-3.11 -7.83,-6.87 -11.67,-9.14l-1.39 -0.81c-0.27,-0.19 -0.96,-0.79 -1.2,-0.99l-12 -8.81c-0.29,-0.16 -1.16,-0.56 -1.47,-0.72l-21.91 -10.95c-0.32,-0.12 -1.26,-0.49 -1.58,-0.63 -3.27,-1.41 -5.1,-3.18 -6.57,-6.58l-17.79 -55.57c-0.1,-0.26 -0.22,-0.54 -0.31,-0.81l-11 -28.43c-0.09,-0.26 -0.2,-0.54 -0.29,-0.81 -0.09,-0.27 -0.15,-0.57 -0.24,-0.84 -0.6,-1.89 -0.28,-1.48 -0.99,-3.4l-1.81 -3.66c-0.12,-0.22 -0.28,-0.49 -0.37,-0.72l-5.35 -13.29c-0.66,-1.95 -0.52,-2.32 -1.23,-4.23 -0.12,-0.32 -0.52,-1.23 -0.66,-1.55l-1.87 -3.59c-0.11,-0.23 -0.26,-0.51 -0.36,-0.72l-6.57 -15.34c-0.12,-0.23 -0.28,-0.51 -0.37,-0.72 -0.11,-0.18 -1.11,-2.13 -1.13,-2.18l-15.33 -32.86c-0.92,-2 -0.14,0.03 -0.95,-2.34 -0.49,-1.5 -0.45,-1.92 -0.96,-3.42 -0.07,-0.28 -0.18,-0.56 -0.27,-0.81l-6.91 -13.91c-0.11,-0.23 -0.25,-0.51 -0.36,-0.74 -0.69,-1.38 0.18,0.34 -0.74,-1.46l-13.5 -24.83c-0.11,-0.22 -0.26,-0.5 -0.36,-0.73l-13.87 -25.55c-0.11,-0.23 -0.26,-0.51 -0.36,-0.74l-9.48 -16.81c-0.12,-0.21 -0.29,-0.47 -0.4,-0.69 -0.14,-0.2 -0.32,-0.44 -0.45,-0.64l-4.96 -8.18c-0.15,-0.3 -0.59,-1.17 -0.75,-1.44l-4.79 -7.27c0,-0.01 -0.68,-1.5 -0.7,-1.51l-39.38 -59.17c-0.13,-0.22 -0.29,-0.5 -0.4,-0.71 -0.12,-0.2 -0.26,-0.49 -0.37,-0.71l-6.21 -8.02c-0.17,-0.29 -0.58,-1.17 -0.75,-1.46l-0.81 -1.38c-0.97,-1.37 -1.69,-1.8 -2.66,-2.81l-2.73 -3.84c-0.14,-0.21 -0.28,-0.51 -0.39,-0.72l-0.84 -1.35c-0.02,-0.03 -1.89,-2.42 -1.92,-2.45l-26.09 -34.16c-2.39,-3.82 -5.79,-6.23 -8.76,-10.96l-10.19 -11.72c-1.52,-2.66 -0.04,-0.87 -2.16,-3.32 -5.54,-6.43 -5.95,-5.5 -9.56,-11.25l-3.03 -3.53c-0.76,-0.75 -1.32,-1.26 -1.67,-1.6 -3.32,-3.26 -6.53,-6.58 -9.88,-9.85 -1.35,-1.31 -1.06,-0.84 -2.21,-2.18 -4.17,-4.83 -2.52,-4.9 -6.53,-8.8l-93.44 -89.47c-0.22,-0.12 -0.5,-0.29 -0.68,-0.42 -0.27,-0.18 -0.97,-0.76 -1.23,-0.97l-5.43 -5.5c-0.22,-0.23 -0.85,-0.89 -1.07,-1.11 -0.03,-0.04 -1.6,-1.66 -1.62,-1.67 -0.03,-0.03 -2.4,-1.89 -2.44,-1.92l-6.92 -5.14c-0.48,-0.49 -0.83,-0.82 -1.63,-1.66 -0.43,-0.44 -2.01,-2.12 -2.15,-2.23l-15.54 -11.82c-0.22,-0.12 -0.51,-0.26 -0.73,-0.38l-9.51 -7.99c-2.73,-1.57 -0.78,0.06 -3.3,-2.18 -2.21,-1.94 0.06,-0.51 -2.75,-2.75l-1.99 -1.28c-0.22,-0.13 -0.51,-0.26 -0.73,-0.37l-8.76 -6.57c-0.22,-0.12 -0.5,-0.26 -0.73,-0.37l-13.49 -10.59c-2.45,-2.17 -0.69,-0.66 -3.3,-2.2l-7.31 -4.74c-0.22,-0.12 -0.5,-0.26 -0.71,-0.39l-8.02 -6.19c-0.22,-0.14 -0.5,-0.29 -0.71,-0.4l-3.76 -2.81c-0.22,-0.12 -0.5,-0.28 -0.7,-0.39l-2.77 -1.61c-0.07,-0.05 -2.39,-1.89 -2.45,-1.94l-6.57 -4.38c-0.2,-0.12 -0.47,-0.3 -0.66,-0.43l-3.47 -2.01c-0.08,-0.05 -1.23,-1.02 -1.83,-1.46 -0.19,-0.14 -0.43,-0.34 -0.62,-0.48 -0.2,-0.12 -0.46,-0.3 -0.66,-0.43l-10.03 -6.39c-0.19,-0.14 -0.43,-0.33 -0.62,-0.47l-7.57 -4.47c-1.52,-0.76 -0.94,-0.38 -2.14,-1.17l-3.73 -2.84c-0.21,-0.12 -0.49,-0.27 -0.69,-0.4l-20.44 -12.42c-0.22,-0.13 -0.5,-0.25 -0.75,-0.34l-2.87 -1.52c-0.32,-0.22 -2.82,-2.23 -3.06,-2.42l-24.7 -13.62c-0.23,-0.11 -0.51,-0.26 -0.74,-0.36l-32.13 -17.16c-2.3,-1.14 1.73,0.87 -1.47,-0.72l-2.91 -1.48c-2.3,-1.13 1.73,0.88 -1.47,-0.72l-7.3 -3.66c-2.3,-1.13 1.73,0.88 -1.47,-0.72l-58.43 -27.02c-0.29,-0.15 -1.14,-0.59 -1.44,-0.74l-4.43 -2.16c-0.25,-0.09 -0.53,-0.2 -0.81,-0.29l-43 -17.24c-1.78,-0.69 -2.26,-0.65 -4.18,-1.28l-7.4 -2.47c-0.25,-0.09 -0.53,-0.21 -0.79,-0.31l-17.52 -6.59c-0.24,-0.1 -0.52,-0.21 -0.78,-0.32l-14 -4.62c-0.27,-0.09 -0.55,-0.18 -0.82,-0.27 -0.02,0 -1.68,-0.5 -1.7,-0.5l-18.6 -5.48c-0.26,-0.09 -0.52,-0.22 -0.8,-0.31l-21.11 -6.27c-0.26,-0.09 -0.54,-0.21 -0.8,-0.3l-13.7 -3.83c-0.27,-0.07 -0.52,-0.21 -0.8,-0.3l-13.72 -3.81c-0.25,-0.09 -0.52,-0.23 -0.79,-0.31l-25.52 -6.24c-0.34,-0.1 -1.22,-0.52 -1.57,-0.63l-16.47 -3.25c-0.29,-0.07 -0.57,-0.14 -0.87,-0.22l-2.37 -0.92c-2.66,-0.84 -1.29,-0.64 -4.7,-0.78 -6.04,-0.24 -7.7,-1.34 -12.06,-2.18 -0.34,-0.06 -0.65,-0.06 -0.97,-0.12l-2.61 -0.68c-0.28,-0.09 -0.53,-0.23 -0.79,-0.32 -1.44,-0.47 1.74,-0.32 -3.38,-1 -1.73,-0.23 -3.68,0.06 -5.42,-0.07 -8.83,-0.66 0.2,-1.22 -8.79,-2.15 -1.64,-0.17 -2.3,0.06 -4.08,-0.31 -0.32,-0.06 -0.59,-0.15 -0.87,-0.23 -0.29,-0.07 -0.54,-0.19 -0.82,-0.29l-14.67 -2.85c-3.9,-1.31 -10.97,-0.57 -14.58,-1.86 -5.21,-1.84 -7.96,-0.29 -16.89,-2.83 -5.16,-1.47 -10.81,0.29 -15.97,-1.56 -1.02,-0.36 0.96,-0.15 -2.4,-0.87 -5,-1.07 -10.23,0.41 -15.12,-1.32 -5.42,-1.94 -16.63,-0.22 -22.94,-1.14 -6.05,-0.89 -0.77,-2.26 -17.58,-2.14l-139.1 -2.21c-4.45,0 -9.58,-0.73 -13.78,0.47l-3.96 1.51c-5.32,1.14 -14.92,-0.55 -20.54,0.28 -7.72,1.12 1.35,1.4 -7.67,2.18 -2.63,0.23 -7.1,-0.03 -9.91,-0.05 -11.59,-0.09 -11.68,2.23 -18.55,2.26 -4.01,0.02 -7.35,-0.29 -11.01,1.02l-1.57 0.65c-5.13,1.45 -10.88,-0.28 -15.96,1.54 -1.11,0.39 1.03,0.16 -2.41,0.89 -5.27,1.1 -7.87,-0.3 -13.69,1.65 -3.87,1.29 -4.86,0.57 -9.16,0.69l-47 8.87c-5.18,0.54 2.16,-0.62 -1.97,0.23l-63.79 15.05c-0.32,0.08 -0.63,0.08 -0.96,0.14l-18.72 5.39c-0.27,0.09 -0.54,0.22 -0.79,0.31 -0.29,0.07 -0.56,0.18 -0.85,0.26l-21.74 5.64c-0.27,0.09 -0.54,0.21 -0.81,0.3l-3.24 1.12c-0.28,0.1 -0.57,0.17 -0.85,0.26l-23.76 7.99c-1.03,0.35 -1.51,0.44 -2.52,0.77 -0.28,0.09 -0.56,0.18 -0.83,0.28 -0.28,0.09 -0.56,0.19 -0.81,0.29 0,0 -1.6,0.58 -1.6,0.58l-17.3 5.7c-0.28,0.09 -0.56,0.2 -0.82,0.29l-4.96 1.6c-0.28,0.09 -0.57,0.17 -0.84,0.26 -0.28,0.09 -0.56,0.2 -0.82,0.29l-9.26 3.89c-0.28,0.07 -0.56,0.16 -0.83,0.25 -0.28,0.1 -0.56,0.2 -0.82,0.29 -0.34,0.13 -1.27,0.47 -1.61,0.59l-53.24 21.25c-3.35,1.7 1.92,-0.97 -1.46,0.73 -0.88,0.45 -2.02,1 -2.9,1.46l-21.91 9.86c-0.23,0.12 -0.51,0.26 -0.74,0.37 -0.22,0.11 -0.5,0.25 -0.73,0.36 -0.23,0.11 -0.51,0.26 -0.72,0.35l-19.01 8.39c-0.23,0.11 -0.49,0.26 -0.72,0.37 -0.23,0.11 -0.51,0.26 -0.72,0.36l-49.66 25.92c-0.23,0.11 -0.51,0.25 -0.74,0.34 -0.24,0.12 -0.52,0.26 -0.75,0.36l-6.58 4.38c-1.21,0.8 -0.63,0.4 -2.11,1.17 -0.23,0.1 -0.53,0.24 -0.76,0.34 -0.23,0.12 -0.5,0.24 -0.73,0.35 -0.23,0.11 -0.51,0.25 -0.74,0.36l-5.9 2.87c-0.21,0.12 -0.49,0.26 -0.71,0.38l-28.42 17.58c-0.23,0.11 -0.51,0.23 -0.74,0.34l-46.04 29.53c-0.22,0.13 -0.51,0.26 -0.71,0.39 -0.21,0.12 -0.51,0.26 -0.72,0.39 -0.2,0.12 -0.48,0.27 -0.69,0.38 -1.1,0.71 -0.6,0.45 -1.89,1.41l-23.53 16.98c-0.26,0.25 -2.27,1.88 -2.41,1.97l-29.15 21.25c-1.24,0.8 -2.1,1.69 -2.95,2.52l-3.66 2.9c-1.24,0.74 -0.72,0.25 -2.15,1.14 -1.21,0.77 -2.15,1.62 -2.98,2.48l-8.64 6.7c-0.48,0.32 -1.86,1.6 -2.3,2.06l-8.64 6.7c-3.6,2.49 -6.62,6.96 -9.9,9.8 -0.26,0.21 -0.96,0.8 -1.21,0.97l-2.84 1.56c-4.95,2.88 -7.62,8.19 -12.51,11.59l-4.2 2.37c-0.27,0.18 -1.2,0.97 -1.77,1.5l-23.13 21.79c-0.22,0.12 -0.51,0.25 -0.71,0.38 -0.2,0.12 -0.48,0.29 -0.68,0.42l-6.66 6.48c-7.31,7.33 -35.88,34.05 -40.44,40.61l-22.03 23.96c-3.15,3.21 -4.98,7.29 -11.45,13.74 -6.38,6.34 -6.87,9.23 -11.49,13.7 -1.1,1.06 -1.45,1.36 -2.8,2.69l-4.16 5.68c-0.13,0.21 -0.26,0.51 -0.39,0.72 -0.12,0.2 -0.29,0.48 -0.42,0.68 -2.87,4.11 -7.51,7.28 -10.14,11.75l-7.38 10.16c-0.18,0.26 -0.76,0.96 -0.97,1.21 -0.97,1.11 -1.26,1.2 -2.79,2.67 -1.2,1.16 -1.85,1.73 -2.63,2.86l-15.09 21.06c-0.12,0.2 -0.29,0.48 -0.41,0.66l-6.62 8.73c-0.03,0.05 -1.04,1.23 -1.46,1.82l-11.85 16.62c-0.14,0.21 -0.29,0.49 -0.4,0.69l-14.33 21.83c-0.32,0.48 -2.09,2.71 -2.37,3.11l-28.26 45.12c-0.25,0.51 -0.44,0.97 -0.69,1.51 -0.15,0.3 -0.55,1.18 -0.72,1.47l-6.6 10.92c-0.13,0.23 -0.26,0.5 -0.37,0.73 -0.11,0.22 -0.26,0.5 -0.36,0.73l-22.29 40.15c-0.11,0.23 -0.25,0.51 -0.34,0.74 -0.13,0.23 -0.26,0.51 -0.36,0.73l-5.47 10.96c-0.12,0.23 -0.26,0.51 -0.36,0.73 -0.12,0.23 -0.26,0.51 -0.37,0.73l-13.64 27.98c-0.58,1.86 -0.31,1.51 -0.99,3.39 -0.12,0.32 -0.52,1.23 -0.66,1.53 -0.01,0.05 -1.01,1.99 -1.12,2.18l-1.83 3.63c-0.15,0.31 -0.58,1.15 -0.74,1.46 -0.12,0.23 -0.25,0.51 -0.35,0.74l-10.64 23.31c-0.91,2.01 -0.13,-0.03 -0.95,2.35l-9.23 22.52c-0.12,0.23 -0.29,0.48 -0.38,0.71l-2.28 6.48c-0.09,0.27 -0.2,0.55 -0.29,0.81 -0.11,0.26 -0.23,0.54 -0.32,0.79 -0.11,0.24 -0.24,0.52 -0.35,0.75 -0.11,0.23 -0.26,0.49 -0.38,0.72l-5.83 16.05c-0.11,0.25 -0.25,0.53 -0.36,0.76l-3.75 9.37c-0.09,0.27 -0.21,0.55 -0.3,0.81l-1.89 5.78c-0.88,2.52 0.29,-0.94 -0.59,1.6l-1.32 4.15c-0.09,0.26 -0.2,0.54 -0.29,0.81l-5.05 12.47c-0.09,0.27 -0.19,0.55 -0.26,0.84l-9.48 31.04c-0.09,0.27 -0.19,0.55 -0.28,0.83l-1.66 6z"/>
   <path class="fil1" d="M8577.56 5309.25c0.17,-7.34 11.78,-13.81 15.74,-20.41l7.57 -11.05c0.12,-0.2 0.28,-0.49 0.4,-0.69 0.12,-0.21 0.26,-0.51 0.39,-0.71l5.81 -9.52c0.15,-0.31 0.55,-1.19 0.72,-1.48l23.92 -65.89c1.15,-5.39 -0.47,-12.32 1.32,-17.32 2.4,-6.72 1.98,-24.52 -0.34,-31.42 -1.63,-4.89 -0.15,-14.06 -1.85,-18.96 -0.35,-1.03 -0.15,0.97 -0.84,-2.44l-3.51 -17.32c-0.07,-0.26 -0.21,-0.52 -0.3,-0.78l-1.35 -4.13c-0.09,-0.28 -0.2,-0.56 -0.29,-0.81 -0.09,-0.28 -0.2,-0.54 -0.29,-0.82l-10.22 -27.04c-0.1,-0.21 -0.26,-0.49 -0.37,-0.72l-14.21 -24.11c-0.14,-0.21 -0.27,-0.5 -0.39,-0.72l-7.75 -10.84c-0.79,-1.13 -1.43,-1.7 -2.63,-2.86 -5,-4.8 -5.64,-7.73 -14.83,-16.95 -4.1,-4.13 -9.26,-6.87 -13.14,-10.95l-24.45 -17.17c-0.89,-0.43 -1.57,-0.78 -2.2,-1.09l-8.76 -4.38c-0.23,-0.1 -0.51,-0.26 -0.73,-0.35l-9.49 -4.76c-0.22,-0.13 -0.49,-0.26 -0.72,-0.38l-1.44 -0.75c-0.23,-0.12 -0.49,-0.27 -0.72,-0.37l-1.54 -0.64c-0.25,-0.11 -0.55,-0.2 -0.81,-0.29l-17.31 -5.7c-0.28,-0.1 -0.54,-0.22 -0.8,-0.31l-8.79 -2.16c-0.71,-0.25 0.6,-0.23 -2.46,-0.83 -1.53,-0.31 -1.63,-0.14 -3.03,-0.26 -5.76,-0.52 -2.61,-1.63 -9.81,-2.23 -3.81,-0.32 -7.96,0.63 -11.63,-0.42 -0.28,-0.07 -0.54,-0.21 -0.8,-0.3 -6.27,-2.12 -15.95,-2.06 -22.71,-1.48 -8.57,0.76 0,1.91 -9.74,2.31 -3.87,0.17 -9.17,-0.61 -12.77,0.37l-22.1 5.29c-0.25,0.09 -0.53,0.21 -0.79,0.3l-26.84 10.4c-0.23,0.11 -0.51,0.26 -0.74,0.36 -0.23,0.12 -0.51,0.26 -0.72,0.37l-2.2 1.09c-0.23,0.11 -0.51,0.24 -0.73,0.36l-23.39 13.84c-3.77,2.25 -5.94,5.44 -9.56,7.97l-4.19 2.37c-6.55,4.53 -13.09,12.92 -18.72,18.53l-6.02 6.04c-2.41,3.1 1.32,-2.23 -0.89,1.3l-10.93 15.37c-0.13,0.19 -0.28,0.47 -0.39,0.69l-15.72 28.08c-0.09,0.29 -0.15,0.59 -0.24,0.88 -0.08,0.27 -0.16,0.57 -0.25,0.84 -0.83,2.4 -0.01,0.32 -0.95,2.34l-1.53 2.85c-0.16,0.32 -0.54,1.2 -0.66,1.54l-3.37 8.68c-0.12,0.23 -0.29,0.48 -0.38,0.71 -0.11,0.24 -0.28,0.49 -0.36,0.73 -0.51,1.25 -0.24,0.08 -0.78,2.51l-1.32 6.36c-0.08,0.26 -0.22,0.52 -0.31,0.8l-6.65 28.4c-1.9,5.76 -1.18,40.42 -0.84,48.61 0.42,9.76 1.62,1.14 2.28,9.77 0.12,1.73 -0.17,3.68 0.07,5.41l3.47 15.15c0.39,1.11 0.88,2.66 1.37,4.12 0.09,0.26 0.21,0.53 0.3,0.79l5.27 15.55c0.43,1.29 0.34,1.41 0.71,2.58 0.09,0.29 0.17,0.57 0.26,0.86l2.43 5.22c0.1,0.23 0.25,0.51 0.35,0.74l5.85 11.68c0.13,0.22 0.26,0.5 0.36,0.73l6.61 13.11c0.13,0.2 0.32,0.45 0.44,0.65l17.98 24.75c1.27,1.63 0.75,0.84 1.59,1.69 7.06,7.16 13.85,15.14 22.28,20.42 3.23,2.04 5.35,5.58 8.79,7.64l19.73 12.04c6.36,3.09 4.9,3.94 12.28,6.35l5.25 2.41c0.03,0.02 1.41,0.72 1.44,0.75l42.33 12.45c6.28,2.02 9.97,1.03 17.27,1.33 6.34,0.28 12.51,4.78 22.16,1.52 3.04,-1.01 -2.15,-0.46 4.11,-1.38 1.47,-0.21 4.89,-0.09 6.51,-0.05l10.62 -1.42c3.46,-1.14 9.04,-0.63 17.33,-3.5l11.22 -3.02c0.26,-0.09 0.54,-0.19 0.8,-0.29l4.95 -1.61c0.24,-0.11 0.52,-0.25 0.75,-0.34 0.23,-0.11 0.49,-0.28 0.72,-0.37 0.52,-0.28 2.09,-1.14 2.13,-1.16l16.84 -7.28c0.23,-0.1 0.51,-0.24 0.74,-0.35 0,0 1.44,-0.72 1.46,-0.74 0.23,-0.11 0.51,-0.24 0.73,-0.36l22.54 -13.59c0.32,-0.23 1.16,-0.99 1.75,-1.55l5.64 -4.21c5.72,-3.35 8.66,-9.5 13.99,-13.4 2.29,-1.69 -0.83,-1.44 4.99,-1.57z"/>
   <path class="fil1" d="M9175.6 4968.61l-1.56 0.63c-4.58,1.06 -10.1,-0.16 -14.83,0.51l-4.9 1.66c-2.57,0.68 -2.51,0.28 -4.97,0.53 -5.8,0.58 -2.93,0.63 -5.22,1.35 -2.64,0.83 -1.75,0.37 -4.55,0.92l-5.04 1.53c-1.42,0.49 -2.98,0.95 -4.14,1.34l-17.57 6.54c-0.24,0.09 -0.52,0.21 -0.78,0.32l-16.04 8.04c-0.23,0.11 -0.51,0.26 -0.73,0.35l-23.39 16.04c-1.44,0.92 -0.88,0.39 -2.17,1.14l-3.15 2.31c-0.01,0.01 -1.58,1.63 -1.61,1.68 -0.39,0.4 -0.94,0.96 -1.62,1.64 -9.02,9.11 -19.62,17.45 -26.5,28.27l-9.43 12.48c-0.13,0.2 -0.29,0.46 -0.42,0.68 -0.12,0.21 -0.26,0.49 -0.37,0.7l-6.95 11.69c-0.1,0.23 -0.24,0.51 -0.34,0.74l-11 24.06c-0.09,0.26 -0.21,0.54 -0.3,0.8l-3.52 10.71c-0.09,0.27 -0.19,0.55 -0.28,0.83l-1.42 4.05c-0.36,1.08 -0.41,1.43 -0.79,2.49l-1.92 10.14c-1.29,6.49 -0.37,-1.58 -1.66,4.89l-2.46 53.41c0,3.52 -0.32,8.8 -0.03,12.09 0.2,2.23 -0.17,-0.05 0.26,1.94l1.97 7.88c0.3,3.36 -0.14,1.78 0.76,4.73 0.1,0.26 0.25,0.5 0.32,0.78l3.6 15.01c0.06,0.32 0.14,0.59 0.21,0.89l4.64 13.98c0.11,0.25 0.22,0.53 0.32,0.79l4.07 10.17c0.09,0.26 0.22,0.54 0.32,0.78l2.94 5.82c0.42,0.85 0.8,1.58 1.09,2.2l13.64 22.5c0.06,0.08 1.02,1.22 1.46,1.83l13.2 17.47c0.95,0.94 1.06,1.06 1.63,1.65 6.86,6.81 14.11,16.17 22.65,21.18l13.2 9.79c1.35,0.87 0.9,0.43 2.12,1.17l7.26 4.79c0.92,0.6 0.8,0.6 1.88,1.41 0.26,0.2 0.96,0.8 1.21,0.97l12.26 6.36c2.01,0.92 -0.03,0.14 2.35,0.95l14.37 5.35c0.26,0.09 0.55,0.18 0.81,0.29l16.4 5.5c2.75,0.63 2.76,0.24 5.46,1.09l10.98 2.17c8.5,2.73 12.86,0.01 21.26,2.85 4.57,1.55 13.22,1.68 18.19,0 4.49,-1.52 10.93,-0.95 16.15,-1.4 2.22,-0.18 -0.05,0.17 1.92,-0.25l24.62 -6.06c1.3,-0.3 1.67,-0.21 2.85,-0.43 0.33,-0.06 0.63,-0.09 0.95,-0.15 0.31,-0.08 0.58,-0.14 0.89,-0.23l11.78 -4.64c0.32,-0.15 1.2,-0.54 1.54,-0.66l46.7 -26.67c0.22,-0.14 0.51,-0.26 0.72,-0.37l34.53 -35.59c2.43,-3.06 0.81,-0.26 3.25,-3.32 2.48,-3.1 -1.38,2.25 0.89,-1.29 0.92,-1.42 0.4,-0.87 1.16,-2.13l17.87 -31.43c1.63,-3.25 -0.92,1.76 0.73,-1.46l13.91 -45.24c0.87,-8.4 2.29,-6.25 2.13,-16.48 -0.01,-1.41 -0.13,-4.2 -0.01,-5.49 0.54,-6.36 0.69,-2.79 1.47,-5.1 1.95,-5.84 1.26,-16.16 -0.68,-21.91 -2.02,-6 0.44,-14.46 -1.51,-20.39l-8.48 -34.23c-0.11,-0.28 -0.2,-0.56 -0.29,-0.81 -0.11,-0.26 -0.23,-0.54 -0.33,-0.79l-4.36 -10.95c-0.11,-0.24 -0.25,-0.52 -0.34,-0.75 -0.16,-0.32 -0.6,-1.16 -0.76,-1.46l-24.87 -43.02 -13.82 -14.67c-5.02,-8.24 -2.65,-2.2 -13.9,-13.48 -1.08,-1.09 -1.38,-1.36 -2.73,-2.75 -4.22,-4.3 -3.31,-2.87 -8.09,-6.14l-39.53 -22.9c-0.23,-0.12 -0.49,-0.27 -0.72,-0.37l-50.78 -12.73c-11.81,0.25 -11.34,-3.02 -28.55,-2.27l-5.41 1.17z"/>
   <path class="fil1" d="M8566.61 5655.35l-6.58 0c-0.97,2.71 -0.64,1.31 -1.09,2.2l-6.32 14.49c-0.12,0.34 -0.5,1.23 -0.61,1.58 -0.99,3.3 -0.42,2.35 -0.77,5.8 -0.63,6.14 -0.61,2.84 -1.39,5.18 -1.64,4.92 -1.68,20.02 -0.54,25.31 1.36,6.41 0.41,-1.6 1.7,4.86l6.07 24.6c0.11,0.24 0.26,0.51 0.36,0.73l9.9 19.67c0.14,0.26 0.6,1.2 0.74,1.46l6.91 11.71c0.13,0.21 0.26,0.5 0.38,0.72 0.13,0.21 0.27,0.49 0.38,0.7l9.47 12.45c0.55,0.52 0.76,0.7 1.67,1.6 1.58,1.55 0.38,0.16 1.65,1.63l3.8 6.06c1.27,1.65 0.76,0.85 1.59,1.7 0.05,0.03 1.15,1.07 1.69,1.6 6.46,6.28 15.32,17.42 22.11,21.68l4.17 2.41c2.16,1.68 1.15,1.11 3.26,3.3l50.23 33.02c0.22,0.11 0.5,0.24 0.73,0.36 0.23,0.1 0.49,0.26 0.72,0.35l45.28 19.36c0.26,0.09 0.54,0.21 0.8,0.29l12.06 3.29c0.31,0.07 0.59,0.13 0.88,0.21l19.38 5.82c2.26,0.45 3.8,0.06 6.07,0.51 6.47,1.29 -1.58,0.39 4.89,1.68 2.26,0.44 3.79,0.06 6.06,0.5 6.47,1.31 -1.59,0.38 4.86,1.71 4.47,0.95 7.53,-0.57 12.15,0.99 8.03,2.69 11.7,0.27 18.07,1.63 6.39,1.38 -1.56,0.38 4.81,1.75 2.84,0.62 10.67,0.23 14.03,0.23 10.83,0 24.49,2.03 34.72,-1.43 3.78,-1.27 11.25,-0.49 15.74,-0.69 9.54,-0.4 1.3,-2.03 10.81,-2.32l64.12 -14.75c0.27,-0.09 0.55,-0.18 0.84,-0.27l33.34 -13.74c0.23,-0.12 0.51,-0.28 0.72,-0.37l8.73 -4.43c0.2,-0.12 0.45,-0.32 0.65,-0.45l28.59 -18.49c0.21,-0.13 0.51,-0.25 0.72,-0.38 0.21,-0.12 0.49,-0.25 0.71,-0.38 0.2,-0.12 0.48,-0.29 0.66,-0.42l11.1 -8.62c4.51,-4.44 8.27,-9.31 13.82,-12.46l3.79 -2.78c0.16,-0.17 0.38,-0.39 0.51,-0.57l1.55 -5.04 4.38 0c0.12,-5.84 -0.14,-2.7 1.57,-5.01l12.98 -15.5c0.12,-0.2 0.27,-0.5 0.4,-0.69 0.12,-0.22 0.26,-0.51 0.37,-0.72l1.2 -2.09c1.26,-1.77 1.97,-1.98 3.21,-3.37 3.09,-3.44 0.65,-0.09 2.92,-4.74l5.06 -10.28c3.09,-6.19 2.9,-3.45 5.91,-11.61l6.9 -18.29c0.09,-0.27 0.2,-0.54 0.29,-0.81l4.1 -18.9c2.1,-5.99 1.71,-26.23 1.12,-32.9 -0.61,-7.11 -1.64,-4.75 -2.26,-10.88l-3.53 -11.8c-0.1,-0.27 -0.2,-0.55 -0.29,-0.81l-1.95 -5.71c-0.02,-0.05 -0.92,-1.62 -1.16,-2.12 -0.12,-0.23 -0.29,-0.5 -0.38,-0.72 -0.16,-0.31 -0.57,-1.19 -0.68,-1.52 -0.77,-2.2 -0.66,-0.47 -0.72,-3.66l-4.38 0c-1.34,3.69 -3.27,3.96 -6.58,5.49l-16.07 9.12c-0.61,0.31 -1.33,0.66 -2.19,1.09l-2.92 1.46c0,0 -1.46,0.74 -1.46,0.74 -0.23,0.1 -0.51,0.26 -0.74,0.35 -0.04,0.03 -1.41,0.71 -1.45,0.74 -0.88,0.43 -2.06,1.02 -2.93,1.46 -3.24,1.64 1.77,-0.92 -1.45,0.73l-4.41 2.17c-0.26,0.09 -0.56,0.2 -0.82,0.29l-31.91 11.89c-0.26,0.09 -0.55,0.2 -0.81,0.29 -0.25,0.11 -0.54,0.22 -0.78,0.32l-7.76 3.2c-1.8,0.32 -1.8,0.1 -3.77,0.61 -0.29,0.08 -0.55,0.19 -0.84,0.26l-8.94 3.11c-1.02,0.34 -1.52,0.44 -2.51,0.78l-3.21 1.17c-2.6,0.78 -1.97,0.37 -4.59,0.89l-1.8 0.38c-0.29,0.08 -0.55,0.2 -0.83,0.28l-37.22 8.77c-0.35,0.11 -1.22,0.52 -1.57,0.63 -4.15,1.32 -4.92,0.29 -9.03,0.83 -7.27,0.96 0.81,1.87 -8.78,2.18 -4.29,0.14 -5.28,-0.59 -9.15,0.7 -6.53,2.2 -10.25,0.5 -15.34,2.2 -6.91,2.32 -14.37,0.43 -21.51,1.49 -7.16,1.04 0.71,1.81 -8.74,2.22 -11.87,0.51 -24.37,-1.15 -36.26,-0.12 -5.32,0.46 -9.56,4.21 -18.12,1.77 -13.3,-3.81 -29.39,-0.48 -43.22,-1.69 -7.31,-0.63 -2.5,-2.42 -18.6,-2.21 -7.67,0.09 -9.87,-2.35 -17.46,-2.25 -8.2,0.11 -8.37,-1.36 -18.66,-2.15 -8.99,-0.69 -0.03,-0.97 -7.79,-2.09 -1.89,-0.27 -3.11,0.04 -5.1,-0.37 -0.32,-0.06 -0.59,-0.13 -0.88,-0.21l-11.76 -2.49c-2.92,-0.92 2.04,-0.42 -4.17,-1.3l-92.96 -29.71c-0.24,-0.1 -0.52,-0.21 -0.78,-0.32l-4.24 -1.23c-0.26,-0.09 -0.55,-0.19 -0.81,-0.29l-10.25 -5.08c-0.63,-0.32 -1.34,-0.66 -2.2,-1.09l-8.11 -3.94c-2.67,-1.41 -3.39,-1.96 -4.3,-4.47z"/>
  </g>
  <path class="fil1" d="M16207.57 610.76c157.98,0 286.05,128.06 286.05,286.05 0,157.98 -128.07,286.05 -286.05,286.05 -157.99,0 -286.06,-128.07 -286.06,-286.05 0,-157.99 128.07,-286.05 286.06,-286.05zm-136.85 441.62l0 -311.16 137.9 0c27.75,0 48.83,2.83 63.23,8.41 14.41,5.57 25.93,15.42 34.55,29.55 8.62,14.12 12.9,29.76 12.9,46.86 0,22.09 -7.17,40.71 -21.44,55.85 -14.27,15.14 -36.28,24.7 -66.12,28.83 10.94,5.22 19.19,10.43 24.84,15.5 12.02,11.01 23.39,24.84 34.05,41.43l53.81 84.74 -51.42 0 -41.14 -64.76c-11.95,-18.76 -21.88,-33.02 -29.63,-42.95 -7.82,-9.92 -14.77,-16.81 -20.93,-20.78 -6.08,-3.91 -12.39,-6.67 -18.76,-8.26 -4.64,-0.94 -12.24,-1.45 -22.89,-1.45l-47.65 0 0 138.2 -41.28 0zm41.28 -173.83l88.37 0c18.83,0 33.46,-1.96 44.03,-5.87 10.57,-3.84 18.62,-10.07 24.05,-18.69 5.5,-8.55 8.25,-17.82 8.25,-27.88 0,-14.71 -5.29,-26.87 -15.93,-36.36 -10.64,-9.49 -27.45,-14.2 -50.41,-14.2l-98.36 0 0 103z"/>
 </g>
</svg>
