<?xml version="1.0" encoding="UTF-8"?>
<!DOCTYPE svg PUBLIC "-//W3C//DTD SVG 1.1//EN" "http://www.w3.org/Graphics/SVG/1.1/DTD/svg11.dtd">
<!-- Creator: CorelDRAW 2019 (64 Bit) -->
<svg xmlns="http://www.w3.org/2000/svg" xml:space="preserve" width="167.619mm" height="63.0727mm" version="1.1" style="shape-rendering:geometricPrecision; text-rendering:geometricPrecision; image-rendering:optimizeQuality; fill-rule:evenodd; clip-rule:evenodd"
viewBox="0 0 16513.32 6213.73"
 xmlns:xlink="http://www.w3.org/1999/xlink">
 <defs>
  <style type="text/css">
   <![CDATA[
    .str0 {stroke:#336699;stroke-width:139.02;stroke-miterlimit:22.9256}
    .str1 {stroke:white;stroke-width:19.7;stroke-miterlimit:22.9256}
    .fil3 {fill:none}
    .fil1 {fill:none;fill-rule:nonzero}
    .fil2 {fill:#336699}
    .fil0 {fill:white;fill-rule:nonzero}
   ]]>
  </style>
 </defs>
 <g id="Camada_x0020_1">
  <metadata id="CorelCorpID_0Corel-Layer"/>
  <path class="fil0" d="M3371.55 758.82c9.09,6.07 18.18,13.63 27.27,22.72 3.02,3.03 6.06,4.55 9.08,4.55l-72.7 -49.98c3.02,0 6.06,1.51 9.07,4.53 0,0 9.09,6.06 27.27,18.18 30.29,18.19 55.29,40.9 74.98,68.16 19.68,27.26 35.59,57.55 47.7,90.88 6.06,15.14 9.09,28.02 9.09,38.62 0,10.6 0,23.48 0,38.63 0,57.54 -15.14,110.57 -45.45,159.03 -12.11,18.18 -19.68,31.8 -22.72,40.89l-54.52 81.79c-12.12,21.2 -24.24,41.66 -36.36,61.35 -12.11,19.69 -25.74,40.14 -40.88,61.35l-458.93 740.65c-24.24,33.32 -46.2,68.15 -65.89,104.51 -19.69,36.35 -41.65,72.71 -65.88,109.06l-704.31 1126.88c-6.06,12.12 -12.12,21.21 -18.18,27.27 -36.35,60.58 -86.34,99.97 -149.95,118.13 -27.26,9.09 -57.55,13.63 -90.87,13.63 -45.44,0 -87.85,-10.6 -127.23,-31.8 -48.47,-21.21 -87.85,-57.56 -118.14,-109.06l-181.75 -290.8c-15.14,-27.27 -31.8,-54.54 -49.98,-81.8 -18.18,-27.26 -34.84,-56.05 -49.99,-86.33 -21.2,-30.29 -40.89,-60.59 -59.06,-90.87 -18.19,-30.29 -37.87,-62.11 -59.08,-95.43l-127.22 -199.92c-21.2,-36.35 -42.4,-71.95 -63.61,-106.78 -21.2,-34.84 -43.93,-70.44 -68.16,-106.79 -24.23,-36.34 -46.19,-72.7 -65.88,-109.05 -19.69,-36.35 -41.65,-71.19 -65.89,-104.51l-131.78 -213.56c-24.24,-33.32 -46.18,-67.4 -65.89,-102.23 -19.68,-34.84 -40.14,-68.91 -61.34,-102.23l-218.11 -349.88c-15.15,-24.24 -29.55,-46.96 -43.17,-68.16 -13.63,-21.21 -28.02,-43.92 -43.16,-68.15l-99.97 -159.04c-9.09,-15.15 -17.43,-31.81 -25,-49.99 -7.57,-18.18 -14.38,-37.87 -20.44,-59.07 -3.02,-12.12 -4.54,-30.28 -4.54,-54.53 0,-102.99 43.93,-183.27 131.77,-240.82 42.41,-30.28 92.4,-45.44 149.95,-45.44 66.65,0 124.2,19.69 172.67,59.07 15.14,12.12 28.78,25.75 40.89,40.9 12.12,15.14 24.24,31.8 36.35,49.98l45.44 68.15c12.12,18.18 23.48,37.1 34.08,56.8 10.6,19.68 23.48,38.62 38.62,56.79l336.25 540.72c39.39,66.65 83.31,137.83 131.78,213.56 24.24,36.35 46.95,72.7 68.16,109.05 21.2,36.35 42.41,72.71 63.61,109.06l131.78 204.46c18.17,33.33 37.1,65.14 56.79,95.43 19.69,30.29 40.14,62.1 61.34,95.41l231.74 377.14c6.06,6.06 12.12,15.15 18.18,27.26l22.72 -27.26 231.74 -377.14c21.2,-33.32 41.65,-65.12 61.34,-95.41 19.69,-30.29 38.63,-62.11 56.8,-95.43l131.77 -204.46c21.2,-36.35 42.41,-72.71 63.61,-109.06 21.21,-36.35 43.93,-72.7 68.15,-109.05 24.25,-33.32 46.2,-68.15 65.9,-104.51 19.68,-36.35 41.65,-72.71 65.88,-109.06l336.25 -540.72c15.14,-18.18 28.02,-37.11 38.63,-56.79 10.59,-19.7 21.96,-38.63 34.08,-56.8l45.45 -68.15c18.17,-36.35 43.91,-66.65 77.24,-90.88 48.47,-39.38 106.02,-59.07 172.67,-59.07 57.55,0 107.54,15.15 149.94,45.44zm758.83 149.95c78.76,0 146.17,28.02 202.21,84.06 56.04,56.04 84.06,123.43 84.06,202.2l0 2149.25c0,78.76 -28.03,146.16 -84.06,202.21 -56.04,56.04 -123.44,84.05 -202.21,84.05 -78.75,0 -145.4,-28.02 -199.92,-84.05 -54.54,-56.05 -81.8,-123.44 -81.8,-202.21l0 -2149.25c0,-78.76 27.26,-146.16 81.8,-202.2 54.52,-56.05 121.17,-84.06 199.92,-84.06zm0 -340.79c-78.75,0 -145.4,-28.02 -199.92,-83.31 -54.54,-56.04 -81.8,-122.68 -81.8,-200.69 0,-78.01 27.26,-144.64 81.8,-200.69 54.52,-55.28 121.17,-83.3 199.92,-83.3 78.76,0 146.17,28.02 202.21,83.3 56.04,56.05 84.06,122.68 84.06,200.69 0,78.01 -28.03,144.65 -84.06,200.69 -56.04,55.29 -123.44,83.31 -202.21,83.31zm2381 145.4c75.73,6.06 140.1,35.59 193.11,88.61 53.02,53.01 79.52,117.39 79.52,193.12 0,78.74 -28.02,146.16 -84.06,202.2 -56.04,56.05 -123.44,84.06 -202.2,84.06l-22.73 0c-118.14,6.06 -229.47,33.32 -333.97,81.79 -104.51,48.46 -195.39,112.84 -272.63,193.11 -77.25,80.27 -137.83,173.43 -181.75,279.45 -43.93,106.02 -65.9,219.61 -65.9,340.79l0 1181.4c0,78.75 -28.02,145.4 -84.05,199.93 -56.05,54.53 -123.44,81.79 -202.21,81.79 -78.76,0 -145.4,-27.26 -199.93,-81.79 -54.53,-54.53 -81.79,-121.18 -81.79,-199.93l0 -1181.4c0,-199.93 37.11,-386.99 111.32,-561.17 74.22,-174.18 174.94,-327.15 302.16,-458.93 127.23,-131.78 277.19,-237.03 449.85,-315.8 172.67,-78.76 357.46,-121.18 554.35,-127.23l27.27 0 4.53 0 9.09 0zm2785.39 0c78.76,0 145.4,28.02 199.94,84.06 54.53,56.04 81.79,123.44 81.79,202.2 0,78.76 -27.26,145.41 -81.79,199.94 -54.54,54.53 -121.18,81.79 -199.94,81.79l-349.87 0 -377.14 0 0 2076.55c0,78.75 -28.02,145.4 -84.06,199.93 -56.04,54.53 -123.43,81.79 -202.2,81.79 -78.76,0 -145.4,-27.26 -199.94,-81.79 -54.52,-54.53 -81.79,-121.18 -81.79,-199.93l0 -2076.55 -345.33 0 -381.68 0c-78.76,0 -145.4,-27.26 -199.92,-81.79 -54.54,-54.53 -81.8,-121.18 -81.8,-199.94 0,-78.75 27.26,-146.16 81.8,-202.2 54.52,-56.05 121.16,-84.06 199.92,-84.06l381.68 0 1290.46 0 349.87 0zm3217.07 0c78.76,0 145.4,28.02 199.92,84.06 54.53,56.04 81.8,123.44 81.8,202.2l0 1181.4c0,199.94 -38.63,388.51 -115.88,565.72 -77.25,177.2 -181.75,331.7 -313.52,463.47 -131.78,131.78 -286.26,236.28 -463.48,313.53 -177.21,77.25 -365.78,115.87 -565.7,115.87 -202.96,0 -393.05,-38.62 -570.27,-115.87 -177.2,-77.25 -331.7,-181.75 -463.47,-313.53 -131.78,-131.78 -236.28,-286.27 -313.53,-463.47 -77.25,-177.21 -115.87,-365.78 -115.87,-565.72l0 -1181.4c0,-78.75 28.03,-146.16 84.06,-202.2 56.05,-56.05 123.44,-84.06 202.21,-84.06 78.75,0 145.4,28.02 199.92,84.06 54.54,56.04 81.8,122.68 81.8,201.44l0 1179.15c0,124.19 23.47,240.06 70.43,346.84 46.95,107.54 110.57,202.21 190.84,283.99 80.28,81.03 174.94,145.41 283.99,192.35 109.05,46.95 225.68,70.43 349.88,70.43 121.17,0 236.27,-23.48 345.33,-70.43 109.05,-46.94 204.47,-111.32 286.27,-192.35 81.78,-81.79 146.16,-176.45 193.1,-283.99 46.95,-106.78 70.43,-222.65 70.43,-346.84l-4.53 0 0 -1179.15c0,-78.75 28.02,-145.4 84.05,-201.44 56.05,-56.05 123.44,-84.06 202.21,-84.06zm2008.39 0c202.96,0 393.04,38.62 570.26,115.87 177.21,77.25 331.71,181.75 463.47,313.54 131.77,131.77 236.29,287.02 313.54,465.74 77.23,178.73 115.86,368.06 115.86,567.99l0 1181.4c0,78.75 -27.26,145.4 -81.78,199.93 -54.54,54.53 -121.18,81.79 -199.94,81.79 -78.76,0 -146.16,-27.26 -202.2,-81.79 -56.05,-54.53 -84.06,-121.18 -84.06,-199.93l0 -545.27 -895.14 0 0 -4.53c-9.09,3.01 -25.74,4.53 -49.99,4.53 -99.97,0 -195.38,15.15 -286.26,45.45 -90.87,30.28 -173.42,72.7 -247.64,127.22 -74.21,54.53 -138.58,119.65 -193.11,195.39 -54.52,75.73 -95.41,159.04 -122.69,249.92 -3.02,3.02 -4.53,6.05 -4.53,9.08 0,3.02 -1.52,6.06 -4.54,9.08 -18.19,57.56 -51.5,103.75 -99.97,138.58 -48.46,34.85 -104.51,52.26 -168.12,52.26 -78.76,0 -145.4,-27.26 -199.93,-81.79 -54.53,-54.53 -81.79,-121.18 -81.79,-199.93l0 -40.89 0 -1140.51c0,-178.73 30.29,-346.85 90.87,-504.38 72.71,-193.86 181.75,-366.54 327.16,-518 136.32,-136.32 293.08,-243.85 470.28,-322.61 177.22,-78.76 367.31,-118.14 570.27,-118.14zm895.14 1531.29l0 -68.15c0,-157.53 -37.87,-302.93 -113.6,-436.22 0,-3.01 -0.76,-5.29 -2.27,-6.81 -1.52,-1.52 -2.28,-3.78 -2.28,-6.82 -12.12,-18.18 -24.24,-36.35 -36.35,-54.53 -12.12,-18.17 -24.23,-34.84 -36.35,-49.98 -81.79,-106.03 -183.26,-189.33 -304.44,-249.92 -121.17,-60.59 -254.46,-90.87 -399.86,-90.87 -145.4,0 -279.44,32.56 -402.14,97.69 -122.68,65.13 -224.92,150.7 -306.71,256.73 -57.55,75.73 -102.23,159.04 -134.04,249.92 -31.8,90.88 -47.71,187.81 -47.71,290.81l0 336.25c118.14,-84.82 248.4,-150.71 390.78,-197.66 142.38,-46.95 292.33,-70.43 449.84,-70.43l49.99 0 895.14 0z"/>
  <path class="fil1 str0" d="M11744.19 5696.3c58.26,0 107.57,20.73 147.9,62.18 40.33,41.46 60.5,91.32 60.5,149.58 0,58.26 -20.17,107.57 -60.5,147.91 -40.33,40.32 -89.64,60.5 -147.9,60.5l-248.74 0c-147.91,0 -287.4,-28.57 -418.49,-85.72 -131.1,-57.14 -245.95,-134.46 -343.99,-231.94 -98.03,-97.47 -175.9,-211.76 -233.6,-342.86 -57.71,-131.09 -86.28,-271.71 -86.28,-421.85 0,-147.9 28.57,-287.4 86.28,-418.49 57.7,-131.1 135.57,-245.39 233.6,-342.86 98.04,-97.48 212.9,-174.8 343.99,-231.94 131.09,-57.15 270.58,-85.71 418.49,-85.71l248.74 0c58.26,0 107.57,20.17 147.9,60.5 40.33,40.33 60.5,89.64 60.5,147.9 0,58.26 -20.17,108.12 -60.5,149.58 -40.33,41.46 -89.64,62.18 -147.9,62.18l-248.74 0c-91.89,0 -177.6,17.37 -257.15,52.11 -79.55,34.73 -149.58,81.79 -210.09,141.17 -60.5,59.39 -108.12,129.41 -142.86,210.09 -34.73,80.68 -52.1,165.83 -52.1,255.46 0,91.88 17.37,178.15 52.1,258.83 34.74,80.67 82.36,150.69 142.86,210.08 60.51,59.39 130.53,106.45 210.09,141.18 79.55,34.73 165.26,52.1 257.15,52.1l248.74 0zm1431.95 -1747.91c56.02,4.47 103.64,26.32 142.85,65.53 39.22,39.22 58.83,86.83 58.83,142.86 0,58.26 -20.74,108.12 -62.18,149.59 -41.47,41.46 -91.33,62.18 -149.59,62.18l-16.81 0c-87.39,4.47 -169.75,24.65 -247.06,60.5 -77.31,35.86 -144.53,83.47 -201.68,142.87 -57.14,59.38 -101.96,128.29 -134.46,206.72 -32.49,78.43 -48.74,162.46 -48.74,252.1l0 873.96c0,58.25 -20.73,107.55 -62.18,147.89 -41.46,40.34 -91.33,60.51 -149.58,60.51 -58.26,0 -107.57,-20.17 -147.9,-60.51 -40.33,-40.34 -60.5,-89.64 -60.5,-147.89l0 -873.96c0,-147.9 27.44,-286.28 82.34,-415.13 54.91,-128.85 129.42,-242.02 223.53,-339.5 94.12,-97.47 205.04,-175.36 332.78,-233.61 127.73,-58.26 264.43,-89.64 410.09,-94.11l20.17 0 3.37 0 6.72 0zm2500.86 2164.72c-58.26,0 -107,-20.17 -146.22,-60.51 -39.21,-40.34 -58.82,-89.64 -58.82,-147.89l0 -1243.72 -268.35 268.91c-53.78,53.79 -114.29,95.24 -182.63,124.37 -68.35,29.13 -140.06,43.69 -216.25,43.69 -76.18,0 -148.46,-14.56 -217.93,-43.69 -69.45,-29.13 -129.41,-70.58 -180.95,-124.37l-271.72 -272.27 0 1247.08c0,58.25 -20.17,107.55 -61.06,147.89 -40.33,40.34 -90.2,60.51 -149.02,60.51 -58.82,0 -108.68,-20.17 -149.03,-60.51 -40.89,-40.34 -61.06,-89.64 -61.06,-147.89l0 -1744.56c0,-58.27 20.17,-107.57 60.5,-147.9 40.34,-40.34 89.64,-60.51 147.9,-60.51 42.58,0 81.8,12.32 117.65,36.97l0 -3.35 26.89 23.53 598.33 601.68c40.34,35.85 86.28,53.78 137.82,53.78 49.3,0 94.11,-17.93 134.46,-53.78l618.49 -621.86 3.37 0c35.85,-24.65 75.07,-36.97 117.64,-36.97 58.26,0 107.57,20.17 147.91,60.51 40.32,40.33 60.49,89.63 60.49,147.9l0 1744.56c0,58.25 -20.17,107.55 -60.49,147.89 -40.34,40.34 -89.65,60.51 -147.91,60.51z"/>
  <g id="_1520328906816">
   <path class="fil2" d="M7861.57 5126.1l6.05 -14.77c0.09,-0.28 0.18,-0.56 0.27,-0.83l4.87 -12.67c0.09,-0.28 0.17,-0.57 0.26,-0.85 0.09,-0.27 0.18,-0.55 0.29,-0.81 0.09,-0.26 0.21,-0.54 0.3,-0.78 0.11,-0.25 0.25,-0.52 0.34,-0.75 0.11,-0.25 0.26,-0.51 0.37,-0.74l7.72 -15.3c0.1,-0.23 0.24,-0.51 0.35,-0.73 0.11,-0.23 0.26,-0.51 0.36,-0.74l23.19 -35.99c2.38,-3.06 -1.3,2.18 0.89,-1.3 5.81,-9.25 14.82,-16.79 22.64,-24.49l39.5 -26.25c0.23,-0.12 0.51,-0.26 0.74,-0.35l27.74 -12.81c0.24,-0.11 0.52,-0.23 0.78,-0.32l5.01 -1.58c0.26,-0.09 0.54,-0.2 0.8,-0.29 0.27,-0.09 0.54,-0.22 0.81,-0.31 0.26,-0.09 0.54,-0.2 0.81,-0.29l28.5 -8.77c0.29,-0.07 0.57,-0.15 0.87,-0.21 1.57,-0.35 2.23,-0.24 3.78,-0.6l10.46 -2.69c0.28,-0.09 0.53,-0.24 0.78,-0.32l22.72 -4.7c3.59,-1.12 3.17,-0.35 6.79,-0.88 8.01,-1.14 -1.26,-0.95 6.75,-2 2.46,-0.33 4.87,0.21 7.38,-0.31 4.51,-0.92 1.96,-1.61 6.8,-1.96 2.98,-0.23 4.21,0.35 7.2,-0.47 0.29,-0.07 0.54,-0.21 0.8,-0.3l1.54 -0.66c0.27,-0.09 0.52,-0.23 0.79,-0.32 4.54,-1.28 10.92,0.24 15.23,-1.21 4.51,-1.52 9.52,-0.71 14.95,-1.49 4.85,-0.69 4.09,-2.17 9.83,-2.21 2.66,-0.03 6.35,0.33 8.89,0.12l5.11 -1.47c0.27,-0.1 0.52,-0.23 0.79,-0.32 5.62,-1.6 13.29,0.01 18.93,-1.88 6.33,-2.15 13.27,0.18 22.71,-2.5 5.86,-1.67 13.02,0.1 18.93,-1.88 6.39,-2.16 17.74,0.14 23.36,-1.86l6.48 -1.18c17.1,-0.17 11.89,-2.34 23.11,-2.11 2.16,0.05 5.42,0.22 7.44,-0.22 7.25,-1.57 3.6,-2.02 14.54,-1.91 7.26,0.06 7.43,-2.27 14.14,-2.3l8.81 -1.05c4.63,-1.65 9.37,-0.46 14.19,-1.15 7.72,-1.11 -0.49,-0.6 5.77,-1.92 2.7,-0.57 5.85,0.03 8.57,-0.18l5.11 -1.46c4.44,-1.51 10.59,-0.63 15.35,-2.2 3.87,-1.29 3.91,-0.46 8,-0.76l4.38 -1.1c3.53,-1.24 6.29,-0.7 9.78,-1.17 7.79,-1.03 -0.52,-0.61 5.78,-1.89 2.8,-0.56 5.53,0.11 8.31,-0.44 6.31,-1.29 -2.01,-0.88 5.78,-1.89 3.3,-0.43 5.63,0.26 9.02,-0.85l113.92 -26.37c3.54,-1.21 -1.68,0.05 3.31,-1.06l4.67 -0.81c0.29,-0.08 0.54,-0.2 0.83,-0.28l51.19 -15.64c0.28,-0.09 0.56,-0.21 0.82,-0.3l4.97 -1.61c0.26,-0.09 0.54,-0.2 0.81,-0.29 0.26,-0.09 0.54,-0.22 0.8,-0.31l25.53 -8.45c0.24,-0.1 0.5,-0.24 0.75,-0.34l5.18 -2.49c0.27,-0.09 0.56,-0.16 0.84,-0.26 0.29,-0.09 0.58,-0.15 0.86,-0.24l20.09 -7.31c0.23,-0.12 0.5,-0.26 0.75,-0.36l5.82 -1.82c0.25,-0.11 0.54,-0.22 0.78,-0.32l56.25 -23.77c3.35,-1.7 -1.92,0.98 1.46,-0.73 0.89,-0.45 2.03,-1 2.92,-1.46l101.57 -50.76c0.23,-0.12 0.52,-0.25 0.75,-0.36l2.86 -1.52c0.19,-0.13 0.46,-0.32 0.64,-0.44l70.3 -42.6c1.74,-0.95 1.22,-0.66 2.66,-1.72 1.09,-0.81 1.87,-1.52 2.47,-1.9l13.15 -8.77c0.2,-0.14 0.48,-0.29 0.69,-0.4l2.77 -1.61c0.2,-0.14 0.44,-0.35 0.63,-0.48 1.24,-0.91 1.78,-1.45 2.49,-1.89l37.93 -26.73c0.22,-0.12 0.51,-0.26 0.73,-0.37 0.21,-0.13 0.49,-0.27 0.7,-0.38l11.34 -8.39c0.24,-0.22 0.95,-0.8 1.2,-1l8.15 -6.09c3.03,-2.42 -2.16,1.29 1.29,-0.91l6.35 -4.61c0.58,-0.55 1.44,-1.32 1.73,-1.55 0.2,-0.13 0.48,-0.3 0.68,-0.41 4.78,-3.03 7.1,-6.35 10.96,-8.77l12.31 -8.53c0.48,-0.33 1.86,-1.61 2.32,-2.06l16.77 -13.91c0.03,-0.02 1.42,-0.74 1.46,-0.75 4.91,-2.87 8.46,-7.96 13.85,-11.35 0.2,-0.13 0.48,-0.29 0.68,-0.42l9.61 -9c6.16,-3.86 9.52,-9.51 15.34,-13.15l22.81 -18.85c3.03,-3.1 5.44,-5.43 8.23,-8.23l52.07 -47.66c6.66,-6.68 49.67,-47.87 53.47,-53.92 8.75,-13.95 24.4,-23.37 34.18,-35.96l3.31 -5.48c1.79,-2.35 3.87,-4.85 7.11,-6.02l-5.18 18.93c-0.07,0.28 -0.21,0.53 -0.3,0.8 -0.09,0.26 -0.23,0.52 -0.31,0.78 -0.09,0.29 -0.2,0.54 -0.29,0.83l-5.65 26.11c-1.55,4.79 -0.65,10.18 -1.89,14.56 -0.08,0.28 -0.22,0.54 -0.31,0.8l-0.66 1.52c-2.02,5.99 -0.07,16.15 -1.86,21.16 -1.5,4.21 -1.06,10.56 -1.1,15.36 -0.08,10.34 1.75,9.73 2.25,15.29 0.45,5.2 -0.99,11.09 0.42,16.01 0.07,0.28 0.21,0.54 0.3,0.8l1.51 10.56c0.89,6.71 0.7,0.07 1.86,5.8l4.92 21.38c1.11,5 -0.13,-0.23 1.08,3.3l6.64 17.48c0.1,0.26 0.19,0.54 0.29,0.81 0.5,1.52 0.44,1.91 0.96,3.43l14.15 28.6c0.1,0.23 0.25,0.51 0.35,0.73l3.32 6.55c0.12,0.2 0.32,0.46 0.45,0.64l22.51 32.28c0.26,0.43 0.5,1 0.76,1.44l7.34 8c0.43,0.43 1.73,1.88 2.05,2.32l2.37 4.21c3.98,5.73 36.8,37.38 39.03,38.8 6.73,4.22 11.17,9.66 15.3,12.08l1.38 0.82c0.49,0.34 1.88,1.61 2.32,2.07l7.96 6.28c0.21,0.13 0.49,0.29 0.68,0.41l5.94 5.03c1.23,0.74 0.75,0.29 2.12,1.15l26.39 18.56c0.12,0.06 1.3,0.69 1.43,0.76l10.98 6.53c1.58,0.94 0.42,0.22 1.95,1.35 1.08,0.83 1.94,1.6 2.45,1.94l74.49 39.49c0.23,0.1 0.51,0.26 0.73,0.35 0.47,0.25 1,0.5 1.46,0.74l24.81 11.36c0.32,0.14 1.21,0.54 1.53,0.67 0.27,0.09 0.55,0.19 0.83,0.28l15.19 5.62c0.26,0.11 0.54,0.23 0.78,0.32l4.35 2.24c0.25,0.11 0.52,0.22 0.78,0.32l5.04 1.52c0.26,0.11 0.54,0.23 0.79,0.32l5.94 2.84c0.27,0.1 0.57,0.17 0.84,0.25l88.87 29.49c0.28,0.09 0.54,0.21 0.82,0.3l29.8 8.56c2.65,0.93 -1.04,0.29 3.27,1.09l34.03 7.63c3.11,0.98 -1.96,0.12 3.24,1.14l21.05 4.16c4.53,1.18 14.82,2.06 21.1,4.1 3.97,1.29 7.85,0.27 11.62,1.53 4.64,1.52 11.1,0.77 15.34,2.18 3.09,1.03 -2.04,0.14 3.18,1.22 1.6,0.32 2.55,0.23 4.16,0.23 0,-4.76 -0.03,-9.53 0.03,-14.28 0.11,-9.77 -2.08,-9.26 -2.14,-20.87 -0.04,-6.92 -2.31,-6.36 -2.33,-13.01 -0.06,-12.72 -0.84,-8.24 -1.9,-13.45 -0.51,-2.51 0.03,-4.92 -0.31,-7.36 -1.01,-7.8 -0.6,0.52 -1.89,-5.79l-2.9 -20.11c-0.07,-0.28 -0.21,-0.53 -0.29,-0.81 -0.38,-1.23 -1.11,-0.92 -1.43,-5.14 -0.22,-2.98 0.35,-4.2 -0.44,-7.22 -0.08,-0.28 -0.22,-0.54 -0.31,-0.8 -0.1,-0.34 -0.52,-1.22 -0.63,-1.57l-4.89 -21.41c-0.08,-0.32 -0.11,-0.61 -0.17,-0.93l-2.84 -12.51c-0.08,-0.28 -0.2,-0.55 -0.29,-0.82l-5.26 -19.94c-0.53,-1.97 -0.3,-1.92 -0.64,-3.73l-5.91 -20.39c-0.42,-1.24 -0.63,-2.09 -1.05,-3.33l-14.02 -41.87c-0.1,-0.27 -0.2,-0.55 -0.29,-0.81l-6.33 -16.7c-0.73,-1.9 -0.41,-1.5 -1,-3.39l-9.31 -23.58c-0.09,-0.26 -0.21,-0.54 -0.32,-0.78 -0.1,-0.24 -0.24,-0.51 -0.34,-0.75 -0.1,-0.23 -0.27,-0.49 -0.37,-0.72 -0.04,-0.08 -0.74,-1.32 -0.78,-1.41l-7.64 -17.57c-0.12,-0.23 -0.26,-0.5 -0.37,-0.73l-8.39 -19c-0.34,-0.67 -0.64,-1.29 -1.09,-2.19l-5.85 -11.68c-0.15,-0.3 -0.57,-1.17 -0.72,-1.47 -0.13,-0.23 -0.26,-0.49 -0.37,-0.72 -1.01,-2.04 0.28,0.57 -0.73,-1.48l-3.65 -7.29c-0.11,-0.23 -0.26,-0.51 -0.36,-0.74 -0.11,-0.23 -0.26,-0.51 -0.36,-0.73l-10.93 -19.76c-0.14,-0.2 -0.3,-0.46 -0.42,-0.67l-20.84 -37.25c-0.12,-0.21 -0.32,-0.46 -0.44,-0.66l-3.21 -4.44c-0.13,-0.23 -0.25,-0.51 -0.36,-0.74l-0.69 -1.5c-0.11,-0.25 -0.25,-0.53 -0.34,-0.75 -0.11,-0.23 -0.25,-0.53 -0.34,-0.76l-12.77 -19.01c-0.13,-0.2 -0.28,-0.48 -0.4,-0.69l-3.97 -5.89c-0.14,-0.19 -0.29,-0.47 -0.41,-0.69l-3.97 -5.88c-0.14,-0.2 -0.29,-0.48 -0.41,-0.69l-5.16 -8c-0.12,-0.2 -0.27,-0.48 -0.4,-0.7 -0.12,-0.19 -0.3,-0.46 -0.43,-0.66l-21.06 -29.35c-0.12,-0.19 -0.26,-0.49 -0.39,-0.7l-14.2 -17.57c-2.63,-4.47 -6.67,-7.33 -9.14,-11.68l-11.72 -14.59c-0.13,-0.2 -0.29,-0.48 -0.42,-0.67 -3.75,-5.4 -10.48,-9.02 -13.78,-14.7 -5.84,-10 -60.38,-61.52 -73.26,-74.71l-19.94 -17.32c-0.21,-0.13 -0.49,-0.28 -0.7,-0.39l-4.61 -3.06c-6.38,-5.96 -7.42,-7.79 -12.9,-11.23 -3.27,-2.05 -5.41,-5.63 -8.8,-7.63l-17.13 -13.56c-0.24,-0.21 -0.96,-0.8 -1.21,-0.98l-54.01 -38.06c-0.12,-0.07 -1.3,-0.7 -1.42,-0.78l-4.43 -3.23c-1.21,-0.78 -0.63,-0.4 -2.13,-1.17l-20.54 -12.33c-0.3,-0.15 -1.15,-0.59 -1.44,-0.75 -1.57,-0.94 -0.4,-0.2 -1.94,-1.35l-4.58 -3.09c-0.22,-0.11 -0.52,-0.25 -0.75,-0.34l-65.04 -35.78c-0.31,-0.15 -1.16,-0.58 -1.46,-0.73l-1.46 -0.74c-0.23,-0.11 -0.51,-0.26 -0.74,-0.36 -0.23,-0.1 -0.51,-0.26 -0.73,-0.35l-13.86 -6.97c-0.23,-0.11 -0.49,-0.28 -0.72,-0.37l-16.11 -6.91c-0.23,-0.13 -0.49,-0.26 -0.72,-0.37 -0.23,-0.11 -0.51,-0.26 -0.74,-0.36l-12.06 -5.48c-1.55,-0.46 -0.85,-0.14 -2.52,-0.77l-32.22 -13.81c-1.83,-0.7 -1.47,-0.43 -3.36,-1.01l-27.37 -9.91c-0.26,-0.09 -0.54,-0.2 -0.81,-0.29l-13.15 -4.38c-0.28,-0.09 -0.56,-0.18 -0.83,-0.26 -1.41,-0.46 -2.24,-0.69 -3.33,-1.06l-2.42 -0.88c-1.24,-0.4 -2.08,-0.61 -3.34,-1.03l-11.48 -3.85c-1.17,-0.37 -1.64,-0.51 -2.49,-0.82l-68.16 -18.38c-0.31,-0.09 -0.57,-0.17 -0.88,-0.23 -0.32,-0.08 -0.61,-0.11 -0.93,-0.17l-49.2 -10c-3.99,-1.41 -7.67,-0.49 -11.59,-1.56l-23.52 -3.87c-0.84,-0.02 -2.41,0 -3.19,-0.11 -6.64,-0.92 -0.06,-0.71 -5.75,-1.92 -1.33,-0.29 -2.73,-0.29 -4.1,-0.29 -2.19,-0.02 -5.62,0.32 -7.68,0.01 -7.67,-1.09 0.45,-0.58 -5.75,-1.92 -4.2,-0.9 -10.72,0.47 -14.91,-0.43 -6.22,-1.33 1.91,-0.8 -5.74,-1.92 -1.76,-0.26 -5.67,-0.07 -7.62,-0.06 -21.03,0.2 -14.01,-2.32 -28.49,-2.19 -15.03,0.13 -33.76,2.22 -47.6,-1.73 -5.21,-1.47 -14.47,-1.41 -19.6,0.31 -0.14,0.06 -1.4,0.63 -1.53,0.67 -2.3,0.79 -0.33,0.53 -3.58,0.8 -14.32,1.26 -41.29,-1.8 -53.7,0.02 -8.69,1.27 0.6,2.32 -20.88,2.13 -11.46,-0.11 -8.35,0.9 -13.37,1.98 -3.51,0.77 -10.22,-0.03 -14.11,0.14 -1.17,0.06 -1.83,0.06 -2.99,0.3 -4.49,0.98 -4.46,2.09 -10.02,2.05 -2.25,-0.03 -5.65,-0.29 -7.77,-0.11 -1.78,0.15 -1.23,0.06 -2.79,0.49l-3.11 1.28c-5.39,1.53 -11.33,0.1 -16.74,1.89 -3.87,1.27 -8.92,0.78 -13.15,2.19 -3.41,1.14 -10.54,0.43 -13.82,1.52l-10.14 1.92c-2.93,0.78 -0.83,1.32 -5.96,1.71 -2.98,0.23 -4.21,-0.36 -7.22,0.46 -0.27,0.08 -0.52,0.21 -0.8,0.31l-83.75 19.24c-0.32,0.08 -0.6,0.14 -0.89,0.22 -0.29,0.07 -0.57,0.18 -0.84,0.27l-3.21 1.17c-1.26,0.41 -2.45,0.8 -3.29,1.08l-1.6 0.59c-0.29,0.1 -0.55,0.19 -0.84,0.26l-104.32 35.97c-0.23,0.11 -0.49,0.28 -0.72,0.38l-35.05 15.34c-0.32,0.15 -1.22,0.54 -1.55,0.66l-70.11 35.1c-0.82,0.41 -2.08,1.04 -2.93,1.46l-32.1 19.41c-0.23,0.12 -0.52,0.24 -0.75,0.34l-12.21 7.52c-1.24,0.92 -1.78,1.45 -2.49,1.89l-83.97 61.79c-1.26,0.74 -0.73,0.26 -2.16,1.14 -4.12,2.58 -6.13,6.84 -10.29,9.45l-2.87 1.52c-3.52,2.21 -6.7,6.26 -9.54,9.09 -13.79,13.83 -9.49,8.22 -16.46,14.22 -8.25,7.08 -15.36,15.44 -22.98,23.04l-21.89 24.15c-4.39,4.28 -9.8,8.35 -12.81,13.49l-5.3 6.76c-2.93,2.87 -5.79,5.07 -7.85,8.59 -0.12,0.21 -0.26,0.51 -0.37,0.74l-7.11 8.21c-2.38,3.07 1.31,-2.18 -0.89,1.31l-27.59 35.97c-1.27,1.59 -0.32,0.35 -1.29,1.99 -0.14,0.22 -0.26,0.51 -0.37,0.73l-19.72 29.6c-0.95,1.27 -0.71,0.81 -1.4,1.87l-17.58 28.46c-0.4,0.85 -1,2.06 -1.52,2.87l-14.22 24.15c-0.44,0.9 -0.77,1.56 -1.1,2.19l-5.1 10.24c-0.41,0.83 -1.04,2.09 -1.47,2.92l-3.61 7.36c-0.95,1.72 -0.66,1.2 -1.73,2.64 -5.26,7 -7.21,15.16 -11.1,22.88 -0.22,0.48 -0.49,1 -0.72,1.48l-26.46 61.2c-0.09,0.28 -0.2,0.56 -0.29,0.81 -0.09,0.28 -0.2,0.56 -0.29,0.82 -0.09,0.26 -0.21,0.54 -0.31,0.81l-0.53 1.64c-0.1,0.28 -0.17,0.57 -0.26,0.84l-12.64 35.59c-0.1,0.28 -0.19,0.56 -0.26,0.83 -0.47,1.42 -0.69,2.24 -1.07,3.34l-0.87 2.41c-0.4,1.24 -0.61,2.09 -1.03,3.35l-6.55 21.93c-0.07,0.29 -0.18,0.55 -0.27,0.83 -0.08,0.27 -0.21,0.54 -0.29,0.81l-4.1 14.55c-0.11,0.34 -0.48,1.24 -0.6,1.59l-7.1 25.76c-0.3,1.31 -0.19,1.71 -0.43,2.87l-5.67 23.9c-1.95,6.38 -1.84,14.4 -3.72,20.39l-3.73 19.29c-0.72,5.08 -1.92,4.38 -2.07,9.98 -0.2,6.98 -2.02,6.41 -2.2,13.15 -0.2,6.92 -2.24,6.36 -2.27,13.07 -0.06,12.72 -0.84,8.25 -1.89,13.46l-1 9.96c-2.13,6.46 -0.16,15.07 -1.89,21.12l-0.96 2.32c-1.66,4.87 -0.09,10.6 -0.83,15.62 -1.26,8.73 -2.32,-0.5 -2.12,20.89 0.09,11.47 -0.92,8.34 -1.99,13.36 -2.51,11.66 2.08,29.55 -0.44,41.21 -1.1,5.15 -0.21,0.2 -1.2,3.18 -2.36,7.02 -0.72,62.29 -0.76,75.95l0.21 10.75c1.11,5.15 0.21,0.2 1.21,3.17 4.34,12.87 -1.95,31.42 0.99,45.05 1.33,6.2 0.81,-1.91 1.92,5.75 0.27,1.82 0.06,5.58 0.06,7.61z"/>
   <path class="fil2" d="M7701.55 4681.15c-1.49,0 -2.73,-0.1 -4.19,0.2 -4.94,1 -12.84,5.82 -17.76,8.53 -1.73,0.96 -1.21,0.66 -2.65,1.73 -1.08,0.82 -1.94,1.6 -2.45,1.92l-5.85 2.92c-1.74,0.95 -1.22,0.68 -2.66,1.74l-17.58 13.1c-4.4,3.42 -8.26,9.74 -13.36,12.95 -2.71,1.67 -5.47,2.97 -7.27,5.88l-16.47 19.71c-0.12,0.2 -0.26,0.49 -0.38,0.7l-12.38 16.1c-0.13,0.21 -0.26,0.51 -0.39,0.72l-10.08 15.12c-5.33,7.26 -10.32,16.99 -14.37,25.08l-1.46 2.92c-0.68,1.36 -0.22,0.41 -0.74,1.47 -0.15,0.3 -0.57,1.15 -0.72,1.46l-2.93 5.85c-0.11,0.21 -0.26,0.49 -0.36,0.72 -0.12,0.23 -0.26,0.51 -0.37,0.74l-1.49 2.9c-0.1,0.21 -0.27,0.48 -0.37,0.7l-5.45 13.2c-0.11,0.21 -0.26,0.49 -0.37,0.72l-2.76 7.08c-0.1,0.29 -0.17,0.59 -0.26,0.86 -0.09,0.26 -0.19,0.56 -0.29,0.81l-5.29 13.34c-0.41,1.26 -0.63,2.1 -1.03,3.34l-0.87 2.42c-0.09,0.27 -0.22,0.54 -0.29,0.81l-5.42 16.5c-0.09,0.27 -0.2,0.55 -0.29,0.81l-1.94 5.75c-0.09,0.26 -0.2,0.54 -0.29,0.79l-9.65 37.49c-0.66,2.54 -0.27,2.52 -0.52,4.96 -0.48,4.73 -1,2.29 -1.92,6.85l-1.66 11.5c-1.15,3.51 -0.32,7.95 -1.53,11.62l-2.85 19.06c-0.79,2.3 -0.53,0.33 -0.82,3.58 -0.46,5.39 0.98,12.04 -0.17,17.35 -0.98,4.47 -1.61,2 -2.02,6.76 -0.69,7.93 -0.86,75.56 1.14,81.14l1.16 5.41c0.2,4.62 -0.16,13.18 1.02,16.51 1.14,3.21 0.51,12.01 1.15,16.39 1.16,8.02 1,-1.38 2.06,6.7 0.42,3.12 -0.34,4.99 0.54,8.23l7.51 35.23c0.09,0.28 0.2,0.54 0.29,0.83 2.34,8.7 3.64,17.77 6.54,26.31l2.23 6.56c0.09,0.28 0.18,0.56 0.26,0.83 0.09,0.28 0.16,0.57 0.26,0.85l1.09 3.28c0.09,0.28 0.21,0.54 0.3,0.82l1.32 4.16c0.08,0.27 0.2,0.54 0.29,0.81l11.94 32.99c0.15,0.31 0.6,1.14 0.75,1.43l13.16 28.49c0.13,0.23 0.26,0.5 0.36,0.74l3.16 5.6c4.03,5.36 5.8,11.14 9.76,16.55l1.69 2.68c0.12,0.2 0.28,0.5 0.39,0.71l1.3 1.97c3.21,4.36 5.15,9.43 8.74,13.19l7.87 11.86c2.27,3.58 -1.58,-1.86 0.89,1.31l7.88 9.64c4.04,6.44 14.83,15.26 20.05,20.49 4.26,4.24 8.32,9.73 13.53,12.78l7.39 5.76c0.2,0.14 0.48,0.29 0.68,0.42l6.89 5.16c0.25,0.22 0.95,0.8 1.2,1 0.2,0.13 0.48,0.3 0.68,0.41 0.21,0.14 0.49,0.28 0.7,0.39l2.14 1.17c0.2,0.12 0.46,0.3 0.66,0.43l5.19 3.56c0.23,0.12 0.52,0.25 0.75,0.34l4.41 2.18c0.23,0.11 0.49,0.25 0.72,0.36l1.48 0.74c0,0 1.44,0.72 1.45,0.72l1.46 0.73c0.23,0.11 0.51,0.26 0.74,0.36l2.19 1.09c0.23,0.12 0.51,0.26 0.74,0.37l4.38 2.2c0.23,0.1 0.49,0.24 0.72,0.35l9.54 4.72c0.26,0.1 0.55,0.2 0.81,0.29l17.01 4.91c3.34,0.89 2.08,-0.97 3.33,2.15 3.39,1.37 2.03,2.55 3.32,6.56l0.55 1.62c0.09,0.29 0.18,0.57 0.26,0.85l19.58 49.47c0.43,0.89 0.87,1.65 1.14,2.16 0.11,0.23 0.26,0.51 0.35,0.72l0.74 1.46c0.45,0.91 0.75,1.52 1.09,2.2 0.13,0.22 0.26,0.5 0.37,0.73 0.11,0.23 0.26,0.5 0.36,0.72l13.15 28.51c0.3,0.62 0.67,1.35 1.09,2.2 0.11,0.23 0.26,0.5 0.36,0.72l7.31 16.82c0.1,0.22 0.26,0.5 0.35,0.73l20.83 39.46c0.11,0.23 0.24,0.51 0.36,0.74 0.1,0.24 0.24,0.52 0.34,0.75l5.89 9.44c0.16,0.31 0.57,1.17 0.73,1.48l36.28 60.15c1.12,1.51 0.41,0.38 1.35,1.93l30.64 46.09c0.12,0.2 0.26,0.5 0.37,0.71l0.78 1.43c0.12,0.19 0.29,0.47 0.42,0.67l4.62 5.23c0.92,1.45 0.39,0.88 1.14,2.16 1,1.68 0,0.39 1.28,2l27.21 35.26c0.98,1.66 0.02,0.4 1.28,2.01l7.49 8.96c2.24,3.84 5.87,5.83 8.02,9.52l12.76 14.62c0.14,0.21 0.28,0.51 0.39,0.72l1.14 2.15c2.85,4.55 8.2,8.28 11.87,12.22l1.94 2.46c0.13,0.2 0.27,0.49 0.38,0.71 0.12,0.21 0.26,0.51 0.37,0.72 0.13,0.21 0.26,0.51 0.37,0.72 0.13,0.21 0.26,0.49 0.39,0.71l22.25 22.68c0.36,0.34 0.92,0.85 1.68,1.61l33.36 35.68c0.32,0.28 1.32,1.04 1.89,1.4 10.67,6.7 18.71,17.16 27.68,26.02 3.83,3.76 6.35,3.84 16.47,14.22 4.13,4.24 7.32,5.03 15.86,13.72l3.55 3.03c1.64,1.03 1.21,0.49 2.87,1.53 3.5,2.2 5.38,5.64 8.8,7.63 1.26,0.74 0.74,0.25 2.16,1.14 3.5,2.19 5.38,5.63 8.8,7.63l16.61 13c0.58,0.55 1.44,1.32 1.73,1.53l18.93 13.98c0.21,0.12 0.5,0.26 0.72,0.37 0.21,0.12 0.5,0.26 0.7,0.37 0.22,0.12 0.5,0.27 0.71,0.4 0.2,0.12 0.46,0.31 0.66,0.43l13.27 9.74c0.21,0.13 0.51,0.26 0.71,0.37l1.36 0.85c0.05,0.03 1.25,1.03 1.83,1.46 0.18,0.13 0.43,0.34 0.62,0.46 0.19,0.14 0.46,0.32 0.66,0.43l77.61 49.52c1.53,1.14 0.37,0.4 1.95,1.34 0.15,0.09 2.12,1.06 2.2,1.09 0.22,0.12 0.5,0.24 0.75,0.34 0.23,0.12 0.51,0.24 0.75,0.34l48.18 26.33c0.63,0.3 1.36,0.66 2.2,1.09 0.23,0.11 0.51,0.26 0.74,0.36 2.02,1.01 -0.57,-0.29 1.45,0.73 0.63,0.31 1.36,0.66 2.2,1.1 0.23,0.1 0.51,0.26 0.74,0.35l10.22 5.12c0.23,0.11 0.51,0.26 0.74,0.35l12.43 6.22c0.21,0.11 0.49,0.26 0.72,0.36 0.86,0.42 1.58,0.78 2.19,1.09l4.38 2.2c0.23,0.12 0.51,0.25 0.74,0.35l35.08 15.33c0.25,0.11 0.52,0.24 0.75,0.34 0.25,0.11 0.51,0.26 0.74,0.36 0.93,0.44 1.6,0.84 2.16,1.13l4.32 2.24c2.01,0.92 -0.03,0.14 2.36,0.94 1.26,0.43 1.42,0.36 2.58,0.72l7.52 3.43c0.23,0.12 0.51,0.27 0.72,0.37l2.93 1.47c0.25,0.11 0.53,0.21 0.79,0.32l1.65 0.54c1,0.33 1.48,0.38 2.54,0.73 0.27,0.1 0.55,0.2 0.81,0.29l7.4 2.46c0.25,0.11 0.53,0.25 0.75,0.36l30.18 11.47c1.02,0.33 1.49,0.42 2.52,0.77l83.3 26.3c18.21,4.91 36.95,8.55 54.97,14.06l42.3 8.11c2.32,0.74 -1.26,0.94 5.15,1.43 8.36,0.63 6.99,1.43 12.13,2.12l9.8 1.17c0.24,0.09 0.49,0.24 0.75,0.33 0.28,0.09 0.53,0.23 0.8,0.31 4.84,1.35 9.66,0.26 14.55,1.89 8.23,2.75 12.33,-2.61 14.59,2.96l15.34 0 6.65 7.59c0.2,0.13 0.48,0.3 0.68,0.41l10.27 8.36c0.2,0.14 0.46,0.32 0.66,0.43 0.21,0.14 0.49,0.29 0.71,0.4l14.6 7.31c0.23,0.11 0.5,0.26 0.73,0.36l4.91 1.68c0.27,0.09 0.55,0.18 0.83,0.26l3.22 1.15c0.28,0.09 0.56,0.18 0.83,0.27 12.29,4.07 22.01,2.72 37.1,2.52 5.95,-0.07 6.21,-1.01 11.45,-2.79l22.12 -9.68c0.23,-0.11 0.51,-0.23 0.73,-0.34l7.36 -5.79c0.2,-0.14 0.48,-0.31 0.68,-0.42l14.96 -14.62c3.73,-6.23 8.28,-11.49 11.35,-18.26l8.06 -43.59c-0.13,-3.28 -4.01,-19.89 -6.26,-24.43l-10.33 -20.35 -8.15 -8.29c-3.29,-3.29 -5.51,-5.45 -8.75,-8.77l-9.93 -7.63c-1.42,-1.06 -0.93,-0.8 -2.64,-1.74l-21.36 -8.21c-11.52,-3.02 -26.53,-5.18 -38.68,-1.31l-5.48 1.08c-0.3,0.07 -0.58,0.13 -0.89,0.23l-13.99 4.62c-6.56,2.41 -11.62,7.22 -17.54,10.97 -3.62,2.3 1.91,-1.61 -1.3,0.89 -3.37,2.62 -8.86,7.2 -10.4,11.5l-8.77 0c-1.16,-2.84 0.07,-1.58 -3.27,-2.21 -1.16,-0.23 -5.18,0.11 -6.66,0.08 -9.47,-0.25 -1.22,-1.88 -10.88,-2.27 -5.17,-0.22 -6.44,-1.49 -11.05,-2.11l-61.61 -11.81c-5.4,-1.66 -7.63,-2.92 -13.97,-3.56l-6.59 -1.08c-0.28,-0.09 -0.54,-0.23 -0.8,-0.32l-29.8 -8.54c-0.26,-0.09 -0.52,-0.23 -0.8,-0.3 -0.29,-0.1 -0.55,-0.19 -0.84,-0.26 -1.69,-0.45 -1.28,-0.23 -2.79,-0.51l-15.9 -4.91c-0.26,-0.1 -0.54,-0.22 -0.8,-0.31l-48.44 -16.23c-0.26,-0.09 -0.56,-0.17 -0.85,-0.26 -1,-0.33 -1.47,-0.39 -2.53,-0.75l-24.3 -9.67c-0.26,-0.1 -0.54,-0.19 -0.82,-0.29l-5.8 -1.86c-0.26,-0.09 -0.54,-0.19 -0.82,-0.29l-12.22 -5.31c-0.23,-0.11 -0.49,-0.26 -0.72,-0.36l-15.39 -6.54c-0.23,-0.11 -0.51,-0.26 -0.74,-0.35l-1.44 -0.76c-0.2,-0.09 -2.13,-1.09 -2.16,-1.1l-43.89 -19.7c-0.23,-0.1 -0.5,-0.24 -0.73,-0.35l-5.12 -2.55c-0.23,-0.13 -0.51,-0.26 -0.72,-0.37l-5.87 -2.91c-0.21,-0.12 -0.48,-0.28 -0.67,-0.41l-11.73 -6.91c-0.22,-0.11 -0.5,-0.26 -0.73,-0.36l-2.92 -1.47c-0.23,-0.11 -0.51,-0.24 -0.74,-0.36 -0.22,-0.1 -0.5,-0.26 -0.73,-0.35l-46.05 -26.28c-6.11,-2.97 -10.66,-7.69 -16.78,-10.62l-44.38 -29.04c-1.66,-1.34 -0.89,-0.89 -1.66,-1.65l-3.65 -2.91c-1.23,-0.75 -0.76,-0.29 -2.14,-1.17l-13.21 -9.79c-6.68,-3.93 -12.29,-9.99 -18.98,-13.9l-14.67 -11.63c-0.09,-0.09 -1.22,-1.29 -1.6,-1.69l-21.7 -17.74c-4.73,-2.98 -7.27,-8.05 -11.8,-11.2 -0.2,-0.13 -0.48,-0.3 -0.67,-0.41l-3.55 -1.95c-6.35,-4.41 -14.96,-14.69 -20.89,-20.75l-6.94 -5.14c-0.2,-0.12 -0.48,-0.29 -0.67,-0.41 -0.28,-0.2 -1.2,-0.98 -1.77,-1.52l-6.53 -6.62c-5.47,-5.47 -20.4,-18.37 -24.29,-25.02 -0.73,-1.26 -0.24,-0.74 -1.12,-2.17l-4.17 -4.59c-0.95,-0.94 -1.07,-1.06 -1.66,-1.64l-14.81 -14.81c-0.52,-0.51 -1.64,-1.56 -1.67,-1.59 -0.83,-0.86 -0.32,-0.06 -1.6,-1.69 -1.24,-1.62 -0.3,-0.35 -1.27,-2.02l-4.18 -5.68c-0.77,-0.77 -1.32,-1.28 -1.68,-1.63l-4.94 -4.93c-4.53,-4.41 -7.27,-9.49 -12.09,-14.22l-24.06 -30.73c-1.34,-1.41 -2.06,-1.87 -3.08,-3.48l-35.46 -48.93c-0.14,-0.21 -0.26,-0.5 -0.39,-0.72l-1.21 -2.07c-0.03,-0.05 -1.03,-1.25 -1.46,-1.83l-7.77 -11.95c-0.45,-0.6 -1.43,-1.74 -1.48,-1.8l-34.09 -56.88c-0.12,-0.22 -0.26,-0.5 -0.36,-0.72l-4.36 -8.8c-0.12,-0.21 -0.29,-0.48 -0.42,-0.67l-23.72 -45.34c-0.1,-0.23 -0.24,-0.5 -0.35,-0.72l-23.03 -50.4c-0.09,-0.18 -1.1,-2.13 -1.12,-2.18l-4.71 -11.7c-0.11,-0.25 -0.23,-0.53 -0.32,-0.79l-11.48 -30.18c-0.37,-1.17 -0.32,-1.33 -0.73,-2.55l-4.72 -11.73c-0.09,-0.26 -0.2,-0.54 -0.29,-0.8l-8.2 -24.7c-0.09,-0.26 -0.2,-0.54 -0.29,-0.81l-8.8 -28.46c-0.09,-0.26 -0.21,-0.53 -0.3,-0.8l-1.57 -7.2c-0.07,-0.29 -0.18,-0.56 -0.26,-0.85l-4.14 -14.48c-0.08,-0.29 -0.2,-0.54 -0.28,-0.83l-10.93 -46.06c-0.09,-0.26 -0.24,-0.51 -0.32,-0.78l-2.55 -9.51c-1.02,-3.35 -0.43,-2.24 -0.8,-5.78 -0.63,-6.05 -0.67,-2.93 -1.38,-5.19 -1.98,-6.28 -2.19,-17.91 -3.72,-22.58 -0.78,-2.35 -0.95,1.34 -1.43,-5.15l-2.18 -16.45c-0.38,-9.61 -1.98,-1.41 -2.27,-10.88l-1.67 -11.48c-1.11,-3.93 -0.22,-8.6 -0.37,-12.77 -0.39,-9.48 -1.96,-1.33 -2.36,-10.8 -0.18,-4.5 0.6,-11.98 -0.67,-15.76 -0.09,-0.26 -0.25,-0.51 -0.33,-0.77 -2.59,-7.25 -0.21,-18 -2.53,-24.88 -4.1,-12.16 2.68,-38.58 -1.52,-51.07 -2.04,-6.06 -1.43,-10.67 -1.43,-18.29 0,-7.82 -1.55,-18.73 0.75,-25.54 1.02,-3.03 0.46,2.14 1.38,-4.12 2.31,-15.64 -3.44,-35.43 1.49,-50.02 0.09,-0.26 0.23,-0.53 0.31,-0.8 1.66,-5.87 0.12,-13.32 0.37,-19.35 0.4,-9.46 1.95,-1.34 2.35,-10.8 0.17,-3.8 -0.55,-9.63 -0.03,-13.18 0.87,-5.93 2.18,-3.72 2.21,-9.85l1.37 -11.78c1.55,-4.62 0.04,-7.7 0.98,-12.18 1.35,-6.43 0.4,1.63 1.75,-4.82 0.43,-2.09 0.17,-4.28 0.18,-6.39 0.02,-3.52 -0.12,-2.99 0.8,-5.78l5.56 -27.32c0.46,-2.27 0.08,-3.78 0.52,-6.05l5.2 -24.39c0.09,-0.26 0.24,-0.51 0.32,-0.79l7.08 -30.19c0.3,-1.31 0.2,-1.68 0.41,-2.86l6.96 -25.92c0.08,-0.29 0.18,-0.57 0.26,-0.85 0.11,-0.34 0.49,-1.26 0.6,-1.59 0.18,-0.54 0.51,-1.49 0.84,-2.46l3.55 -12.88c0.09,-0.28 0.21,-0.54 0.3,-0.8l4.4 -13.14c0.34,-1.03 0.43,-1.5 0.76,-2.52l31.22 -84.96c0.13,-0.31 0.53,-1.2 0.66,-1.54l16.46 -37.23c0.12,-0.23 0.26,-0.49 0.37,-0.72l3.17 -6.7c0.41,-1.26 0.34,-1.43 0.7,-2.58l7.81 -16.3c1.27,-2.53 -1.05,2.11 0.74,-1.46l2.55 -5.11c0.12,-0.23 0.25,-0.51 0.37,-0.72l22.16 -40.31c0.14,-0.18 0.33,-0.45 0.45,-0.64 0.13,-0.2 0.3,-0.48 0.41,-0.68l0.75 -1.44c0.13,-0.23 0.25,-0.53 0.36,-0.75l3.58 -7.38c0.12,-0.21 0.27,-0.49 0.38,-0.7l9.85 -15.36c0.78,-1.22 0.4,-0.62 1.17,-2.12l18.83 -30.49c0.19,-0.27 0.79,-0.95 0.99,-1.2l0.91 -1.29c0.13,-0.2 0.29,-0.49 0.4,-0.69l20.13 -29.2c0.12,-0.21 0.26,-0.51 0.37,-0.7 0.13,-0.22 0.28,-0.5 0.41,-0.71 0.12,-0.2 0.3,-0.46 0.43,-0.66l10.1 -14.01c0.12,-0.2 0.26,-0.49 0.39,-0.7l13.15 -17.54c0.34,-0.56 1.14,-1.6 1.39,-1.89l24.91 -30.98c2.98,-4.75 8.05,-7.27 11.2,-11.8l1.95 -3.55c4.51,-7.19 12.8,-11.56 17.15,-19.02l11.13 -11.87c8.41,-8.4 51.23,-53.02 57.2,-56.78l7.46 -5.69c4.1,-4.2 7.88,-9.26 12.97,-12.23 0.21,-0.13 0.51,-0.26 0.72,-0.38 0.23,-0.12 0.51,-0.24 0.74,-0.37 3.44,-2.01 6.31,-5.54 9.11,-8.4l9.38 -7.05c0.11,-0.11 1.49,-1.55 1.63,-1.68 0.46,-0.48 0.81,-0.83 1.62,-1.66l21.88 -17.57c0.56,-0.54 1.5,-1.34 1.76,-1.52 0.2,-0.14 0.48,-0.3 0.68,-0.42l28.45 -20.88c0.19,-0.12 0.47,-0.28 0.69,-0.4l27.8 -19.32c0.21,-0.13 0.49,-0.28 0.69,-0.41 0.2,-0.12 0.46,-0.3 0.66,-0.43l5.91 -3.95c0.2,-0.12 0.47,-0.3 0.66,-0.43 0.08,-0.04 1.23,-1.01 1.83,-1.46l23.5 -14.85c1.38,-1.04 0.75,-0.7 1.86,-1.42l29.95 -17.19c0.23,-0.11 0.51,-0.25 0.74,-0.34l21.9 -12.09c0.21,-0.12 0.49,-0.26 0.72,-0.37l21.92 -12.06c0.86,-0.41 1.58,-0.78 2.2,-1.09l27.78 -12.76c0.23,-0.12 0.49,-0.28 0.72,-0.37l1.46 -0.74c0.23,-0.12 0.49,-0.26 0.72,-0.37l25.59 -11.66c0.22,-0.12 0.5,-0.27 0.73,-0.37l22.65 -9.13c0.24,-0.1 0.52,-0.24 0.75,-0.34l10.21 -4.04c0.25,-0.1 0.53,-0.24 0.76,-0.34l35.11 -13.12c0.26,-0.09 0.54,-0.19 0.81,-0.28l15.67 -5.15c0.27,-0.09 0.55,-0.18 0.83,-0.28l26.28 -8.78c0.26,-0.09 0.52,-0.21 0.8,-0.3l85.1 -21.2c2.52,-0.36 1.6,-0.33 2.65,-0.65 0.26,-0.09 0.5,-0.24 0.78,-0.32 0.26,-0.09 0.51,-0.24 0.78,-0.32 0.28,-0.09 0.54,-0.19 0.81,-0.29l6.35 -1.32c5.42,-1.7 9.85,-1.24 14.73,-2.81 3.36,-1.07 2.18,-0.43 5.76,-0.81 6.13,-0.63 2.86,-0.63 5.18,-1.4 2.79,-0.92 2.27,-0.78 5.77,-0.79l17.31 -2.42c6.47,-1.29 -1.55,-0.34 4.87,-1.7 3.74,-0.8 8.99,0.35 12.72,-0.44 3.44,-0.73 5.81,-2.07 11.18,-1.96 2.04,0.03 4.37,0.2 6.35,-0.23 6.39,-1.37 -1.57,-0.37 4.82,-1.75 5.24,-1.13 12.64,0.84 17.95,-0.68 0.28,-0.08 0.54,-0.21 0.8,-0.3 7.56,-2.56 19.38,0.21 27.07,-2.52l1.54 -0.65c6.67,-1.89 31.35,-0.52 39.02,-0.43 1.66,0.01 5.02,0.14 6.5,-0.08l4.91 -1.67c5.84,-1.67 37.49,-1.05 41.51,0.3 11.26,3.8 35.58,0.83 47.97,1.35 7.91,0.34 0.36,2.29 24.1,2.21 9.89,-0.01 1.27,1.89 23.04,2.18 3.41,0.05 3.04,-0.06 5.73,0.84 8.97,3.03 11.55,0.19 17.54,2.2 2.32,0.78 -1.29,0.95 5.1,1.47 4.05,0.34 8.81,-0.48 12.43,0.72 5.7,1.92 6.62,0.68 11.48,1.67 4.98,1 2.09,1.27 11.19,1.96 7.26,0.54 4.07,1.66 9.86,2.2l26.6 5.17c0.28,0.08 0.52,0.23 0.78,0.32l21.97 4.34c0.26,0.09 0.51,0.24 0.78,0.32l63.34 16.66c0.27,0.09 0.55,0.2 0.81,0.29 1.26,0.43 0.34,0.15 1.61,0.59 1.25,0.43 3.74,1.23 4.95,1.64l24.36 7.41c0.27,0.1 0.55,0.19 0.83,0.28l11.51 3.82c0.28,0.1 0.56,0.2 0.83,0.29 1.06,0.34 1.54,0.42 2.54,0.74l1.65 0.54c0.26,0.11 0.54,0.23 0.79,0.33l30.05 11.6c0.28,0.09 0.57,0.17 0.85,0.24l15.13 5.7c0.24,0.09 0.51,0.25 0.75,0.34l10.96 4.37c0.32,0.15 1.16,0.6 1.46,0.75l49.64 22.67c4.07,2.04 -2.59,-1.29 1.48,0.74l2.91 1.45c4.07,2.05 -2.59,-1.29 1.48,0.74l2.91 1.46c4.07,2.04 -2.59,-1.29 1.48,0.74l2.91 1.45c4.07,2.05 -2.59,-1.29 1.48,0.74l35.77 19.03c0.23,0.11 0.51,0.25 0.74,0.34l31.45 17.87c0.32,0.15 1.2,0.55 1.49,0.7l16.1 10.22c0.19,0.13 0.47,0.28 0.69,0.4l1.42 0.78c0.2,0.12 0.48,0.27 0.69,0.4 0.2,0.12 0.47,0.31 0.67,0.43l22.76 14.5c0.19,0.12 0.47,0.28 0.69,0.4l17.78 12.9c1.58,1.26 0.36,0.31 2,1.28l13.35 9.68c1.58,1.26 0.35,0.3 2,1.27 1.22,0.74 0.75,0.29 2.13,1.17 6.79,4.32 11.66,9.68 16.86,12.73l7.31 5.83c4.93,2.9 8.22,6.83 13.12,9.9 3.92,2.46 5.66,5.44 10.96,8.77l12.44 10.57c4.91,2.87 8.77,8.39 12.93,12.29l27.41 25.19c3.44,3.48 7.63,5.28 10.99,8.72l22.47 22.47c0.58,0.59 0.69,0.72 1.64,1.66 4.9,4.77 6.25,8.43 13.7,15.88 6.58,6.59 13.41,12.27 18.3,20.07 0.86,1.38 1.84,2.37 3.03,3.53 8.55,8.44 9.15,11.49 15.37,17.51 3.44,3.32 5.27,7.59 8.74,10.99l28.7 35.95c0.76,1.28 0.23,0.71 1.14,2.17l5.44 6.6c0.14,0.21 0.26,0.51 0.39,0.72 0.12,0.22 0.25,0.51 0.37,0.72 0.12,0.2 0.27,0.48 0.4,0.7 0.12,0.19 0.3,0.46 0.43,0.66l34.33 50.05c0.14,0.18 0.34,0.43 0.46,0.62 0.14,0.19 0.32,0.46 0.43,0.66l1.6 2.81c0.57,0.88 2.29,2.9 2.82,3.73l9.5 16.82c1.15,2.13 0.52,1 1.26,2.04l12.29 20.58c0.12,0.23 0.25,0.51 0.35,0.74l0.71 1.47c0.15,0.31 0.57,1.18 0.72,1.49l14.65 26.99c0.12,0.21 0.26,0.49 0.37,0.72 0.37,0.78 0.83,1.66 1.08,2.21l50.46 111.74c0.09,0.26 0.21,0.54 0.32,0.78l1.87 3.61c0.11,0.24 0.26,0.51 0.34,0.75l4.7 13.93c0.11,0.23 0.27,0.49 0.37,0.72l3.11 7.85c0.09,0.28 0.19,0.56 0.29,0.83 0.09,0.26 0.19,0.54 0.28,0.8l11.23 35.91c0.09,0.26 0.22,0.54 0.31,0.8l1.92 5.74c0.4,1.17 0.84,2.7 1.33,4.15l0.91 2.38c0.52,1.74 0.23,0.57 0.63,2.66l9.65 37.47c0.1,0.34 0.47,1.26 0.6,1.6l4.7 18.31c0.63,2.32 0.4,3.23 1.03,5.54l2.43 11.81c1.47,4.81 3.21,8.45 3.62,13.91l4.38 28.5c0.57,7.47 2.01,4.43 2.19,10.96 0.2,6.51 1.66,3.47 2.23,10.93 0.51,6.62 -0.65,5.62 1.41,11.74 1.26,3.76 0.03,7.49 2.49,16.14 1.57,5.51 -0.3,12.96 1.55,18.18 2.5,6.99 -0.3,17.11 2.19,24.11 0.36,1 0.17,-0.93 0.89,2.4 2,9.25 -1.92,19.8 0.68,28.91l1.68 4.9c0.53,3.67 1,96.23 -0.17,101.66 -0.72,3.34 -0.52,1.4 -0.89,2.4l-1.17 5.41c-0.34,8.11 1.58,17.09 -0.14,25.07 -1.38,6.37 -0.37,-1.57 -1.75,4.82 -1.21,5.65 0.81,13.47 -0.43,19.29 -1.38,6.37 -0.37,-1.58 -1.75,4.82 -0.77,3.56 0.15,9.22 -0.19,12.97 -0.54,6.36 -0.69,2.79 -1.47,5.1 -1.2,3.59 -0.15,8.21 -0.98,12.17 -1.35,6.44 -0.4,-1.62 -1.75,4.83 -0.95,4.45 0.57,7.54 -0.98,12.17 -1.51,4.46 -0.8,5.12 -1.52,10.54 -0.42,3.27 -0.29,1.41 -0.68,2.6 -0.09,0.27 -0.26,0.51 -0.34,0.77 -1.34,3.81 -0.54,6.86 -1.32,10.73l-12.44 56.6c-2,7.77 0.44,3.69 -3.5,15.13l-11.52 43.28c-0.09,0.28 -0.2,0.56 -0.29,0.81 -0.34,1.04 -0.43,1.51 -0.77,2.52 -0.09,0.28 -0.18,0.56 -0.27,0.83l-2.21 6.56c-0.09,0.26 -0.22,0.54 -0.31,0.8l-2.12 8.84c-0.09,0.28 -0.21,0.54 -0.3,0.8l-16.23 46.24c-0.33,1.03 -0.43,1.5 -0.77,2.52 -0.09,0.27 -0.2,0.55 -0.29,0.81l-6.54 17.58c-0.09,0.26 -0.22,0.54 -0.32,0.79l-1.11 2.18c-0.11,0.22 -0.28,0.47 -0.39,0.7l-3.27 8.79c-0.9,2.9 -0.72,2.33 -0.72,5.85 4.87,0 10.06,-0.77 14.59,0.77 7.76,2.61 41.51,1.96 52.35,1.5 9.52,-0.4 1.55,-1.21 8.74,-2.21 5.08,-0.71 8.61,-0.12 12.76,-1.49l37.31 -8.74c1.16,-0.38 1.95,-0.57 3.36,-1.01l13.39 -5.24c0.25,-0.09 0.51,-0.25 0.75,-0.34l2.89 -1.49c3.23,-1.66 -1.78,0.9 1.46,-0.74l56.17 -34.8c4.9,-3.39 29.98,-28.86 33.34,-34.6 0.98,-1.68 0.02,-0.41 1.28,-2.03 1.66,-2.15 0.42,-0.56 2.15,-2.23l5.34 -6.71c1,-1.69 -0.01,-0.38 1.28,-2.01 2.12,-2.66 0.52,-0.43 2.19,-2.2l15.12 -22.14c0.8,-1.22 0.4,-0.65 1.17,-2.12 0.12,-0.23 0.24,-0.52 0.34,-0.75 0.12,-0.23 0.26,-0.51 0.35,-0.74 0.11,-0.23 0.25,-0.51 0.36,-0.74l3.26 -6.6c0.12,-0.21 0.28,-0.48 0.41,-0.69l6.17 -10.26c0.13,-0.23 0.26,-0.51 0.38,-0.74l1.81 -3.65c0.12,-0.23 0.26,-0.51 0.37,-0.74l5.84 -11.67c0.1,-0.23 0.26,-0.51 0.35,-0.74l2.24 -4.33c0.11,-0.23 0.26,-0.51 0.36,-0.74l4.38 -10.97c0.11,-0.23 0.24,-0.51 0.34,-0.73 0.11,-0.26 0.23,-0.54 0.32,-0.79l26.3 -87.67c1.24,-3.84 0.18,-6.99 1.23,-10.84 0.07,-0.27 0.21,-0.52 0.3,-0.8 1.48,-4.47 0.72,-8.71 2.2,-13.15 1.35,-4.11 1.06,-7.46 1.39,-11.75 0.71,-9.12 1.48,0.45 2.28,-8.69 0.53,-6.33 -0.35,-13.21 1.38,-18.34 0.89,-2.63 2.09,-68.57 0.54,-75.74 -1.2,-5.62 -0.95,0.87 -1.92,-5.75 -0.76,-5.14 0.43,-11.33 0,-16.42 -0.8,-9.05 -1.07,0.06 -2.2,-7.68 -0.4,-2.84 0.24,-6.94 0,-9.85 -0.77,-9.09 -1.09,0.1 -2.18,-7.68 -0.54,-3.84 0.45,-7.37 -0.83,-11.24l-20.34 -80.47c-0.09,-0.27 -0.21,-0.54 -0.28,-0.81l-5.17 -13.47c-0.09,-0.27 -0.18,-0.57 -0.27,-0.84 -0.09,-0.26 -0.2,-0.54 -0.29,-0.82l-5.99 -15.91c-0.09,-0.29 -0.17,-0.57 -0.26,-0.84l-0.6 -1.61c-0.09,-0.25 -0.24,-0.51 -0.34,-0.75l-3.69 -7.27c-0.11,-0.23 -0.26,-0.51 -0.35,-0.72l-1.46 -2.93c-0.12,-0.23 -0.26,-0.51 -0.37,-0.74 -0.11,-0.23 -0.26,-0.51 -0.36,-0.72l-0.74 -1.47c-0.1,-0.23 -0.25,-0.51 -0.35,-0.73 -0.98,-1.95 0,0 -0.74,-1.47l-1.09 -2.19c-0.11,-0.23 -0.26,-0.51 -0.36,-0.73l-0.73 -1.47c-0.11,-0.23 -0.26,-0.51 -0.36,-0.72l-1.83 -3.66c-0.1,-0.23 -0.26,-0.51 -0.35,-0.72l-6.93 -13.92c-3.48,-7.03 -11.64,-18.07 -15.7,-24.85l-21.93 -28.46c-0.74,-1.26 -0.26,-0.73 -1.14,-2.16 -3.95,-6.3 -14.73,-15.06 -20.04,-20.51l-5.5 -4.36c-5.47,-3.11 -7.83,-6.88 -11.67,-9.14l-1.39 -0.81c-0.27,-0.19 -0.96,-0.79 -1.2,-1l-12.01 -8.82c-0.29,-0.16 -1.16,-0.56 -1.47,-0.72l-21.92 -10.96c-0.33,-0.12 -1.26,-0.49 -1.58,-0.63 -3.27,-1.41 -5.1,-3.18 -6.57,-6.58l-17.8 -55.6c-0.1,-0.26 -0.22,-0.54 -0.31,-0.81l-11 -28.45c-0.09,-0.26 -0.2,-0.54 -0.29,-0.81 -0.09,-0.27 -0.15,-0.57 -0.24,-0.84 -0.6,-1.89 -0.28,-1.48 -1,-3.4l-1.81 -3.66c-0.12,-0.22 -0.28,-0.49 -0.37,-0.72l-5.35 -13.3c-0.66,-1.95 -0.52,-2.32 -1.23,-4.24 -0.12,-0.33 -0.52,-1.23 -0.66,-1.55l-1.87 -3.6c-0.11,-0.23 -0.26,-0.51 -0.36,-0.72l-6.57 -15.35c-0.12,-0.23 -0.28,-0.51 -0.37,-0.72 -0.11,-0.18 -1.11,-2.13 -1.13,-2.18l-15.34 -32.88c-0.92,-2 -0.14,0.03 -0.95,-2.34 -0.49,-1.5 -0.45,-1.92 -0.97,-3.42 -0.07,-0.28 -0.18,-0.56 -0.27,-0.81l-6.92 -13.92c-0.11,-0.23 -0.25,-0.51 -0.36,-0.74 -0.69,-1.38 0.18,0.34 -0.74,-1.46l-13.51 -24.85c-0.11,-0.22 -0.26,-0.5 -0.36,-0.73l-13.88 -25.57c-0.11,-0.23 -0.26,-0.51 -0.36,-0.74l-9.49 -16.82c-0.12,-0.21 -0.29,-0.47 -0.4,-0.69 -0.14,-0.2 -0.32,-0.44 -0.45,-0.64l-4.97 -8.19c-0.15,-0.3 -0.59,-1.17 -0.75,-1.44l-4.79 -7.27c0,-0.01 -0.68,-1.5 -0.7,-1.51l-39.41 -59.21c-0.13,-0.22 -0.29,-0.5 -0.4,-0.71 -0.12,-0.2 -0.26,-0.49 -0.37,-0.71l-6.22 -8.03c-0.17,-0.29 -0.58,-1.17 -0.75,-1.46l-0.81 -1.38c-0.98,-1.37 -1.69,-1.8 -2.66,-2.81l-2.73 -3.84c-0.14,-0.21 -0.28,-0.51 -0.39,-0.72l-0.84 -1.35c-0.02,-0.03 -1.89,-2.42 -1.92,-2.45l-26.11 -34.18c-2.39,-3.82 -5.79,-6.24 -8.77,-10.96l-10.2 -11.72c-1.52,-2.66 -0.04,-0.87 -2.16,-3.32 -5.55,-6.43 -5.95,-5.51 -9.57,-11.26l-3.03 -3.54c-0.76,-0.75 -1.32,-1.26 -1.67,-1.61 -3.32,-3.26 -6.53,-6.58 -9.88,-9.85 -1.35,-1.31 -1.06,-0.84 -2.21,-2.18 -4.18,-4.84 -2.52,-4.91 -6.53,-8.81l-93.49 -89.52c-0.22,-0.12 -0.5,-0.29 -0.68,-0.42 -0.27,-0.18 -0.98,-0.76 -1.23,-0.98l-5.44 -5.51c-0.22,-0.23 -0.85,-0.89 -1.07,-1.11 -0.03,-0.04 -1.61,-1.66 -1.63,-1.67 -0.03,-0.03 -2.4,-1.89 -2.44,-1.92l-6.93 -5.14c-0.48,-0.49 -0.83,-0.82 -1.64,-1.66 -0.43,-0.44 -2.01,-2.12 -2.15,-2.24l-15.55 -11.83c-0.22,-0.12 -0.51,-0.26 -0.73,-0.38l-9.52 -8c-2.73,-1.57 -0.78,0.06 -3.3,-2.18 -2.21,-1.94 0.06,-0.51 -2.75,-2.75l-1.99 -1.28c-0.22,-0.13 -0.51,-0.26 -0.73,-0.37l-8.77 -6.57c-0.22,-0.12 -0.5,-0.26 -0.73,-0.37l-13.5 -10.6c-2.45,-2.17 -0.69,-0.66 -3.3,-2.2l-7.31 -4.74c-0.22,-0.12 -0.5,-0.26 -0.71,-0.39l-8.03 -6.2c-0.22,-0.14 -0.5,-0.29 -0.71,-0.4l-3.76 -2.81c-0.22,-0.12 -0.5,-0.28 -0.7,-0.39l-2.77 -1.62c-0.07,-0.05 -2.39,-1.89 -2.45,-1.94l-6.57 -4.38c-0.2,-0.12 -0.47,-0.3 -0.66,-0.43l-3.47 -2.01c-0.08,-0.05 -1.23,-1.02 -1.83,-1.46 -0.19,-0.14 -0.43,-0.34 -0.62,-0.48 -0.2,-0.12 -0.46,-0.3 -0.66,-0.43l-10.04 -6.39c-0.19,-0.14 -0.43,-0.33 -0.62,-0.47l-7.58 -4.47c-1.52,-0.76 -0.94,-0.38 -2.14,-1.17l-3.73 -2.84c-0.21,-0.12 -0.49,-0.27 -0.69,-0.4l-20.45 -12.42c-0.22,-0.13 -0.5,-0.25 -0.75,-0.34l-2.87 -1.52c-0.33,-0.22 -2.82,-2.24 -3.06,-2.42l-24.72 -13.62c-0.23,-0.11 -0.51,-0.26 -0.74,-0.36l-32.15 -17.17c-2.31,-1.14 1.73,0.87 -1.47,-0.72l-2.92 -1.48c-2.31,-1.13 1.73,0.88 -1.47,-0.72l-7.3 -3.66c-2.31,-1.13 1.73,0.88 -1.47,-0.72l-58.46 -27.03c-0.29,-0.15 -1.14,-0.59 -1.44,-0.74l-4.43 -2.16c-0.25,-0.09 -0.53,-0.2 -0.81,-0.29l-43.02 -17.25c-1.78,-0.69 -2.27,-0.65 -4.19,-1.28l-7.41 -2.47c-0.25,-0.09 -0.53,-0.21 -0.79,-0.31l-17.53 -6.59c-0.24,-0.1 -0.52,-0.21 -0.78,-0.32l-14.01 -4.62c-0.27,-0.09 -0.55,-0.18 -0.82,-0.27 -0.02,0 -1.68,-0.5 -1.7,-0.5l-18.61 -5.49c-0.26,-0.09 -0.52,-0.22 -0.8,-0.31l-21.12 -6.28c-0.26,-0.09 -0.54,-0.21 -0.8,-0.3l-13.7 -3.83c-0.27,-0.07 -0.52,-0.21 -0.8,-0.3l-13.72 -3.81c-0.25,-0.09 -0.52,-0.23 -0.79,-0.31l-25.54 -6.25c-0.34,-0.1 -1.22,-0.52 -1.57,-0.63l-16.48 -3.25c-0.29,-0.07 -0.57,-0.14 -0.87,-0.22l-2.37 -0.92c-2.66,-0.84 -1.29,-0.64 -4.7,-0.78 -6.04,-0.24 -7.7,-1.34 -12.07,-2.18 -0.34,-0.06 -0.65,-0.06 -0.98,-0.12l-2.61 -0.68c-0.28,-0.09 -0.53,-0.23 -0.79,-0.32 -1.44,-0.47 1.74,-0.33 -3.38,-1 -1.73,-0.23 -3.68,0.06 -5.42,-0.07 -8.84,-0.66 0.2,-1.22 -8.8,-2.15 -1.65,-0.17 -2.31,0.06 -4.08,-0.31 -0.32,-0.06 -0.59,-0.15 -0.87,-0.23 -0.29,-0.07 -0.54,-0.19 -0.82,-0.29l-14.68 -2.85c-3.9,-1.31 -10.97,-0.57 -14.59,-1.86 -5.21,-1.84 -7.96,-0.29 -16.9,-2.83 -5.16,-1.47 -10.82,0.29 -15.98,-1.56 -1.02,-0.36 0.96,-0.15 -2.4,-0.87 -5,-1.07 -10.24,0.41 -15.13,-1.32 -5.42,-1.94 -16.64,-0.22 -22.95,-1.14 -6.05,-0.89 -0.77,-2.27 -17.6,-2.14l-139.18 -2.21c-4.45,0 -9.59,-0.73 -13.79,0.47l-3.96 1.51c-5.32,1.14 -14.93,-0.55 -20.55,0.28 -7.72,1.12 1.35,1.4 -7.67,2.18 -2.63,0.23 -7.1,-0.03 -9.92,-0.05 -11.6,-0.09 -11.68,2.24 -18.56,2.27 -4.01,0.02 -7.36,-0.29 -11.01,1.02l-1.57 0.65c-5.13,1.45 -10.89,-0.28 -15.97,1.54 -1.11,0.39 1.03,0.16 -2.41,0.89 -5.27,1.1 -7.87,-0.3 -13.69,1.66 -3.87,1.29 -4.87,0.57 -9.16,0.69l-47.03 8.88c-5.18,0.54 2.16,-0.62 -1.97,0.23l-63.83 15.06c-0.33,0.08 -0.63,0.08 -0.96,0.14l-18.73 5.39c-0.27,0.09 -0.54,0.22 -0.79,0.31 -0.29,0.07 -0.56,0.18 -0.85,0.26l-21.75 5.65c-0.27,0.09 -0.54,0.21 -0.81,0.3l-3.24 1.12c-0.28,0.1 -0.57,0.17 -0.85,0.26l-23.77 8c-1.03,0.35 -1.51,0.44 -2.52,0.77 -0.28,0.09 -0.56,0.18 -0.83,0.28 -0.28,0.09 -0.56,0.19 -0.81,0.29 0,0 -1.61,0.58 -1.61,0.58l-17.31 5.7c-0.28,0.09 -0.56,0.2 -0.82,0.29l-4.97 1.61c-0.28,0.09 -0.57,0.17 -0.84,0.26 -0.28,0.09 -0.56,0.2 -0.82,0.29l-9.27 3.89c-0.28,0.07 -0.56,0.16 -0.83,0.25 -0.28,0.1 -0.56,0.2 -0.82,0.29 -0.34,0.13 -1.27,0.47 -1.62,0.59l-53.27 21.26c-3.35,1.7 1.92,-0.98 -1.46,0.73 -0.88,0.45 -2.02,1 -2.91,1.46l-21.92 9.86c-0.23,0.12 -0.51,0.26 -0.74,0.37 -0.22,0.11 -0.5,0.25 -0.73,0.36 -0.23,0.11 -0.51,0.26 -0.72,0.35l-19.02 8.39c-0.23,0.11 -0.49,0.26 -0.72,0.37 -0.23,0.11 -0.51,0.26 -0.72,0.36l-49.69 25.94c-0.23,0.11 -0.51,0.25 -0.74,0.34 -0.24,0.12 -0.52,0.26 -0.75,0.36l-6.58 4.38c-1.21,0.8 -0.63,0.4 -2.11,1.17 -0.23,0.1 -0.53,0.24 -0.76,0.34 -0.23,0.12 -0.5,0.24 -0.73,0.35 -0.23,0.11 -0.51,0.25 -0.74,0.36l-5.9 2.87c-0.21,0.12 -0.49,0.26 -0.71,0.38l-28.44 17.6c-0.23,0.11 -0.51,0.23 -0.74,0.34l-46.07 29.55c-0.22,0.13 -0.51,0.26 -0.71,0.39 -0.21,0.12 -0.51,0.26 -0.72,0.39 -0.2,0.12 -0.48,0.27 -0.69,0.38 -1.1,0.71 -0.6,0.45 -1.89,1.41l-23.55 16.99c-0.26,0.25 -2.28,1.88 -2.41,1.97l-29.17 21.26c-1.24,0.8 -2.1,1.69 -2.96,2.52l-3.66 2.91c-1.24,0.74 -0.72,0.25 -2.15,1.14 -1.21,0.77 -2.15,1.63 -2.99,2.48l-8.65 6.71c-0.48,0.33 -1.86,1.61 -2.31,2.06l-8.65 6.71c-3.61,2.49 -6.62,6.97 -9.91,9.8 -0.26,0.21 -0.96,0.8 -1.21,0.98l-2.84 1.56c-4.96,2.89 -7.63,8.2 -12.52,11.6l-4.21 2.37c-0.27,0.18 -1.2,0.98 -1.77,1.5l-23.14 21.8c-0.22,0.12 -0.51,0.25 -0.71,0.38 -0.2,0.12 -0.48,0.29 -0.68,0.42l-6.66 6.48c-7.31,7.33 -35.9,34.07 -40.46,40.64l-22.05 23.98c-3.15,3.21 -4.98,7.29 -11.46,13.75 -6.38,6.34 -6.88,9.23 -11.5,13.7 -1.1,1.06 -1.45,1.36 -2.8,2.69l-4.17 5.68c-0.13,0.21 -0.26,0.51 -0.39,0.72 -0.12,0.2 -0.29,0.48 -0.42,0.68 -2.87,4.11 -7.52,7.28 -10.15,11.75l-7.39 10.17c-0.18,0.26 -0.76,0.96 -0.98,1.21 -0.98,1.11 -1.26,1.2 -2.79,2.67 -1.2,1.16 -1.85,1.73 -2.63,2.86l-15.1 21.07c-0.12,0.2 -0.29,0.48 -0.41,0.66l-6.62 8.74c-0.03,0.05 -1.04,1.23 -1.46,1.82l-11.86 16.63c-0.14,0.21 -0.29,0.49 -0.4,0.69l-14.33 21.84c-0.32,0.48 -2.09,2.71 -2.37,3.11l-28.27 45.15c-0.25,0.51 -0.44,0.98 -0.69,1.51 -0.15,0.3 -0.55,1.18 -0.72,1.47l-6.6 10.93c-0.13,0.23 -0.26,0.5 -0.37,0.73 -0.11,0.22 -0.26,0.5 -0.36,0.73l-22.3 40.18c-0.11,0.23 -0.25,0.51 -0.34,0.74 -0.13,0.23 -0.26,0.51 -0.36,0.73l-5.48 10.96c-0.12,0.23 -0.26,0.51 -0.36,0.73 -0.12,0.23 -0.26,0.51 -0.37,0.73l-13.64 28c-0.58,1.86 -0.31,1.51 -1,3.39 -0.12,0.33 -0.52,1.23 -0.66,1.53 -0.01,0.05 -1.01,1.99 -1.12,2.18l-1.83 3.64c-0.15,0.31 -0.58,1.15 -0.74,1.46 -0.12,0.23 -0.25,0.51 -0.35,0.74l-10.65 23.33c-0.91,2.01 -0.13,-0.03 -0.95,2.35l-9.23 22.53c-0.12,0.23 -0.29,0.48 -0.38,0.71l-2.29 6.48c-0.09,0.27 -0.2,0.55 -0.29,0.81 -0.11,0.26 -0.23,0.54 -0.32,0.79 -0.11,0.24 -0.24,0.52 -0.35,0.75 -0.11,0.23 -0.26,0.49 -0.38,0.72l-5.83 16.06c-0.11,0.25 -0.25,0.53 -0.36,0.76l-3.75 9.38c-0.09,0.27 -0.21,0.55 -0.3,0.81l-1.89 5.78c-0.88,2.52 0.29,-0.94 -0.59,1.61l-1.32 4.16c-0.09,0.26 -0.2,0.54 -0.29,0.81l-5.05 12.48c-0.09,0.27 -0.19,0.55 -0.26,0.84l-9.49 31.06c-0.09,0.27 -0.19,0.55 -0.28,0.83l-1.66 6z"/>
   <path class="fil2" d="M8582.68 5312.41c0.17,-7.34 11.78,-13.82 15.75,-20.42l7.58 -11.05c0.12,-0.2 0.28,-0.49 0.4,-0.69 0.12,-0.21 0.26,-0.51 0.39,-0.71l5.81 -9.53c0.15,-0.31 0.55,-1.19 0.72,-1.48l23.93 -65.93c1.15,-5.39 -0.47,-12.32 1.32,-17.33 2.4,-6.73 1.98,-24.53 -0.34,-31.44 -1.64,-4.9 -0.15,-14.07 -1.85,-18.97 -0.35,-1.03 -0.15,0.98 -0.84,-2.44l-3.52 -17.33c-0.07,-0.26 -0.21,-0.52 -0.3,-0.78l-1.35 -4.13c-0.09,-0.28 -0.2,-0.56 -0.29,-0.81 -0.09,-0.28 -0.2,-0.54 -0.29,-0.82l-10.23 -27.05c-0.1,-0.21 -0.26,-0.49 -0.37,-0.72l-14.22 -24.13c-0.14,-0.21 -0.27,-0.5 -0.39,-0.72l-7.75 -10.85c-0.79,-1.13 -1.43,-1.7 -2.63,-2.86 -5,-4.81 -5.65,-7.73 -14.84,-16.96 -4.1,-4.13 -9.26,-6.88 -13.15,-10.96l-24.46 -17.18c-0.89,-0.43 -1.57,-0.78 -2.2,-1.09l-8.77 -4.38c-0.23,-0.1 -0.51,-0.26 -0.73,-0.35l-9.5 -4.76c-0.22,-0.13 -0.49,-0.26 -0.72,-0.38l-1.44 -0.75c-0.23,-0.12 -0.49,-0.27 -0.72,-0.37l-1.54 -0.64c-0.25,-0.11 -0.55,-0.2 -0.81,-0.29l-17.32 -5.7c-0.28,-0.1 -0.54,-0.22 -0.8,-0.31l-8.8 -2.16c-0.71,-0.25 0.6,-0.23 -2.46,-0.83 -1.53,-0.31 -1.64,-0.14 -3.03,-0.26 -5.76,-0.52 -2.61,-1.64 -9.81,-2.24 -3.81,-0.32 -7.96,0.63 -11.63,-0.42 -0.28,-0.07 -0.54,-0.21 -0.8,-0.3 -6.28,-2.12 -15.96,-2.06 -22.73,-1.48 -8.57,0.76 0,1.91 -9.74,2.32 -3.87,0.17 -9.17,-0.61 -12.78,0.37l-22.12 5.29c-0.25,0.09 -0.53,0.21 -0.79,0.3l-26.86 10.4c-0.23,0.11 -0.51,0.26 -0.74,0.36 -0.23,0.12 -0.51,0.26 -0.72,0.37l-2.2 1.09c-0.23,0.11 -0.51,0.24 -0.73,0.36l-23.41 13.85c-3.77,2.26 -5.94,5.45 -9.57,7.97l-4.2 2.37c-6.55,4.53 -13.09,12.93 -18.73,18.54l-6.02 6.04c-2.41,3.1 1.32,-2.23 -0.89,1.3l-10.94 15.38c-0.13,0.19 -0.28,0.47 -0.39,0.69l-15.73 28.1c-0.09,0.29 -0.15,0.59 -0.24,0.88 -0.08,0.27 -0.16,0.57 -0.25,0.84 -0.83,2.4 -0.01,0.33 -0.95,2.34l-1.53 2.85c-0.16,0.32 -0.54,1.2 -0.66,1.54l-3.37 8.69c-0.12,0.23 -0.29,0.48 -0.38,0.71 -0.11,0.24 -0.28,0.49 -0.36,0.73 -0.51,1.25 -0.24,0.08 -0.78,2.51l-1.32 6.36c-0.08,0.26 -0.22,0.52 -0.31,0.8l-6.65 28.41c-1.9,5.76 -1.18,40.44 -0.84,48.64 0.42,9.76 1.63,1.14 2.29,9.77 0.12,1.73 -0.17,3.68 0.07,5.41l3.47 15.16c0.39,1.11 0.88,2.66 1.37,4.12 0.09,0.26 0.21,0.53 0.3,0.79l5.27 15.56c0.43,1.29 0.34,1.41 0.71,2.58 0.09,0.29 0.17,0.57 0.26,0.86l2.43 5.22c0.1,0.23 0.25,0.51 0.35,0.74l5.85 11.68c0.13,0.22 0.26,0.5 0.36,0.73l6.61 13.12c0.13,0.2 0.32,0.45 0.44,0.65l17.99 24.77c1.27,1.64 0.75,0.84 1.59,1.69 7.06,7.16 13.86,15.15 22.29,20.43 3.23,2.04 5.35,5.59 8.8,7.64l19.74 12.05c6.36,3.09 4.91,3.94 12.29,6.35l5.25 2.41c0.03,0.02 1.41,0.72 1.44,0.75l42.35 12.45c6.29,2.02 9.98,1.03 17.28,1.33 6.34,0.28 12.52,4.78 22.18,1.52 3.04,-1.01 -2.15,-0.46 4.11,-1.38 1.47,-0.21 4.9,-0.09 6.51,-0.05l10.63 -1.42c3.46,-1.14 9.04,-0.63 17.34,-3.5l11.23 -3.02c0.26,-0.09 0.54,-0.19 0.8,-0.29l4.96 -1.62c0.24,-0.11 0.52,-0.25 0.75,-0.34 0.23,-0.11 0.49,-0.28 0.72,-0.37 0.52,-0.28 2.09,-1.14 2.13,-1.16l16.85 -7.28c0.23,-0.1 0.51,-0.24 0.74,-0.35 0,0 1.44,-0.72 1.46,-0.74 0.23,-0.11 0.51,-0.24 0.73,-0.36l22.55 -13.6c0.32,-0.23 1.16,-1 1.75,-1.55l5.65 -4.22c5.72,-3.35 8.67,-9.51 14,-13.41 2.3,-1.69 -0.83,-1.44 4.99,-1.57z"/>
   <path class="fil2" d="M9181.07 4971.58l-1.56 0.63c-4.58,1.06 -10.11,-0.16 -14.84,0.51l-4.91 1.66c-2.57,0.68 -2.51,0.28 -4.98,0.53 -5.8,0.58 -2.94,0.63 -5.22,1.35 -2.64,0.83 -1.75,0.37 -4.55,0.92l-5.04 1.53c-1.42,0.49 -2.99,0.95 -4.14,1.34l-17.59 6.54c-0.24,0.09 -0.52,0.21 -0.78,0.32l-16.05 8.05c-0.23,0.11 -0.51,0.26 -0.73,0.35l-23.41 16.05c-1.44,0.92 -0.88,0.39 -2.17,1.14l-3.15 2.32c-0.01,0.01 -1.58,1.64 -1.62,1.68 -0.39,0.4 -0.94,0.96 -1.63,1.65 -9.02,9.11 -19.63,17.46 -26.51,28.28l-9.44 12.49c-0.13,0.2 -0.29,0.46 -0.42,0.68 -0.12,0.21 -0.26,0.49 -0.37,0.7l-6.96 11.69c-0.1,0.23 -0.24,0.51 -0.34,0.74l-11 24.08c-0.09,0.26 -0.21,0.54 -0.3,0.8l-3.53 10.72c-0.09,0.27 -0.19,0.55 -0.28,0.83l-1.42 4.05c-0.36,1.08 -0.41,1.43 -0.79,2.49l-1.92 10.15c-1.29,6.49 -0.37,-1.58 -1.66,4.9l-2.46 53.45c0,3.53 -0.32,8.81 -0.03,12.1 0.2,2.24 -0.17,-0.05 0.26,1.94l1.97 7.88c0.3,3.36 -0.14,1.78 0.76,4.73 0.1,0.26 0.25,0.5 0.32,0.78l3.61 15.02c0.06,0.32 0.14,0.59 0.21,0.89l4.64 13.99c0.11,0.25 0.22,0.53 0.32,0.79l4.07 10.18c0.09,0.26 0.22,0.54 0.32,0.78l2.95 5.82c0.42,0.85 0.8,1.58 1.09,2.2l13.64 22.51c0.06,0.08 1.02,1.22 1.46,1.83l13.21 17.48c0.95,0.94 1.06,1.06 1.64,1.66 6.87,6.82 14.12,16.18 22.66,21.19l13.21 9.79c1.35,0.87 0.9,0.43 2.12,1.17l7.26 4.79c0.92,0.6 0.8,0.6 1.88,1.41 0.26,0.2 0.96,0.8 1.21,0.98l12.27 6.36c2.01,0.92 -0.03,0.14 2.35,0.95l14.38 5.35c0.26,0.09 0.55,0.18 0.81,0.29l16.41 5.51c2.75,0.63 2.76,0.24 5.47,1.09l10.98 2.17c8.5,2.73 12.87,0.01 21.27,2.85 4.57,1.55 13.23,1.68 18.2,0 4.49,-1.52 10.94,-0.95 16.16,-1.4 2.22,-0.18 -0.05,0.17 1.92,-0.25l24.64 -6.06c1.3,-0.3 1.67,-0.21 2.85,-0.43 0.33,-0.06 0.63,-0.09 0.95,-0.15 0.31,-0.08 0.58,-0.14 0.89,-0.23l11.78 -4.64c0.32,-0.15 1.2,-0.54 1.54,-0.66l46.73 -26.69c0.22,-0.14 0.51,-0.26 0.72,-0.37l34.55 -35.61c2.43,-3.06 0.81,-0.26 3.25,-3.32 2.48,-3.1 -1.38,2.26 0.89,-1.29 0.92,-1.42 0.4,-0.87 1.16,-2.13l17.88 -31.45c1.64,-3.25 -0.92,1.76 0.73,-1.46l13.92 -45.27c0.87,-8.4 2.3,-6.26 2.13,-16.49 -0.01,-1.41 -0.13,-4.21 -0.01,-5.5 0.54,-6.36 0.69,-2.79 1.47,-5.1 1.95,-5.84 1.26,-16.17 -0.68,-21.92 -2.02,-6 0.44,-14.47 -1.51,-20.4l-8.48 -34.25c-0.11,-0.28 -0.2,-0.56 -0.29,-0.81 -0.11,-0.26 -0.23,-0.54 -0.33,-0.79l-4.36 -10.96c-0.11,-0.24 -0.25,-0.52 -0.34,-0.75 -0.16,-0.32 -0.6,-1.16 -0.76,-1.46l-24.89 -43.04 -13.83 -14.68c-5.02,-8.25 -2.65,-2.2 -13.91,-13.49 -1.08,-1.09 -1.38,-1.36 -2.73,-2.75 -4.23,-4.31 -3.31,-2.88 -8.1,-6.15l-39.55 -22.92c-0.23,-0.12 -0.49,-0.27 -0.72,-0.37l-50.82 -12.74c-11.82,0.25 -11.35,-3.02 -28.57,-2.28l-5.41 1.17z"/>
   <path class="fil2" d="M8571.73 5658.72l-6.58 0c-0.98,2.71 -0.64,1.31 -1.09,2.2l-6.32 14.5c-0.12,0.34 -0.5,1.23 -0.61,1.58 -1,3.3 -0.42,2.35 -0.77,5.8 -0.63,6.15 -0.61,2.84 -1.39,5.18 -1.65,4.93 -1.68,20.03 -0.54,25.33 1.36,6.41 0.41,-1.6 1.7,4.87l6.07 24.62c0.11,0.24 0.26,0.51 0.36,0.73l9.9 19.68c0.14,0.26 0.6,1.2 0.74,1.46l6.92 11.71c0.13,0.21 0.26,0.5 0.38,0.72 0.13,0.21 0.27,0.49 0.38,0.7l9.48 12.45c0.55,0.52 0.76,0.7 1.67,1.61 1.58,1.55 0.38,0.16 1.66,1.64l3.8 6.06c1.27,1.66 0.76,0.85 1.59,1.7 0.05,0.03 1.15,1.07 1.69,1.61 6.46,6.29 15.33,17.43 22.13,21.69l4.18 2.41c2.16,1.68 1.15,1.11 3.26,3.3l50.26 33.04c0.22,0.11 0.5,0.24 0.73,0.36 0.23,0.1 0.49,0.26 0.72,0.35l45.31 19.37c0.26,0.09 0.54,0.21 0.8,0.29l12.07 3.29c0.31,0.07 0.59,0.13 0.88,0.21l19.39 5.82c2.27,0.45 3.8,0.06 6.07,0.51 6.47,1.29 -1.58,0.39 4.9,1.68 2.27,0.44 3.79,0.06 6.06,0.5 6.47,1.31 -1.59,0.38 4.87,1.71 4.47,0.95 7.54,-0.57 12.16,1 8.04,2.69 11.7,0.27 18.08,1.64 6.39,1.38 -1.56,0.38 4.82,1.75 2.84,0.62 10.68,0.23 14.04,0.23 10.84,0 24.5,2.03 34.74,-1.43 3.78,-1.27 11.26,-0.49 15.75,-0.69 9.55,-0.4 1.3,-2.03 10.82,-2.32l64.15 -14.76c0.27,-0.09 0.55,-0.18 0.84,-0.27l33.36 -13.75c0.23,-0.12 0.51,-0.28 0.72,-0.37l8.74 -4.43c0.2,-0.12 0.45,-0.32 0.65,-0.45l28.61 -18.5c0.21,-0.13 0.51,-0.25 0.72,-0.38 0.21,-0.12 0.49,-0.25 0.71,-0.38 0.2,-0.12 0.48,-0.29 0.66,-0.42l11.1 -8.63c4.51,-4.44 8.28,-9.32 13.83,-12.47l3.79 -2.78c0.16,-0.17 0.38,-0.39 0.51,-0.57l1.55 -5.04 4.38 0c0.12,-5.84 -0.14,-2.7 1.57,-5.01l12.98 -15.51c0.12,-0.2 0.27,-0.5 0.4,-0.69 0.12,-0.22 0.26,-0.51 0.37,-0.72l1.2 -2.09c1.26,-1.77 1.97,-1.98 3.21,-3.37 3.09,-3.44 0.65,-0.09 2.93,-4.74l5.06 -10.29c3.09,-6.2 2.91,-3.45 5.91,-11.62l6.91 -18.3c0.09,-0.27 0.2,-0.54 0.29,-0.81l4.1 -18.92c2.1,-5.99 1.71,-26.24 1.12,-32.92 -0.61,-7.11 -1.65,-4.75 -2.27,-10.89l-3.54 -11.8c-0.1,-0.27 -0.2,-0.55 -0.29,-0.81l-1.95 -5.71c-0.02,-0.05 -0.92,-1.63 -1.16,-2.12 -0.12,-0.23 -0.29,-0.5 -0.38,-0.72 -0.16,-0.31 -0.57,-1.19 -0.68,-1.52 -0.77,-2.2 -0.66,-0.47 -0.72,-3.66l-4.38 0c-1.34,3.69 -3.27,3.96 -6.58,5.5l-16.08 9.12c-0.61,0.31 -1.33,0.66 -2.19,1.09l-2.93 1.46c0,0 -1.46,0.74 -1.46,0.74 -0.23,0.1 -0.51,0.26 -0.74,0.35 -0.04,0.03 -1.41,0.71 -1.45,0.74 -0.88,0.43 -2.06,1.02 -2.94,1.46 -3.24,1.65 1.77,-0.92 -1.45,0.73l-4.41 2.17c-0.26,0.09 -0.56,0.2 -0.82,0.29l-31.93 11.9c-0.26,0.09 -0.55,0.2 -0.81,0.29 -0.25,0.11 -0.54,0.22 -0.78,0.32l-7.76 3.2c-1.8,0.33 -1.8,0.1 -3.77,0.61 -0.29,0.08 -0.55,0.19 -0.84,0.26l-8.95 3.11c-1.02,0.34 -1.52,0.44 -2.51,0.78l-3.21 1.17c-2.6,0.78 -1.97,0.37 -4.59,0.89l-1.8 0.38c-0.29,0.08 -0.55,0.2 -0.83,0.28l-37.24 8.78c-0.35,0.11 -1.22,0.52 -1.57,0.63 -4.15,1.32 -4.93,0.29 -9.03,0.83 -7.27,0.96 0.81,1.87 -8.79,2.18 -4.3,0.14 -5.28,-0.59 -9.15,0.7 -6.53,2.2 -10.26,0.5 -15.35,2.2 -6.92,2.32 -14.38,0.43 -21.53,1.49 -7.16,1.04 0.71,1.81 -8.75,2.22 -11.88,0.51 -24.38,-1.15 -36.28,-0.12 -5.32,0.46 -9.57,4.22 -18.13,1.77 -13.31,-3.81 -29.41,-0.48 -43.25,-1.69 -7.31,-0.63 -2.5,-2.42 -18.61,-2.21 -7.67,0.09 -9.87,-2.35 -17.47,-2.26 -8.21,0.11 -8.37,-1.36 -18.67,-2.15 -8.99,-0.69 -0.03,-0.98 -7.79,-2.09 -1.89,-0.27 -3.11,0.04 -5.1,-0.37 -0.32,-0.06 -0.59,-0.13 -0.88,-0.21l-11.76 -2.49c-2.93,-0.92 2.04,-0.42 -4.18,-1.3l-93.02 -29.73c-0.24,-0.1 -0.52,-0.21 -0.78,-0.32l-4.25 -1.23c-0.26,-0.09 -0.55,-0.19 -0.81,-0.29l-10.26 -5.08c-0.63,-0.32 -1.34,-0.66 -2.2,-1.09l-8.12 -3.94c-2.67,-1.41 -3.39,-1.96 -4.31,-4.47z"/>
  </g>
  <path class="fil3 str1" d="M16217.25 611.12c158.07,0 286.22,128.14 286.22,286.22 0,158.07 -128.15,286.22 -286.22,286.22 -158.08,0 -286.23,-128.15 -286.23,-286.22 0,-158.08 128.15,-286.22 286.23,-286.22zm-136.93 441.89l0 -311.34 137.98 0c27.76,0 48.85,2.83 63.27,8.41 14.42,5.58 25.95,15.43 34.57,29.56 8.63,14.13 12.91,29.78 12.91,46.88 0,22.11 -7.17,40.74 -21.46,55.88 -14.28,15.15 -36.3,24.72 -66.16,28.85 10.95,5.22 19.2,10.43 24.86,15.51 12.03,11.01 23.41,24.86 34.07,41.46l53.84 84.79 -51.46 0 -41.16 -64.79c-11.96,-18.77 -21.89,-33.04 -29.64,-42.97 -7.82,-9.93 -14.78,-16.82 -20.94,-20.8 -6.09,-3.91 -12.39,-6.67 -18.77,-8.27 -4.64,-0.94 -12.25,-1.45 -22.91,-1.45l-47.68 0 0 138.28 -41.31 0zm41.31 -173.93l88.42 0c18.84,0 33.48,-1.96 44.06,-5.87 10.58,-3.84 18.63,-10.08 24.07,-18.7 5.51,-8.55 8.26,-17.83 8.26,-27.9 0,-14.72 -5.29,-26.89 -15.94,-36.38 -10.65,-9.5 -27.47,-14.21 -50.44,-14.21l-98.42 0 0 103.06z"/>
 </g>
</svg>
